<?xml version="1.0" encoding="UTF-8"?>
<svg width="200pt" version="1.1" xmlns="http://www.w3.org/2000/svg" height="200pt" viewBox="0 0 200 200" xmlns:xlink="http://www.w3.org/1999/xlink">
 <defs>
  <clipPath id="Clip0">
   <path d="M0 0 L198 0 L198 76.7607 L0 76.7607 L0 0 Z" transform="translate(1.56697, 62.0893)"/>
  </clipPath>
  <clipPath id="Clip1">
   <path d="M0 0 L198 0 L198 76.7607 L0 76.7607 L0 0 Z" transform="translate(1.56697, 62.0893)"/>
  </clipPath>
  <clipPath id="Clip2">
   <path d="M0 0 L45.675 0 L45.675 45.0526 L0 45.0526 L0 0 Z" transform="translate(79.1274, 62.0893)"/>
  </clipPath>
  <clipPath id="Clip3">
   <path d="M45.1213 22.5306 C45.1213 34.9676 35.0251 45.0526 22.5654 45.0526 C10.102 45.0526 0 34.9676 0 22.5306 C0 10.088 10.101 0 22.5654 0 C35.0251 0 45.1213 10.087 45.1213 22.5306 Z" transform="translate(79.4231, 62.0893)"/>
  </clipPath>
  <linearGradient id="Grad0" y1="45.0522" x1="22.5634" y2="0.000480746" gradientUnits="userSpaceOnUse" x2="22.5634">
   <stop offset="0%" stop-color="#bbbdbf" stop-opacity="1"/>
   <stop offset="100%" stop-color="#e7e7e8" stop-opacity="1"/>
  </linearGradient>
  <linearGradient id="Grad1" y1="4.18538" x1="0.0783964" y2="4.18538" gradientUnits="userSpaceOnUse" x2="22.9718">
   <stop offset="0%" stop-color="#ee3f36" stop-opacity="1"/>
   <stop offset="100%" stop-color="#f6911e" stop-opacity="1"/>
  </linearGradient>
  <linearGradient id="Grad2" y1="3.62636" x1="0.00028893" y2="3.62636" gradientUnits="userSpaceOnUse" x2="23.7195">
   <stop offset="0%" stop-color="#ee3f36" stop-opacity="1"/>
   <stop offset="100%" stop-color="#f6911e" stop-opacity="1"/>
  </linearGradient>
  <linearGradient id="Grad3" y1="2.87948" x1="0.00028893" y2="2.87948" gradientUnits="userSpaceOnUse" x2="24.0487">
   <stop offset="0%" stop-color="#ee3f36" stop-opacity="1"/>
   <stop offset="100%" stop-color="#f6911e" stop-opacity="1"/>
  </linearGradient>
  <linearGradient id="Grad4" y1="2.23941" x1="0.00028893" y2="2.23941" gradientUnits="userSpaceOnUse" x2="24.0487">
   <stop offset="0%" stop-color="#ee3f36" stop-opacity="1"/>
   <stop offset="100%" stop-color="#f6911e" stop-opacity="1"/>
  </linearGradient>
  <linearGradient id="Grad5" y1="1.90154" x1="-0.00067417" y2="1.90154" gradientUnits="userSpaceOnUse" x2="23.8013">
   <stop offset="0%" stop-color="#ee3f36" stop-opacity="1"/>
   <stop offset="100%" stop-color="#f6911e" stop-opacity="1"/>
  </linearGradient>
  <linearGradient id="Grad6" y1="5.3183" x1="19.2689" y2="5.3183" gradientUnits="userSpaceOnUse" x2="0.0149281">
   <stop offset="0%" stop-color="#ee3f36" stop-opacity="1"/>
   <stop offset="100%" stop-color="#f6911e" stop-opacity="1"/>
  </linearGradient>
  <linearGradient id="Grad7" y1="4.44421" x1="19.3309" y2="4.44421" gradientUnits="userSpaceOnUse" x2="0.0407392">
   <stop offset="0%" stop-color="#ee3f36" stop-opacity="1"/>
   <stop offset="100%" stop-color="#f6911e" stop-opacity="1"/>
  </linearGradient>
  <linearGradient id="Grad8" y1="3.43887" x1="19.0214" y2="3.43887" gradientUnits="userSpaceOnUse" x2="0.00019262">
   <stop offset="0%" stop-color="#ee3f36" stop-opacity="1"/>
   <stop offset="100%" stop-color="#f6911e" stop-opacity="1"/>
  </linearGradient>
  <linearGradient id="Grad9" y1="2.3021" x1="18.51" y2="2.3021" gradientUnits="userSpaceOnUse" x2="0.00038524">
   <stop offset="0%" stop-color="#ee3f36" stop-opacity="1"/>
   <stop offset="100%" stop-color="#f6911e" stop-opacity="1"/>
  </linearGradient>
  <linearGradient id="Grad10" y1="1.80511" x1="17.702" y2="1.80511" gradientUnits="userSpaceOnUse" x2="0.00028893">
   <stop offset="0%" stop-color="#ee3f36" stop-opacity="1"/>
   <stop offset="100%" stop-color="#f6911e" stop-opacity="1"/>
  </linearGradient>
  <clipPath id="Clip4">
   <path d="M0 0 L198 0 L198 20.4519 L0 20.4519 L0 0 Z" transform="translate(1.56697, 118.398)"/>
  </clipPath>
  <clipPath id="Clip5">
   <path d="M0 0 L188.016 0 L188.016 10.1226 L0 10.1226 L0 0 Z" transform="translate(6.99596, 118.398)"/>
  </clipPath>
  <clipPath id="Clip6">
   <path d="M0 0 L196.706 0 L196.706 5.83434 L0 5.83434 L0 0 Z" transform="translate(2.17468, 133.016)"/>
  </clipPath>
  <clipPath id="Clip7">
   <path d="M0 0 L198 0 L198 0.700928 L0 0.700928 L0 0 Z" transform="translate(1.56697, 130.623)"/>
  </clipPath>
 </defs>
 <g id="Background">
  <g id="gtg_-_ORIG" clip-path="url(#Clip0)">
   <g id="Group7" clip-path="url(#Clip1)">
    <g id="Group2" clip-path="url(#Clip2)">
     <g id="Group1" clip-path="url(#Clip3)">
      <path style="fill:url(#Grad0); fill-rule:nonzero;stroke:none;" d="M45.128 22.5306 C45.128 34.9676 35.027 45.0526 22.5654 45.0526 C10.0971 45.0526 0 34.9676 0 22.5306 C0 10.088 10.0962 0 22.5654 0 C35.026 0 45.128 10.087 45.128 22.5306 Z" transform="translate(79.4134, 62.0893)"/>
      <path style="fill:url(#Grad1); fill-rule:nonzero;stroke:none;" d="M22.9719 8.36979 C22.9719 8.36979 14.7691 6.20836 12.1331 5.58627 C9.4981 4.96707 0.27641 3.65271 0.141576 3.82578 C0 3.99692 0.141576 0 0.141576 0 C0.141576 0 12.6301 1.54223 21.7796 5.41128 C21.9144 5.83914 22.2033 6.38719 22.4268 6.94967 C22.7677 7.74578 22.9719 8.36979 22.9719 8.36979 Z" transform="translate(100.675, 69.0207)"/>
      <path style="fill:url(#Grad2); fill-rule:nonzero;stroke:none;" d="M23.7192 6.96217 C23.7192 6.96217 17.2366 5.50839 15.1332 5.14206 C13.0279 4.77862 8.97995 4.34691 7.24155 4.18249 C5.50123 4.01615 0 3.90077 0 3.90077 C0 3.90077 0 0 0 0.307678 C0 0.404788 0.991994 0.0576895 5.33461 0.674006 C9.67723 1.28455 10.1241 1.33551 11.9964 1.7028 C13.8686 2.06336 23.2348 4.6142 23.2348 4.6142 L23.7192 6.96217 Z" transform="translate(100.754, 73.7839)"/>
      <path style="fill:url(#Grad3); fill-rule:nonzero;stroke:none;" d="M24.0486 5.75838 C24.0486 5.75838 18.8768 4.77285 17.5169 4.63247 C16.157 4.48728 8.73436 3.6854 7.47077 3.63733 C6.21007 3.5931 0 3.37195 0 3.37195 L0 0 C0 0 4.0248 0.260564 8.23547 0.625931 C12.4452 0.990337 14.6863 1.33744 17.5169 1.88549 C20.3513 2.42681 23.9042 3.10947 23.9042 3.10947 L24.0486 5.75838 Z" transform="translate(100.754, 78.4664)"/>
      <path style="fill:url(#Grad4); fill-rule:nonzero;stroke:none;" d="M23.9157 4.3796 C23.9157 4.3796 19.681 3.87097 13.4083 3.50752 C11.3126 3.38445 8.4618 3.40849 6.6791 3.4431 C3.11563 3.51137 0 3.65079 0 3.65079 L0 0.211528 C0 0.211528 0.840787 0 4.75675 0.159608 C6.42099 0.230758 9.83326 0.443248 12.0214 0.6442 C19.3718 1.30571 24.0477 2.29701 24.0477 2.29701 L23.9157 4.3796 Z" transform="translate(100.754, 82.92)"/>
      <path style="fill:url(#Grad5); fill-rule:nonzero;stroke:none;" d="M23.3504 3.09408 C23.3504 3.09408 20.7895 2.72295 18.1901 2.64795 C15.5955 2.57295 13.4449 2.76237 12.3113 2.74602 C9.72443 2.73352 0 3.77578 0 3.77578 L0 0.562473 C0 0.562473 2.45013 0.326907 5.16511 0.187491 C8.02937 0.0471131 11.1777 0 12.2006 0.0413442 C13.1357 0.0749964 15.1727 0.141339 18.3028 0.374982 C21.4377 0.610548 23.8021 0.881688 23.8021 0.881688 L23.5372 2.17393 L23.3504 3.09408 Z" transform="translate(100.755, 87.2025)"/>
      <path style="fill:url(#Grad6); fill-rule:nonzero;stroke:none;" d="M0.0163727 10.638 C3.04629 9.36782 3.56925 9.14283 6.44025 7.96789 C9.30933 6.78814 9.73406 6.60161 13.1415 5.25071 C16.547 3.89308 19.2688 3.46522 19.2688 3.46522 C19.2688 3.46522 19.2688 3.46522 19.2688 0 C17.6902 0.307678 13.6375 1.83549 12.0946 2.42296 C10.5556 3.00274 7.57286 4.43152 5.64666 5.31898 C3.71564 6.20163 0.109793 8.29287 0.109793 8.29287 C0.109793 8.29287 0 9.01014 0.0163727 10.638 Z" transform="translate(79.164, 73.9262)"/>
      <path style="fill:url(#Grad7); fill-rule:nonzero;stroke:none;" d="M0.186842 8.88803 C2.00036 8.27172 1.84145 8.17653 5.35773 7.0362 C8.87497 5.89683 7.72021 6.18143 9.92283 5.52185 C11.196 5.1411 10.311 5.39782 12.2564 4.90073 C14.2009 4.4046 13.7675 4.45844 15.5762 4.11903 C19.8774 3.31426 19.3054 3.47676 19.3054 3.47676 C19.3054 3.47676 19.3054 3.47676 19.3054 0 C15.8469 0.782655 14.9907 1.0586 14.9907 1.0586 C14.9907 1.0586 12.2439 1.81145 9.6782 2.74602 C7.10961 3.67386 10.0162 2.63353 5.80557 4.26806 C0.23307 6.58141 0.0462288 6.7516 0.0462288 6.7516 C0.0462288 6.7516 0 6.9737 0.186842 8.88803 Z" transform="translate(79.1274, 78.4308)"/>
      <path style="fill:url(#Grad8); fill-rule:nonzero;stroke:none;" d="M0.349606 6.87755 C0.349606 6.87755 1.08156 6.72372 4.83765 5.63531 C5.43574 5.45839 8.47625 4.7392 9.50966 4.56709 C10.544 4.39017 10.7732 4.29402 14.041 3.88924 C18.453 3.55368 19.0212 3.51425 19.0212 3.51425 L19.0212 0 C19.0212 0 16.0645 0.321138 12.6465 1.01534 C9.22843 1.71338 8.71606 1.92491 5.65822 2.83833 C2.60037 3.75655 0 4.89015 0 4.89015 L0.349606 6.87755 Z" transform="translate(79.4115, 83.1229)"/>
      <path style="fill:url(#Grad9); fill-rule:nonzero;stroke:none;" d="M0.582676 4.60459 C0.582676 4.60459 6.45374 3.79982 9.64449 3.57579 C12.8429 3.35368 18.5098 3.27773 18.5098 3.27773 L18.5098 0 C18.5098 0 13.9476 0.06442 9.15042 0.746118 C4.35321 1.42685 0 2.73064 0 2.73064 L0.294709 3.67963 L0.582676 4.60459 Z" transform="translate(79.9229, 87.7005)"/>
      <path style="fill:url(#Grad10); fill-rule:nonzero;stroke:none;" d="M1.04593 3.03832 C1.04593 3.03832 6.76386 2.85275 8.75073 2.83833 C10.7395 2.82871 17.7018 3.6104 17.7018 3.6104 L17.7018 0 C17.7018 0 12.9267 0 8.58989 0.0711504 C4.25209 0.146147 0 0.778809 0 0.778809 L1.04593 3.03832 Z" transform="translate(80.7309, 92.1359)"/>
     </g>
    </g>
    <g id="Group6" clip-path="url(#Clip4)">
     <g id="Group3" clip-path="url(#Clip5)">
      <path style="fill:#6d7071; fill-rule:nonzero;stroke:none;" d="M9.53566 1.37782 L1.67483 1.37782 L1.67483 8.714 L9.53566 8.714 L9.53566 5.74492 L5.47041 5.74492 L5.47041 4.45171 L11.2066 4.45171 L11.2066 7.72655 C11.2066 8.65247 11.04 9.28225 10.7106 9.61781 C10.3851 9.95529 9.76488 10.1187 8.85089 10.1187 L2.35478 10.1187 C1.43791 10.1187 0.815746 9.95433 0.494071 9.61204 C0.16758 9.27263 0 8.64478 0 7.72655 L0 2.39219 C0 1.47493 0.16758 0.846113 0.494071 0.50286 C0.815746 0.170184 1.43695 0 2.35478 0 L8.85186 0 C9.75139 0 10.3649 0.162492 10.7068 0.494207 C11.04 0.817268 11.2076 1.41724 11.2076 2.2797 L11.2076 2.52969 L9.53662 2.86525 L9.53662 1.37782 L9.53566 1.37782 Z" transform="translate(6.99596, 118.398)"/>
      <path style="fill:#6d7071; fill-rule:nonzero;stroke:none;" d="M0 10.1187 L0 0 L1.67965 0 L1.67965 8.714 L9.27755 8.714 L9.27755 10.1197 L0 10.1197 L0 10.1187 Z" transform="translate(21.0746, 118.399)"/>
      <path style="fill:#6d7071; fill-rule:nonzero;stroke:none;" d="M0 2.39219 C0 1.47493 0.163727 0.846113 0.493108 0.50286 C0.814783 0.170184 1.43984 0 2.35863 0 L9.29874 0 C10.2021 0 10.8195 0.162492 11.146 0.500937 C11.4734 0.834575 11.6343 1.47012 11.6343 2.39219 L11.6343 7.72655 C11.6343 8.66016 11.4734 9.28898 11.146 9.62646 C10.8195 9.95529 10.2031 10.1197 9.29874 10.1197 L2.35863 10.1197 C1.4408 10.1197 0.814783 9.95529 0.493108 9.613 C0.163727 9.27359 0 8.64574 0 7.72751 L0 2.39219 Z M1.67291 8.71304 L9.9835 8.71304 L9.9835 1.37686 L1.67291 1.37686 L1.67291 8.71304 Z" transform="translate(31.6899, 118.399)"/>
      <path style="fill:#6d7071; fill-rule:nonzero;stroke:none;" d="M0 10.1187 L0 0 L8.09197 0 C8.84319 0 9.38734 0.158646 9.72057 0.460555 C10.049 0.774963 10.2166 1.27494 10.2166 1.96337 L10.2166 3.13927 C10.2166 3.68155 10.0808 4.09019 9.81207 4.35844 C9.54144 4.62959 9.1196 4.79881 8.5427 4.86611 C9.10804 4.93534 9.5347 5.13533 9.83037 5.47281 C10.128 5.80549 10.2695 6.26508 10.2695 6.84871 L10.2695 8.14288 C10.2695 8.80919 10.0413 9.31109 9.58767 9.63223 C9.12634 9.95914 8.42809 10.1216 7.48907 10.1216 L0 10.1216 L0 10.1187 Z M8.49936 3.25561 L8.49936 2.24124 C8.49936 1.90375 8.42809 1.67973 8.2817 1.54704 C8.14013 1.42012 7.8695 1.35859 7.47077 1.35859 L1.67676 1.35859 L1.67676 4.15172 L7.47077 4.15172 C7.85505 4.15172 8.12761 4.08827 8.27303 3.95173 C8.42424 3.82097 8.49936 3.58733 8.49936 3.25561 Z M8.58315 7.53714 L8.58315 6.69102 C8.58315 6.23239 8.50129 5.91414 8.34045 5.73819 C8.18154 5.56319 7.89068 5.47666 7.47173 5.47666 L1.67772 5.47666 L1.67772 8.73131 L7.47173 8.73131 C7.89646 8.73131 8.18636 8.64478 8.34623 8.47171 C8.50322 8.30056 8.58315 7.98615 8.58315 7.53714 Z" transform="translate(46.4686, 118.399)"/>
      <path style="fill:#6d7071; fill-rule:nonzero;stroke:none;" d="M0 10.1187 L5.47812 0 L7.26852 0 L12.8468 10.1187 L11.0044 10.1187 L9.72346 7.63136 L2.93264 7.63136 L1.64979 10.1187 L0 10.1187 Z M3.63474 6.34008 L9.03966 6.34008 L6.33142 1.15668 L3.63474 6.34008 Z" transform="translate(57.4663, 118.399)"/>
      <path style="fill:#6d7071; fill-rule:nonzero;stroke:none;" d="M0 10.1187 L0 0 L1.67772 0 L1.67772 8.714 L9.27562 8.714 L9.27562 10.1197 L0 10.1197 L0 10.1187 Z" transform="translate(71.6171, 118.399)"/>
      <path style="fill:#6d7071; fill-rule:nonzero;stroke:none;" d="M6.25726 1.37782 L6.25726 10.1197 L4.58629 10.1197 L4.58629 1.37782 L0 1.37782 L0 0 L10.8638 0 L10.8638 1.37782 L6.25726 1.37782 Z" transform="translate(85.3317, 118.398)"/>
      <path style="fill:#6d7071; fill-rule:nonzero;stroke:none;" d="M0 2.39219 C0 1.47493 0.162764 0.846113 0.488292 0.50286 C0.815746 0.170184 1.43598 0 2.35478 0 L9.29103 0 C10.1983 0 10.8156 0.162492 11.144 0.500937 C11.4676 0.834575 11.6304 1.47012 11.6304 2.39219 L11.6304 7.72655 C11.6304 8.66016 11.4676 9.28898 11.144 9.62646 C10.8156 9.95529 10.1992 10.1197 9.29103 10.1197 L2.35478 10.1197 C1.43598 10.1197 0.814783 9.95529 0.488292 9.613 C0.162764 9.27359 0 8.64574 0 7.72751 L0 2.39219 Z M1.67002 8.71304 L9.98061 8.71304 L9.98061 1.37686 L1.67002 1.37686 L1.67002 8.71304 Z" transform="translate(96.938, 118.399)"/>
      <path style="fill:#6d7071; fill-rule:nonzero;stroke:none;" d="M0 10.1187 L0 0 L8.09293 0 C8.84512 0 9.38927 0.158646 9.72057 0.460555 C10.0538 0.774963 10.2195 1.27494 10.2195 1.96337 L10.2195 4.22191 C10.2195 4.90746 10.0538 5.40455 9.72057 5.71223 C9.3883 6.02086 8.84512 6.17566 8.09293 6.17566 L1.68157 6.17566 L1.68157 10.1207 L0 10.1207 L0 10.1187 Z M7.4361 1.30955 L1.68157 1.30955 L1.68157 4.844 L7.4361 4.844 C7.84927 4.844 8.12953 4.76323 8.28941 4.60074 C8.44254 4.44402 8.51959 4.17095 8.51959 3.78347 L8.51959 2.372 C8.51959 1.98164 8.44254 1.70857 8.28941 1.548 C8.12953 1.39128 7.84927 1.30955 7.4361 1.30955 Z" transform="translate(111.712, 118.399)"/>
      <path style="fill:#6d7071; fill-rule:nonzero;stroke:none;" d="M9.53181 1.37782 L1.66905 1.37782 L1.66905 8.714 L9.53181 8.714 L9.53181 5.74492 L5.4656 5.74492 L5.4656 4.45171 L11.2009 4.45171 L11.2009 7.72655 C11.2009 8.65247 11.0381 9.28225 10.7087 9.61781 C10.3784 9.95529 9.76199 10.1187 8.84608 10.1187 L2.34708 10.1187 C1.43406 10.1187 0.811894 9.95433 0.480587 9.61204 C0.160838 9.27263 0 8.64478 0 7.72655 L0 2.39219 C0 1.47493 0.160838 0.846113 0.480587 0.50286 C0.811894 0.170184 1.43309 0 2.34708 0 L8.84608 0 C9.74561 0 10.3601 0.162492 10.6981 0.494207 C11.0323 0.817268 11.1999 1.41724 11.1999 2.2797 L11.1999 2.52969 L9.53084 2.86525 L9.53084 1.37782 L9.53181 1.37782 Z" transform="translate(129.279, 118.398)"/>
      <path style="fill:#6d7071; fill-rule:nonzero;stroke:none;" d="M0 10.1187 L0 0 L8.08427 0 C8.84415 0 9.38638 0.158646 9.71383 0.460555 C10.05 0.774963 10.2156 1.27494 10.2156 1.96337 L10.2156 4.22191 C10.2156 4.90746 10.049 5.40455 9.71383 5.71223 C9.38542 6.02086 8.84415 6.17566 8.08427 6.17566 L6.6165 6.17566 L11.2076 10.1207 L8.71799 10.1207 L4.63637 6.17566 L1.68157 6.17566 L1.68157 10.1207 L0 10.1207 L0 10.1187 Z M7.43225 1.30955 L1.67965 1.30955 L1.67965 4.86419 L7.43225 4.86419 C7.85216 4.86419 8.13627 4.78631 8.28844 4.63055 C8.43869 4.47959 8.51477 4.20845 8.51477 3.82482 L8.51477 2.35277 C8.51477 1.96817 8.43869 1.69992 8.28459 1.54608 C8.12664 1.39128 7.84638 1.30955 7.43225 1.30955 Z" transform="translate(143.352, 118.399)"/>
      <path style="fill:#6d7071; fill-rule:nonzero;stroke:none;" d="M0 2.39219 C0 1.47493 0.162764 0.846113 0.489255 0.50286 C0.814783 0.170184 1.43598 0 2.35382 0 L9.29488 0 C10.2021 0 10.8147 0.162492 11.144 0.500937 C11.4657 0.834575 11.6304 1.47012 11.6304 2.39219 L11.6304 7.72655 C11.6304 8.66016 11.4657 9.28898 11.144 9.62646 C10.8147 9.95529 10.2021 10.1197 9.29488 10.1197 L2.35382 10.1197 C1.43695 10.1197 0.814783 9.95529 0.489255 9.613 C0.162764 9.27359 0 8.64574 0 7.72751 L0 2.39219 Z M1.66905 8.71304 L9.97869 8.71304 L9.97869 1.37686 L1.66905 1.37686 L1.66905 8.71304 Z" transform="translate(156.096, 118.399)"/>
      <path style="fill:#6d7071; fill-rule:nonzero;stroke:none;" d="M1.68254 0 L1.68254 8.714 L8.99825 8.714 L8.99825 0 L10.648 0 L10.648 7.72655 C10.648 8.66016 10.4872 9.28898 10.1597 9.62646 C9.83133 9.95529 9.21495 10.1197 8.3106 10.1197 L2.35574 10.1197 C1.44465 10.1197 0.82634 9.95529 0.495034 9.613 C0.16758 9.27359 0 8.64574 0 7.72751 L0 0.000961492 L1.68254 0.000961492 L1.68254 0 Z" transform="translate(170.87, 118.398)"/>
      <path style="fill:#6d7071; fill-rule:nonzero;stroke:none;" d="M0 10.1187 L0 0 L8.09679 0 C8.84512 0 9.39023 0.158646 9.72154 0.460555 C10.0557 0.774963 10.2223 1.27494 10.2223 1.96337 L10.2223 4.22191 C10.2223 4.90746 10.0557 5.40455 9.72154 5.71223 C9.39023 6.02086 8.84608 6.17566 8.09679 6.17566 L1.68735 6.17566 L1.68735 10.1207 L0 10.1207 L0 10.1187 Z M7.43803 1.30955 L1.68735 1.30955 L1.68735 4.844 L7.43803 4.844 C7.8512 4.844 8.13338 4.76323 8.28844 4.60074 C8.44254 4.44402 8.52248 4.17095 8.52248 3.78347 L8.52248 2.372 C8.52248 1.98164 8.44254 1.70857 8.28844 1.548 C8.13338 1.39128 7.8512 1.30955 7.43803 1.30955 Z" transform="translate(184.79, 118.399)"/>
     </g>
     <g id="Group4" clip-path="url(#Clip6)">
      <path style="fill:#6d7071; fill-rule:nonzero;stroke:none;" d="M0 5.62954 L0 0 L1.9628 0 C2.33841 0 2.67068 0.0201913 2.96153 0.0721119 C3.25528 0.119225 3.53843 0.253834 3.80232 0.461516 C4.07295 0.672083 4.29254 0.976876 4.46205 1.36532 C4.63444 1.75953 4.71727 2.22874 4.71727 2.78064 C4.71727 3.62579 4.51502 4.31133 4.09896 4.83534 C3.68964 5.36417 3.01162 5.62954 2.06007 5.62954 L0 5.62954 Z M0.756034 4.96418 L1.97436 4.96418 C2.46843 4.96418 2.8527 4.89496 3.12141 4.74593 C3.39011 4.60266 3.5914 4.35748 3.73298 4.01615 C3.86974 3.67578 3.93523 3.2585 3.93523 2.7691 C3.93523 2.42392 3.90441 2.12009 3.83314 1.85953 C3.76765 1.59896 3.65882 1.3759 3.52302 1.2009 C3.3853 1.03168 3.21001 0.88938 2.99428 0.799962 C2.77855 0.704774 2.43376 0.659584 1.94932 0.659584 L0.756034 0.659584 L0.756034 4.96418 Z" transform="translate(2.17468, 133.126)"/>
      <path style="fill:#6d7071; fill-rule:nonzero;stroke:none;" d="M0 5.62954 L0 0 L4.12014 0 L4.12014 0.660545 L0.742551 0.660545 L0.742551 2.38739 L3.90345 2.38739 L3.90345 3.04793 L0.742551 3.04793 L0.742551 4.96515 L4.24535 4.96515 L4.24535 5.6305 L0 5.6305 L0 5.62954 Z" transform="translate(8.54848, 133.126)"/>
      <path style="fill:#6d7071; fill-rule:nonzero;stroke:none;" d="M0 5.62954 L0 0 L0.756997 0 L0.756997 4.96418 L3.55962 4.96418 L3.55962 5.62954 L0 5.62954 L0 5.62954 Z" transform="translate(14.4301, 133.126)"/>
      <path style="fill:#6d7071; fill-rule:nonzero;stroke:none;" d="M0 5.62954 L0 0 L0.751218 0 L0.751218 5.62954 L0 5.62954 Z" transform="translate(19.6232, 133.126)"/>
      <path style="fill:#6d7071; fill-rule:nonzero;stroke:none;" d="M2.20646 5.62954 L0 3.55271e-14 L0.820562 3.55271e-14 L2.29411 4.08346 C2.4116 4.38344 2.50791 4.69304 2.59845 5.0113 C2.67357 4.75169 2.77277 4.4469 2.90567 4.08346 L4.43508 0 L5.20748 0 L2.98657 5.62954 L2.20646 5.62954 L2.20646 5.62954 Z" transform="translate(21.7266, 133.126)"/>
      <path style="fill:#6d7071; fill-rule:nonzero;stroke:none;" d="M0 5.62954 L0 0 L4.11533 0 L4.11533 0.660545 L0.742551 0.660545 L0.742551 2.38739 L3.89959 2.38739 L3.89959 3.04793 L0.742551 3.04793 L0.742551 4.96515 L4.23764 4.96515 L4.23764 5.6305 L0 5.6305 L0 5.62954 Z" transform="translate(28.2535, 133.126)"/>
      <path style="fill:#6d7071; fill-rule:nonzero;stroke:none;" d="M0 5.62954 L0 0 L2.52429 0 C2.9991 0 3.34292 0.0317292 3.54806 0.0942262 C3.74935 0.160569 3.91886 0.254795 4.04984 0.365367 C4.18275 0.484592 4.30121 0.634585 4.40619 0.834575 C4.50635 1.03457 4.55547 1.26436 4.55547 1.5307 C4.55547 2.41142 4.02383 2.92871 2.94612 3.07678 C3.17727 3.17196 3.37567 3.31426 3.55192 3.49695 C3.72913 3.67675 3.889 3.8777 4.0325 4.09788 L5.02161 5.6305 L4.07006 5.6305 L3.32751 4.46036 C3.14163 4.17095 2.97694 3.93346 2.845 3.76232 C2.71113 3.59598 2.5734 3.45368 2.4482 3.35465 C2.31818 3.25369 2.19972 3.18735 2.09378 3.16619 C1.98784 3.13639 1.83663 3.11812 1.63342 3.11812 L0.756997 3.11812 L0.756997 5.62954 L0 5.62954 Z M0.75796 2.48065 L2.3779 2.48065 C2.89123 2.48065 3.24758 2.39315 3.46331 2.21528 C3.6723 2.03836 3.77728 1.80857 3.77728 1.5307 C3.77728 0.918225 3.37182 0.615355 2.558 0.615355 L0.75796 0.615355 L0.75796 2.48065 L0.75796 2.48065 Z" transform="translate(34.166, 133.126)"/>
      <path style="fill:#6d7071; fill-rule:nonzero;stroke:none;" d="M0 5.62954 L0 0 L0.754108 0 L0.754108 5.62954 L0 5.62954 Z" transform="translate(40.638, 133.126)"/>
      <path style="fill:#6d7071; fill-rule:nonzero;stroke:none;" d="M0 5.62954 L0 0 L0.77048 0 L3.75706 4.40652 L3.75706 0 L4.48516 0 L4.48516 5.62954 L3.71083 5.62954 L0.71751 1.20187 L0.71751 5.62954 L0 5.62954 Z" transform="translate(43.3164, 133.126)"/>
      <path style="fill:#6d7071; fill-rule:nonzero;stroke:none;" d="M2.85752 3.52291 L2.85752 2.85563 L5.26623 2.85563 L5.26623 4.94495 C4.52079 5.52762 3.73105 5.82087 2.8999 5.82087 C2.44531 5.82087 2.0437 5.7603 1.68832 5.62858 C1.33389 5.50358 1.03244 5.3084 0.788779 5.05745 C0.541263 4.80362 0.346716 4.49113 0.20803 4.12192 C0.0683801 3.7527 0 3.35657 0 2.93928 C0 2.07875 0.244628 1.37686 0.731956 0.825922 C1.21736 0.27691 1.92427 0 2.85656 0 C4.13555 0 4.90989 0.56055 5.18148 1.67684 L4.5025 1.85856 C4.26076 1.04322 3.71661 0.634585 2.85656 0.634585 C2.19491 0.634585 1.68735 0.834575 1.32234 1.22879 C0.960211 1.623 0.782038 2.17778 0.782038 2.89313 C0.782038 3.68444 0.989104 4.25941 1.39072 4.61612 C1.79522 4.96899 2.28447 5.14495 2.86426 5.14495 C3.53169 5.14495 4.08451 4.95553 4.52079 4.56997 L4.52079 3.52291 L2.85752 3.52291 Z" transform="translate(49.4851, 133.028)"/>
      <path style="fill:#6d7071; fill-rule:nonzero;stroke:none;" d="M0 2.98736 C0 2.42584 0.101126 1.92298 0.309155 1.4807 C0.50948 1.0413 0.814783 0.684582 1.22217 0.414403 C1.62668 0.13557 2.12556 0 2.71787 0 C3.12141 0 3.48353 0.0711504 3.82351 0.218259 C4.16059 0.365367 4.44664 0.559588 4.68645 0.817268 C4.92722 1.06918 5.11695 1.3759 5.2489 1.73549 C5.38373 2.10182 5.44922 2.49796 5.44922 2.92967 C5.44922 3.53637 5.33943 4.04404 5.11695 4.4719 C4.88966 4.89784 4.55932 5.2334 4.12785 5.47474 C3.69542 5.71319 3.22157 5.83337 2.71691 5.83337 C2.19009 5.83337 1.71528 5.70838 1.29152 5.46031 C0.86968 5.21033 0.548967 4.86227 0.33227 4.4219 C0.110757 3.98442 0 3.50656 0 2.98736 Z M0.771444 3.00082 C0.771444 3.45176 0.85427 3.84212 1.02763 4.17095 C1.19906 4.49978 1.42057 4.75169 1.7095 4.93053 C1.99362 5.10745 2.33263 5.19975 2.71787 5.19975 C3.32944 5.19975 3.81195 4.98726 4.15482 4.57093 C4.49768 4.15076 4.67489 3.60752 4.67489 2.92967 C4.67489 2.45469 4.58629 2.0499 4.42737 1.70761 C4.26268 1.36532 4.03924 1.10668 3.75609 0.92111 C3.47101 0.742272 3.12911 0.648046 2.73521 0.648046 C2.41835 0.648046 2.13327 0.705735 1.88864 0.807653 C1.6469 0.917264 1.43984 1.06918 1.27418 1.2759 C1.11045 1.47781 0.983326 1.72396 0.896647 2.01721 C0.812857 2.30277 0.771444 2.63257 0.771444 3.00082 Z" transform="translate(59.5658, 133.016)"/>
      <path style="fill:#6d7071; fill-rule:nonzero;stroke:none;" d="M3.72527 0 L4.47842 0 L4.47842 3.25369 C4.47842 3.79982 4.42737 4.21518 4.3224 4.49882 C4.22031 4.78631 4.07103 5.01803 3.89285 5.19302 C3.70697 5.3709 3.47679 5.50358 3.20327 5.58915 C2.9259 5.67665 2.60904 5.72376 2.25654 5.72376 C1.51014 5.72376 0.95058 5.54685 0.566303 5.19302 C0.185878 4.83631 0 4.19114 0 3.25369 L0 0 L0.751218 0 L0.751218 3.23927 C0.751218 3.68732 0.78589 4.01423 0.848492 4.20461 C0.916872 4.40652 1.0074 4.56324 1.13261 4.69016 C1.25107 4.80554 1.39842 4.89688 1.5766 4.95938 C1.74995 5.01803 1.95606 5.04687 2.19105 5.04687 C2.51947 5.04687 2.80166 5.00168 3.0251 4.90649 C3.24661 4.81611 3.42093 4.64978 3.54517 4.41613 C3.66363 4.1748 3.72624 3.78636 3.72624 3.23831 L3.72624 0 L3.72527 0 Z" transform="translate(66.6071, 133.126)"/>
      <path style="fill:#6d7071; fill-rule:nonzero;stroke:none;" d="M1.87901 5.6305 L1.87901 0.660545 L0 0.660545 L0 0 L4.52272 0 L4.52272 0.660545 L2.63408 0.660545 L2.63408 5.6305 L1.87901 5.6305 Z" transform="translate(72.5138, 133.125)"/>
      <path style="fill:#6d7071; fill-rule:nonzero;stroke:none;" d="M0 3.91904 L0.714621 3.85847 C0.77048 4.3046 0.957322 4.63439 1.26648 4.84592 C1.57274 5.04976 1.95028 5.15648 2.40197 5.15648 C2.86811 5.15648 3.2235 5.06322 3.46042 4.87669 C3.69638 4.68727 3.81292 4.46036 3.81292 4.19691 C3.81292 4.01135 3.7532 3.8527 3.63859 3.71328 C3.51917 3.57387 3.35737 3.47099 3.15127 3.39984 C2.94998 3.32965 2.58978 3.23542 2.06874 3.121 C1.68735 3.03159 1.36664 2.9364 1.0989 2.82294 C0.835971 2.71045 0.623126 2.54315 0.464214 2.32873 C0.300487 2.10759 0.217661 1.84991 0.217661 1.54512 C0.217661 1.22302 0.294709 0.9538 0.454583 0.731696 C0.609643 0.511514 0.849455 0.331715 1.16246 0.19999 C1.47162 0.0634585 1.82508 0 2.21321 0 C2.90471 0 3.43056 0.152877 3.79076 0.463439 C4.14422 0.772078 4.33973 1.17879 4.35803 1.68646 L3.63859 1.73742 C3.56347 1.01437 3.09926 0.65093 2.25558 0.65093 C1.38301 0.65093 0.949617 0.932647 0.949617 1.49224 C0.949617 1.66242 0.999698 1.80472 1.1066 1.92587 C1.21158 2.04894 1.35219 2.13644 1.52074 2.19124 C1.69409 2.25181 1.95028 2.322 2.30277 2.39508 C2.92783 2.54122 3.35255 2.66237 3.57503 2.76429 C3.79751 2.86717 3.98338 2.98736 4.11533 3.121 C4.2569 3.25657 4.35899 3.41426 4.4293 3.58156 C4.49961 3.7479 4.52946 3.9277 4.52946 4.12961 C4.52946 4.66131 4.32817 5.07572 3.92271 5.37859 C3.51724 5.6728 3.02125 5.82087 2.43857 5.82087 C1.6469 5.82087 1.05074 5.64684 0.645277 5.29782 C0.23596 4.94688 0.0231144 4.48921 0 3.91904 Z" transform="translate(78.1604, 133.026)"/>
      <path style="fill:#6d7071; fill-rule:nonzero;stroke:none;" d="M1.88286 5.6305 L1.88286 0.660545 L0 0.660545 L0 0 L4.5285 0 L4.5285 0.660545 L2.63504 0.660545 L2.63504 5.6305 L1.88286 5.6305 Z" transform="translate(83.9101, 133.125)"/>
      <path style="fill:#6d7071; fill-rule:nonzero;stroke:none;" d="M0 5.62954 L2.19683 0 L3.00198 0 L5.34136 5.62954 L4.47649 5.62954 L3.81773 3.91712 L1.42539 3.91712 L0.803226 5.62954 L0 5.62954 Z M1.64594 3.31619 L3.57407 3.31619 L2.98754 1.76049 C2.78625 1.23552 2.64564 0.845152 2.57148 0.593241 C2.50888 0.946108 2.40583 1.30667 2.2681 1.66338 L1.64594 3.31619 Z" transform="translate(89.1899, 133.126)"/>
      <path style="fill:#6d7071; fill-rule:nonzero;stroke:none;" d="M0 5.62954 L0 0 L0.769517 0 L3.75224 4.40652 L3.75224 0 L4.48612 0 L4.48612 5.62954 L3.70697 5.62954 L0.716547 1.20187 L0.716547 5.62954 L0 5.62954 Z" transform="translate(95.7389, 133.126)"/>
      <path style="fill:#6d7071; fill-rule:nonzero;stroke:none;" d="M0 5.62954 L0 0 L1.95606 0 C2.33359 0 2.66683 0.0201913 2.96057 0.0721119 C3.25239 0.119225 3.53265 0.253834 3.80039 0.461516 C4.06814 0.672083 4.29061 0.976876 4.46012 1.36532 C4.62866 1.75953 4.71823 2.22874 4.71823 2.78064 C4.71823 3.62579 4.51213 4.31133 4.09703 4.83534 C3.68964 5.36417 3.00873 5.62954 2.05718 5.62954 L0 5.62954 Z M0.754108 4.96418 L1.96954 4.96418 C2.47035 4.96418 2.84981 4.89496 3.11756 4.74593 C3.38722 4.60266 3.59333 4.35748 3.7272 4.01615 C3.86781 3.67578 3.9333 3.2585 3.9333 2.7691 C3.9333 2.42392 3.90056 2.12009 3.8341 1.85953 C3.75898 1.59896 3.65882 1.3759 3.52206 1.2009 C3.38145 1.03168 3.20327 0.88938 2.99043 0.799962 C2.77277 0.704774 2.4299 0.659584 1.94354 0.659584 L0.754108 0.659584 L0.754108 4.96418 L0.754108 4.96418 Z" transform="translate(102.092, 133.126)"/>
      <path style="fill:#6d7071; fill-rule:nonzero;stroke:none;" d="M0 5.62954 L0 0 L0.754108 0 L0.754108 5.62954 L0 5.62954 Z" transform="translate(108.574, 133.126)"/>
      <path style="fill:#6d7071; fill-rule:nonzero;stroke:none;" d="M0 5.62954 L0 0 L0.768554 0 L3.74935 4.40652 L3.74935 0 L4.48612 0 L4.48612 5.62954 L3.70312 5.62954 L0.714621 1.20187 L0.714621 5.62954 L0 5.62954 Z" transform="translate(111.257, 133.126)"/>
      <path style="fill:#6d7071; fill-rule:nonzero;stroke:none;" d="M2.85656 3.52291 L2.85656 2.85563 L5.26912 2.85563 L5.26912 4.94495 C4.52272 5.52762 3.73201 5.82087 2.90086 5.82087 C2.44724 5.82087 2.03985 5.7603 1.68543 5.62858 C1.33389 5.50358 1.03341 5.3084 0.784927 5.05745 C0.538373 4.80362 0.346716 4.49113 0.207067 4.12192 C0.0645277 3.7527 0 3.35657 0 2.93928 C0 2.07875 0.242701 1.37686 0.730993 0.825922 C1.21929 0.27691 1.92813 0 2.85559 0 C4.13652 0 4.91278 0.56055 5.18052 1.67684 L4.49768 1.85856 C4.26365 1.04322 3.71661 0.634585 2.85559 0.634585 C2.19298 0.634585 1.6835 0.834575 1.32426 1.22879 C0.963101 1.623 0.781075 2.17778 0.781075 2.89313 C0.781075 3.68444 0.983326 4.25941 1.39072 4.61612 C1.79618 4.96899 2.28833 5.14495 2.8633 5.14495 C3.53265 5.14495 4.08355 4.95553 4.52176 4.56997 L4.52176 3.52291 L2.85656 3.52291 Z" transform="translate(117.423, 133.028)"/>
      <path style="fill:#6d7071; fill-rule:nonzero;stroke:none;" d="M0 5.62954 L0 0 L1.95895 0 C2.33456 0 2.66201 0.0201913 2.95961 0.0721119 C3.25239 0.119225 3.53169 0.253834 3.79943 0.461516 C4.06814 0.672083 4.28483 0.976876 4.46108 1.36532 C4.63059 1.75953 4.7163 2.22874 4.7163 2.78064 C4.7163 3.62579 4.50924 4.31133 4.09992 4.83534 C3.68482 5.36417 3.00776 5.62954 2.05718 5.62954 L0 5.62954 Z M0.754108 4.96418 L1.97147 4.96418 C2.46457 4.96418 2.85078 4.89496 3.12045 4.74593 C3.38241 4.60266 3.5914 4.35748 3.72816 4.01615 C3.86781 3.67578 3.93523 3.2585 3.93523 2.7691 C3.93523 2.42392 3.89959 2.12009 3.8341 1.85953 C3.76283 1.59896 3.65689 1.3759 3.51917 1.2009 C3.38337 1.03168 3.20712 0.88938 2.9885 0.799962 C2.77373 0.704774 2.42701 0.659584 1.94643 0.659584 L0.755071 0.659584 L0.755071 4.96418 L0.754108 4.96418 Z" transform="translate(127.727, 133.126)"/>
      <path style="fill:#6d7071; fill-rule:nonzero;stroke:none;" d="M0 5.62954 L0 0 L4.1134 0 L4.1134 0.660545 L0.741587 0.660545 L0.741587 2.38739 L3.89671 2.38739 L3.89671 3.04793 L0.741587 3.04793 L0.741587 4.96515 L4.23861 4.96515 L4.23861 5.6305 L0 5.6305 L0 5.62954 Z" transform="translate(134.101, 133.126)"/>
      <path style="fill:#6d7071; fill-rule:nonzero;stroke:none;" d="M2.20935 5.62954 L0 3.55271e-14 L0.820562 3.55271e-14 L2.28929 4.08346 C2.4039 4.38344 2.50599 4.69304 2.59267 5.0113 C2.66971 4.75169 2.76988 4.4469 2.8999 4.08346 L4.43508 0 L5.20363 0 L2.98946 5.62954 L2.20935 5.62954 L2.20935 5.62954 Z" transform="translate(139.429, 133.126)"/>
      <path style="fill:#6d7071; fill-rule:nonzero;stroke:none;" d="M0 5.62954 L0 0 L4.12207 0 L4.12207 0.660545 L0.744477 0.660545 L0.744477 2.38739 L3.90345 2.38739 L3.90345 3.04793 L0.744477 3.04793 L0.744477 4.96515 L4.23764 4.96515 L4.23764 5.6305 L0 5.6305 L0 5.62954 Z" transform="translate(145.948, 133.126)"/>
      <path style="fill:#6d7071; fill-rule:nonzero;stroke:none;" d="M0 5.62954 L0 0 L0.754108 0 L0.754108 4.96418 L3.55384 4.96418 L3.55384 5.62954 L0 5.62954 L0 5.62954 Z" transform="translate(151.831, 133.126)"/>
      <path style="fill:#6d7071; fill-rule:nonzero;stroke:none;" d="M0 2.98736 C0 2.42584 0.100162 1.92298 0.30145 1.4807 C0.504665 1.0413 0.809968 0.684582 1.21447 0.414403 C1.62186 0.13557 2.12364 0 2.71594 0 C3.11563 0 3.48257 0.0711504 3.81966 0.218259 C4.15578 0.365367 4.44471 0.559588 4.68548 0.817268 C4.9253 1.06918 5.11214 1.3759 5.24505 1.73549 C5.3741 2.10182 5.44537 2.49796 5.44537 2.92967 C5.44537 3.53637 5.33269 4.04404 5.11214 4.4719 C4.88581 4.89784 4.55739 5.2334 4.12303 5.47474 C3.6906 5.71319 3.21868 5.83337 2.71498 5.83337 C2.18528 5.83337 1.71239 5.70838 1.28767 5.46031 C0.863901 5.21033 0.547041 4.86227 0.32938 4.4219 C0.109793 3.98442 0 3.50656 0 2.98736 Z M0.764702 3.00082 C0.764702 3.45176 0.856196 3.84212 1.01896 4.17095 C1.19617 4.49978 1.42057 4.75169 1.71047 4.93053 C1.99073 5.10745 2.32685 5.19975 2.71691 5.19975 C3.32751 5.19975 3.80714 4.98726 4.14904 4.57093 C4.49383 4.15076 4.67104 3.60752 4.67104 2.92967 C4.67104 2.45469 4.58725 2.0499 4.42448 1.70761 C4.26365 1.36532 4.04117 1.10668 3.7532 0.92111 C3.46909 0.742272 3.13104 0.648046 2.73232 0.648046 C2.41449 0.648046 2.13134 0.705735 1.89057 0.807653 C1.64401 0.917264 1.43984 1.06918 1.27033 1.2759 C1.10757 1.47781 0.976584 1.72396 0.892794 2.01721 C0.810931 2.30277 0.764702 2.63257 0.764702 3.00082 Z" transform="translate(156.669, 133.016)"/>
      <path style="fill:#6d7071; fill-rule:nonzero;stroke:none;" d="M0 5.62954 L0 0 L2.15638 0 C2.47035 0 2.75158 0.0144224 2.98657 0.0480746 C3.22831 0.0778809 3.45272 0.1548 3.66075 0.285563 C3.86396 0.406711 4.0325 0.585549 4.15963 0.819191 C4.28098 1.04899 4.34647 1.32109 4.34647 1.62492 C4.34647 2.76621 3.6357 3.34119 2.20935 3.34119 L0.752182 3.34119 L0.752182 5.6305 L0 5.6305 L0 5.62954 Z M0.753145 2.67391 L2.22573 2.67391 C3.11756 2.67391 3.56829 2.32777 3.56829 1.648 C3.56829 1.47685 3.5471 1.33647 3.5028 1.2134 C3.4556 1.09514 3.39011 0.990337 3.30055 0.906687 C3.2129 0.823999 3.10215 0.762463 2.97309 0.721119 C2.84404 0.681698 2.5917 0.660545 2.21032 0.660545 L0.753145 0.660545 L0.753145 2.67391 L0.753145 2.67391 Z" transform="translate(163.693, 133.126)"/>
      <path style="fill:#6d7071; fill-rule:nonzero;stroke:none;" d="M0 5.62954 L0 0 L1.14802 0 L2.48865 3.98827 L2.75639 4.819 L3.0617 3.91712 L4.42159 0 L5.44056 0 L5.44056 5.62954 L4.72208 5.62954 L4.72208 0.910533 L3.0617 5.62954 L2.37597 5.62954 L0.731956 0.830729 L0.731956 5.62954 L0 5.62954 Z" transform="translate(169.59, 133.126)"/>
      <path style="fill:#6d7071; fill-rule:nonzero;stroke:none;" d="M0 5.62954 L0 0 L4.11918 0 L4.11918 0.660545 L0.741587 0.660545 L0.741587 2.38739 L3.89671 2.38739 L3.89671 3.04793 L0.741587 3.04793 L0.741587 4.96515 L4.24438 4.96515 L4.24438 5.6305 L0 5.6305 L0 5.62954 Z" transform="translate(176.882, 133.126)"/>
      <path style="fill:#6d7071; fill-rule:nonzero;stroke:none;" d="M0 5.62954 L0 0 L0.768554 0 L3.75513 4.40652 L3.75513 0 L4.48612 0 L4.48612 5.62954 L3.7089 5.62954 L0.719436 1.20187 L0.719436 5.62954 L0 5.62954 Z" transform="translate(182.781, 133.126)"/>
      <path style="fill:#6d7071; fill-rule:nonzero;stroke:none;" d="M1.87805 5.6305 L1.87805 0.660545 L0 0.660545 L0 0 L4.5285 0 L4.5285 0.660545 L2.63697 0.660545 L2.63697 5.6305 L1.87805 5.6305 Z" transform="translate(188.702, 133.125)"/>
      <path style="fill:#6d7071; fill-rule:nonzero;stroke:none;" d="M0 3.91904 L0.718473 3.85847 C0.776259 4.3046 0.954433 4.63439 1.26455 4.84592 C1.57371 5.04976 1.95317 5.15648 2.40197 5.15648 C2.87293 5.15648 3.22639 5.06322 3.45946 4.87669 C3.69542 4.68727 3.81388 4.46036 3.81388 4.19691 C3.81388 4.01135 3.75994 3.8527 3.63474 3.71328 C3.51821 3.57387 3.35929 3.47099 3.15897 3.39984 C2.9519 3.32965 2.58881 3.23542 2.07067 3.121 C1.68832 3.03159 1.36664 2.9364 1.10179 2.82294 C0.835971 2.71045 0.6212 2.54315 0.460362 2.32873 C0.299524 2.10759 0.217661 1.84991 0.217661 1.54512 C0.217661 1.22302 0.293746 0.9538 0.451694 0.731696 C0.612532 0.511514 0.847529 0.331715 1.16439 0.19999 C1.47643 0.0634585 1.82604 0 2.21513 0 C2.90471 0 3.43056 0.152877 3.78787 0.463439 C4.14711 0.772078 4.33973 1.17879 4.35803 1.68646 L3.63956 1.73742 C3.56347 1.01437 3.10311 0.65093 2.25462 0.65093 C1.38301 0.65093 0.948654 0.932647 0.948654 1.49224 C0.948654 1.66242 1.00259 1.80472 1.10757 1.92587 C1.21062 2.04894 1.35219 2.13644 1.52266 2.19124 C1.69602 2.25181 1.95317 2.322 2.29988 2.39508 C2.93072 2.54122 3.35255 2.66237 3.57599 2.76429 C3.79847 2.86717 3.98338 2.98736 4.12207 3.121 C4.2569 3.25657 4.35803 3.41426 4.4293 3.58156 C4.49672 3.7479 4.52946 3.9277 4.52946 4.12961 C4.52946 4.66131 4.33299 5.07572 3.92078 5.37859 C3.51821 5.6728 3.02125 5.82087 2.4405 5.82087 C1.65172 5.82087 1.05074 5.64684 0.645277 5.29782 C0.23596 4.94688 0.0260037 4.48921 0 3.91904 Z" transform="translate(194.351, 133.026)"/>
     </g>
     <g id="Group5" clip-path="url(#Clip7)">
      <path style="fill:#6d7071; fill-rule:evenodd;stroke:none;" d="M0 0 L198 0 " transform="translate(1.56697, 130.969)"/>
      <path style="fill:#6d7071; fill-rule:evenodd;stroke:none;" d="M0 0 L198 0 L198 0.700928 L0 0.700928 L0 0 Z" transform="translate(1.56697, 130.623)"/>
     </g>
    </g>
   </g>
  </g>
 </g>
</svg>
