<?xml version="1.0" encoding="UTF-8"?>
<svg width="200pt" version="1.1" xmlns="http://www.w3.org/2000/svg" height="85pt" viewBox="0 0 200 85" xmlns:xlink="http://www.w3.org/1999/xlink">
 <defs>
  <clipPath id="Clip0">
   <path d="M0 0 L198 0 L198 83.6176 L0 83.6176 L0 0 Z" transform="translate(0.640754, 0.6324)"/>
  </clipPath>
  <clipPath id="Clip1">
   <path d="M0 0 L198 0 L198 83.6176 L0 83.6176 L0 0 Z" transform="translate(0.640754, 0.6324)"/>
  </clipPath>
  <clipPath id="Clip2">
   <path d="M-1.11022e-15 7.10543e-15 L198 7.10543e-15 L198 83.6176 L-1.11022e-15 83.6176 L-1.11022e-15 7.10543e-15 Z" transform="translate(0.640754, 0.6324)"/>
  </clipPath>
  <clipPath id="Clip3">
   <path d="M-1.11022e-15 7.10543e-15 L198 7.10543e-15 L198 83.6176 L-1.11022e-15 83.6176 L-1.11022e-15 7.10543e-15 Z" transform="translate(0.640754, 0.6324)"/>
  </clipPath>
  <clipPath id="Clip4">
   <path d="M-1.11022e-15 0 L198 0 L198 62.2584 L-1.11022e-15 62.2584 L-1.11022e-15 0 Z" transform="translate(0.640754, 21.9916)"/>
  </clipPath>
  <clipPath id="Clip5">
   <path d="M1.42109e-14 7.10543e-15 L85.4132 7.10543e-15 L85.4132 27.503 L1.42109e-14 27.503 L1.42109e-14 7.10543e-15 Z" transform="translate(51.1656, 0.6324)"/>
  </clipPath>
 </defs>
 <g id="Background">
  <g id="Group6" clip-path="url(#Clip0)">
   <g id="Background" clip-path="url(#Clip1)">
    <g id="Cloud" clip-path="url(#Clip2)">
     <g id="Group3" clip-path="url(#Clip3)">
      <g id="Group1" clip-path="url(#Clip4)">
       <path style="fill:#ffffff; fill-rule:nonzero;stroke:none;" d="M55.4566 44.0184 C55.7055 44.2058 55.8284 45.6932 55.8284 48.4855 C55.8284 51.2767 55.6742 53.8211 55.3629 56.1166 C55.3015 56.3011 55.2088 56.5216 55.0848 56.7685 L54.6194 57.2341 C53.6894 58.1027 51.9203 59.0026 49.3148 59.9327 C44.9725 61.4835 39.5762 62.2584 33.126 62.2584 C24.0675 62.2584 16.3449 59.3129 9.95723 53.418 C3.44366 47.5251 0.122953 40.1096 0 31.1775 L0 31.0838 C0.122953 22.2112 3.44366 14.7968 9.95723 8.84233 C16.3449 2.94842 24.0675 0 33.126 0 C39.5752 0 44.9725 0.776876 49.3148 2.3277 C51.9203 3.25683 53.6884 4.15765 54.6194 5.02529 L55.0848 5.49181 C55.2088 5.73971 55.3024 5.95735 55.3629 6.14279 C55.6733 8.43925 55.8284 10.9826 55.8284 13.7739 C55.8284 16.5652 55.7055 18.0546 55.4566 18.24 L55.2702 18.24 C55.1473 17.4953 54.838 16.5984 54.3422 15.5424 C53.8436 14.4864 53.0854 13.4011 52.0618 12.2846 C51.0381 11.1671 49.751 10.0379 48.2014 8.88918 C46.6489 7.74241 44.7588 6.67079 42.5232 5.67725 C40.0426 4.56073 36.8166 4.0015 32.8479 4.0015 C26.149 4.0015 20.659 6.23648 16.3781 10.7035 C11.7869 15.5424 9.49177 22.182 9.49177 30.6173 L9.49177 31.0838 L9.49177 31.1775 L9.49177 31.6431 C9.49177 40.0804 11.7869 46.7189 16.3781 51.5588 C20.659 56.0249 26.149 58.2579 32.8479 58.2579 C36.8166 58.2579 40.0426 57.6996 42.5232 56.5831 C44.7588 55.5905 46.6499 54.5209 48.2014 53.3712 C49.751 52.2234 51.0381 51.0913 52.0618 49.9748 C53.0854 48.8583 53.8436 47.773 54.3422 46.7189 C54.838 45.6639 55.1473 44.7641 55.2702 44.0184 L55.4566 44.0184 Z" transform="translate(0.640754, 21.9916)"/>
       <path style="fill:#ffffff; fill-rule:nonzero;stroke:none;" d="M7.63284 28.6644 C7.63284 30.2777 8.56084 31.2693 10.4227 31.6421 C10.733 31.7036 12.3451 31.7348 15.2608 31.7348 C16.4386 31.7348 17.5549 31.6421 18.6098 31.4566 C20.782 30.8369 22.3647 30.1684 23.3571 29.4559 C24.3495 28.7425 25.0014 27.9207 25.3088 26.9896 L24.2871 33.8771 L24.1934 34.1562 L22.7033 34.1562 C19.975 33.9708 16.5323 33.8771 12.3743 33.8771 C10.8247 33.8771 9.04289 33.8771 7.02588 33.8771 C5.01082 33.8771 2.70008 33.9063 0.0936784 33.9708 C2.07946 33.6604 3.07187 32.0783 3.07187 29.2236 L3.07187 4.83888 L2.97819 4.83888 C2.97819 1.98611 1.98579 0.406006 0 0.0936936 L0 0 L10.6091 0 L10.6091 0.0936936 C9.67717 0.279129 8.96287 0.824699 8.46911 1.7226 C7.97242 2.62244 7.69236 4.1274 7.63284 6.2355 L7.63284 28.6644 Z" transform="translate(59.262, 32.2286)"/>
       <path style="fill:#ffffff; fill-rule:nonzero;stroke:none;" d="M37.4967 17.7745 C37.4967 22.8622 35.6349 27.1126 31.9141 30.5236 C28.3162 33.9366 23.9426 35.6426 18.7952 35.6426 C13.398 35.6426 8.9658 34.0303 5.49092 30.8027 C1.82868 27.5157 0 23.235 0 17.9609 C0 12.8751 1.85795 8.59248 5.58265 5.11801 C9.18048 1.70796 13.5843 0 18.7952 0 C24.13 0 28.5641 1.67477 32.1014 5.02432 C35.6983 8.37484 37.4967 12.6262 37.4967 17.7745 Z M32.1941 18.7055 C32.1941 13.6802 30.7968 9.709 28.005 6.79278 C25.4015 3.94001 21.9266 2.51216 17.5842 2.51216 C15.7848 2.51216 14.1445 2.86937 12.6534 3.58378 C11.1633 4.29624 9.87721 5.27319 8.79113 6.51366 C7.70797 7.75607 6.85218 9.27664 6.23352 11.0734 C5.61192 12.8741 5.30161 14.828 5.30161 16.9351 C5.30161 22.0853 6.63555 26.12 9.30343 29.0333 C11.9089 31.8256 15.4442 33.2212 19.9115 33.2212 C23.5074 33.2212 26.4563 31.888 28.7505 29.2197 C31.0446 26.5514 32.1941 23.0486 32.1941 18.7055 Z" transform="translate(86.1428, 32.7878)"/>
       <path style="fill:#ffffff; fill-rule:nonzero;stroke:none;" d="M26.6125 0.0946696 L35.4495 0 L35.4495 0.0946696 C33.5271 0.406006 32.5679 1.98708 32.5679 4.84083 L32.5679 19.9167 C32.8753 24.7556 31.7902 28.4467 29.3077 30.9901 C26.7647 33.597 23.0751 34.9009 18.238 34.9009 C8.06317 34.9009 2.97526 30.1225 2.97526 20.5677 L2.97526 4.84083 C2.97526 1.98708 1.98579 0.406006 0 0.0946696 L0 0 L10.6071 0 C9.67717 0.186411 8.96287 0.731981 8.46716 1.6289 C7.96949 2.5307 7.68943 4.00345 7.63089 6.05007 L7.63089 19.6366 C7.63089 24.1027 8.52864 27.3449 10.328 29.3602 C12.1265 31.3776 15.0754 32.3867 19.1689 32.3867 C26.1773 32.3867 29.6814 28.3843 29.6814 20.3823 L29.5877 4.84083 C29.5868 2.0476 28.5983 0.466516 26.6125 0.0946696 Z" transform="translate(125.011, 32.0422)"/>
       <path style="fill:#ffffff; fill-rule:nonzero;stroke:none;" d="M0 34.2489 C1.98286 33.9385 2.97526 32.3565 2.97526 29.5008 L3.06894 5.11899 L3.06894 5.02529 C3.06894 2.23401 2.07654 0.651951 0.0936784 0.280105 C6.10764 0.0946696 11.1321 0 15.1642 0 C21.1206 0 25.9255 1.45908 29.5848 4.37529 C33.3085 7.35299 35.1675 11.416 35.1675 16.5652 C35.1675 22.708 33.1846 27.3 29.213 30.3372 C25.5518 33.1939 20.7781 34.5271 14.8832 34.3416 C14.203 34.3416 12.6193 34.3416 10.1387 34.3416 C7.65821 34.3416 4.27896 34.3104 0 34.2489 Z M7.81434 27.9197 C7.81434 29.5945 8.26517 30.71 9.16292 31.2702 C10.0616 31.8285 11.8454 32.1066 14.5143 32.1066 C24.6862 32.1066 29.7722 27.1458 29.7722 17.2162 C29.7722 7.16756 24.5945 2.14129 14.2362 2.14129 L10.6042 2.14129 C8.74234 2.3277 7.81434 2.88596 7.81434 3.81704 L7.81434 27.9197 Z" transform="translate(163.473, 32.6004)"/>
      </g>
      <g id="Group2" clip-path="url(#Clip5)">
       <path style="fill:#ffffff; fill-rule:nonzero;stroke:none;" d="M27.4312 0 C27.4039 2.6488 27.3756 4.91501 27.3473 6.79376 L27.1755 6.79376 C25.8943 4.88573 24.8111 3.61794 23.929 2.99136 C22.8156 2.19399 20.9069 1.79287 18.2029 1.79287 L16.5781 1.79287 C16.0668 1.85045 15.7809 1.96464 15.7243 2.13543 C15.6658 2.22132 15.6384 2.33551 15.6384 2.478 L15.5955 23.5044 C15.5955 24.3027 15.8082 24.9723 16.2356 25.5149 C16.5215 25.9424 16.8758 26.3054 17.3042 26.6051 C17.7316 26.9037 18.2302 27.1106 18.8001 27.2258 C18.8586 27.2814 18.8713 27.3244 18.843 27.3517 C18.7298 27.4386 18.3727 27.4659 17.7745 27.4386 C14.0986 27.2961 11.2638 27.2961 9.27026 27.4386 C8.84285 27.4649 8.55889 27.4083 8.41544 27.2668 C9.38443 27.1819 10.2022 26.8325 10.8735 26.2205 C11.5429 25.6076 11.9069 24.8883 11.9625 24.0617 L11.9196 2.478 C11.9196 2.19399 11.7771 1.98025 11.4922 1.83678 L9.2283 1.83678 C6.52236 1.83678 4.61366 2.23596 3.50221 3.03235 C2.62104 3.66088 1.53691 4.9277 0.255664 6.83768 L0.0839202 6.83768 C0.0565974 4.956 0.0253712 2.69076 0 0.0419669 L11.7498 0.0849098 L27.4312 0 Z" transform="translate(51.1656, 0.6695)"/>
       <path style="fill:#ffffff; fill-rule:nonzero;stroke:none;" d="M26.0826 27.3741 L25.3283 27.3741 C24.7721 27.3741 24.1573 27.3741 23.4762 27.3741 C22.796 27.3741 22.0769 27.4005 21.3206 27.4493 C22.8839 27.1985 23.6645 25.9121 23.6645 23.5922 L23.6645 15.7278 C23.6645 15.1237 23.5874 14.7197 23.4391 14.5186 C23.2879 14.3175 22.9571 14.216 22.4545 14.216 L7.55965 14.216 C6.9039 14.216 6.51358 14.3049 6.38867 14.4815 C6.26181 14.6582 6.19839 15.0486 6.19839 15.6527 L6.19839 23.5932 C6.19839 25.8624 6.97904 27.1233 8.5423 27.3751 L8.5423 27.4503 L4.8381 27.3751 L4.08379 27.3751 C3.52758 27.3751 2.91086 27.3751 2.22974 27.3751 C1.55057 27.3751 0.832371 27.4015 0.0741621 27.4503 C1.68816 27.1994 2.49419 25.9131 2.49419 23.5932 L2.49419 4.08348 L2.42002 4.08348 L2.42002 4.00638 C2.42002 1.73919 1.61302 0.452852 0 0.1503 L0 0.0741741 L8.61939 0.0741741 L8.61939 0.1503 C7.86313 0.251801 7.28447 0.667567 6.87853 1.39857 C6.47747 2.12958 6.24815 3.35247 6.19936 5.06433 L6.19936 10.5854 C6.19936 11.5438 6.65312 12.0221 7.5616 12.0221 L22.2271 12.0221 C22.7834 12.0221 23.1591 11.9733 23.362 11.8708 C23.564 11.6697 23.6655 11.2169 23.6655 10.5112 L23.6655 3.93123 C23.6655 1.61426 22.8605 0.327928 21.2465 0.0741741 L21.2465 0 L29.8639 0 L29.8639 0.0741741 C29.1096 0.224474 28.529 0.667567 28.125 1.3976 C27.722 2.1286 27.4946 3.3515 27.4458 5.06336 L27.4458 23.5903 C27.4458 25.9092 28.2284 27.1955 29.7917 27.4473 L26.0826 27.3741 Z" transform="translate(82.3146, 0.6685)"/>
       <path style="fill:#ffffff; fill-rule:nonzero;stroke:none;" d="M18.9055 27.4112 C18.7581 27.461 18.4585 27.4854 18.0145 27.4854 C15.8395 27.3371 13.0964 27.2639 9.78646 27.2639 C8.54913 27.2639 7.12834 27.2639 5.52215 27.2639 C3.91595 27.2639 2.07459 27.2883 0 27.3371 C1.5818 27.0901 2.37416 25.8292 2.37416 23.5552 L2.37416 4.20255 C2.37416 1.9295 1.5818 0.669519 1.42109e-14 0.421621 L1.42109e-14 0.347447 L7.70895 0.347447 C8.79601 0.347447 9.82354 0.335735 10.7857 0.31036 C11.7488 0.285961 12.6768 0.248874 13.5668 0.199099 L13.8644 0.199099 C14.5045 0.199099 15.1095 0.186411 15.6794 0.161036 C16.2473 0.136636 16.8036 0.0995494 17.3471 0.0497747 C18.2361 0 18.681 0.0751501 18.681 0.272297 L18.681 4.57244 C18.5815 3.7819 18.075 3.21486 17.1617 2.86644 C16.2464 2.52094 14.4792 2.2506 11.861 2.0515 C11.2687 2.00368 10.5622 1.97732 9.74841 1.97732 C8.93165 1.97732 8.0056 1.97732 6.96831 1.97732 C6.52236 1.97732 6.22669 2.0515 6.07739 2.19985 C6.02664 2.2506 6.00322 2.47117 6.00322 2.86644 L6.00322 11.5419 C6.00322 11.8376 6.20131 11.9869 6.59652 11.9869 C6.94196 11.9869 7.76945 11.9869 9.079 11.9869 C10.3885 11.9869 12.2055 12.0123 14.5289 12.0621 C15.6648 12.0621 16.4942 11.8015 17.0114 11.2832 C17.5305 10.765 17.8399 10.1599 17.9375 9.46793 L18.0126 9.46793 C17.9619 10.5561 17.9619 12.8292 18.0126 16.289 C17.715 14.706 16.4562 13.9154 14.2323 13.9154 C13.3433 13.8666 12.2406 13.8305 10.933 13.8042 C9.62155 13.7798 8.10416 13.7671 6.37403 13.7671 C6.1252 13.7671 6.00225 13.8666 6.00225 14.0638 L6.00225 23.1101 C6.00225 24.3964 6.74387 25.186 8.22613 25.4827 C8.47301 25.5335 9.75817 25.5579 12.0796 25.5579 C13.1199 25.5579 14.0098 25.4583 14.7504 25.2602 C16.4796 24.8151 17.7403 24.2979 18.5308 23.7035 C19.3212 23.1111 19.8403 22.4689 20.0882 21.7769 L19.2724 27.1897 L19.1992 27.4854 L18.9055 27.4112 Z" transform="translate(116.491, 0.6324)"/>
      </g>
     </g>
    </g>
   </g>
  </g>
 </g>
</svg>
