<?xml version="1.0" encoding="UTF-8"?>
<svg width="200pt" version="1.1" xmlns="http://www.w3.org/2000/svg" height="200pt" viewBox="0 0 200 200" xmlns:xlink="http://www.w3.org/1999/xlink">
 <defs>
  <clipPath id="Clip0">
   <path d="M0 0 L198.957 0 L198.957 165.898 L0 165.898 L0 0 Z" transform="translate(1.52174, 16.9575)"/>
  </clipPath>
  <clipPath id="Clip1">
   <path d="M0 0 L198.957 0 L198.957 155.95 L0 155.95 L0 0 Z" transform="translate(1.52174, 26.9053)"/>
  </clipPath>
  <clipPath id="Clip2">
   <path d="M0 0 L198.957 0 L198.957 155.95 L0 155.95 L0 0 Z" transform="translate(1.52174, 26.9053)"/>
  </clipPath>
  <clipPath id="Clip3">
   <path d="M0 0 L189.612 0 L189.612 61.1942 L0 61.1942 L0 0 Z" transform="translate(5.64155, 90.7121)"/>
  </clipPath>
  <clipPath id="Clip4">
   <path d="M0 0 L189.612 0 L189.612 61.1942 L0 61.1942 L0 0 Z" transform="translate(5.64155, 90.7121)"/>
  </clipPath>
  <clipPath id="Clip5">
   <path d="M0 0 L102.794 0 L102.794 28.4367 L0 28.4367 L0 0 Z" transform="translate(6.04348, 90.7121)"/>
  </clipPath>
  <clipPath id="Clip6">
   <path d="M0 0 L189.612 0 L189.612 28.6377 L0 28.6377 L0 0 Z" transform="translate(5.64155, 123.269)"/>
  </clipPath>
  <clipPath id="Clip7">
   <path d="M0 0 L198.957 0 L198.957 26.4271 L0 26.4271 L0 0 Z" transform="translate(1.52174, 156.428)"/>
  </clipPath>
  <clipPath id="Clip8">
   <path d="M0 0 L186.195 0 L186.195 17.5845 L0 17.5845 L0 0 Z" transform="translate(7.34976, 160.749)"/>
  </clipPath>
 </defs>
 <g id="Background">
  <g id="Layer_12" clip-path="url(#Clip0)">
   <g id="Group8" clip-path="url(#Clip1)">
    <g id="Group6" clip-path="url(#Clip2)">
     <path style="fill:#edd03d; fill-rule:nonzero;stroke:none;" d="M62.8019 46.4232 C76.4676 49.1362 74.7594 39.1884 90.1333 29.8435 C73.0512 15.4744 43.4087 36.2744 42.3034 36.0734 C41.399 35.9729 43.6097 33.6618 44.313 32.1546 C44.4135 31.8531 49.6386 26.3266 51.4473 26.3266 C53.256 26.3266 52.9546 27.7333 54.2609 27.6329 C55.5671 27.5324 56.17 26.829 56.17 25.7237 C56.0696 24.8193 54.5623 23.513 51.9498 24.8193 C48.6338 26.4271 44.514 30.4464 44.2126 30.2454 C43.9111 30.0444 45.2174 24.4174 45.1169 21.4029 C45.0164 18.9913 42.0019 19.4937 41.2986 20.3981 C40.8966 20.9005 40.0928 21.6039 40.4947 22.2068 C41.399 24.1159 44.0116 21.5034 44.313 22.6087 C44.9159 25.1208 42.4039 30.5469 42.5043 30.5469 C42.6048 30.5469 40.6957 33.3604 39.1884 33.3604 C37.3797 33.3604 43.8106 6.43092 21.1014 0 C21.1014 0 22.9101 4.52174 16.9816 16.2783 C15.6754 20.599 12.9623 21.9053 18.087 29.4415 C13.7662 29.944 10.8522 35.2696 9.54589 40.0928 C6.63188 50.6435 3.41643 48.3324 0 54.1604 C5.62705 52.0502 15.0725 54.0599 21.4029 52.4522 C27.7333 50.8444 30.6473 42.8058 34.3652 40.9971 C37.4802 41.6 26.2261 52.1507 30.5469 54.5623 C33.0589 56.7729 39.9923 38.887 40.1932 42.1024 C40.3942 45.3179 37.1787 56.7729 39.3894 60.2899 C45.1169 69.5343 50.342 65.7159 51.4473 70.9411 C53.1556 78.7787 52.9546 80.1855 53.658 80.085 C54.9643 79.9845 53.1556 70.9411 54.8638 64.7111 C55.7681 61.1942 60.9932 58.7826 62.9024 53.3565 C63.7063 51.3469 63.1034 47.7295 62.8019 46.4232 Z" transform="translate(98.6889, 26.9053)"/>
     <g id="Group4" clip-path="url(#Clip3)">
      <g id="Group3" clip-path="url(#Clip4)">
       <g id="Group1" clip-path="url(#Clip5)">
        <path style="fill:#eed13c; fill-rule:nonzero;stroke:none;" d="M24.8193 1.42109e-14 L24.8193 1.40676 C24.8193 4.52174 25.0203 7.03382 25.5227 9.14396 L24.6184 9.24444 C23.3121 4.11981 20.1971 1.50725 15.3739 1.50725 C12.058 1.50725 9.34493 2.71304 7.1343 5.02415 C5.02415 7.33527 3.91884 10.3498 3.91884 13.9671 C3.91884 17.685 5.02415 20.6995 7.1343 23.0106 C9.24444 25.3217 12.058 26.4271 15.4744 26.4271 C19.7952 26.4271 23.1111 24.6184 25.2213 20.9005 L26.2261 21.5034 C23.714 26.1256 19.6947 28.4367 14.2686 28.4367 C10.2493 28.4367 6.83285 27.1304 4.11981 24.4174 C1.40676 21.8048 0 18.4889 0 14.6705 C0 10.5507 1.40676 7.03382 4.22029 4.22029 C7.03382 1.40676 10.4502 1.42109e-14 14.57 1.42109e-14 C16.4792 1.42109e-14 18.5894 0.401932 21.001 1.30628 C21.2019 1.40676 21.3024 1.40676 21.3024 1.40676 L21.6039 1.50725 C21.9053 1.60773 22.2068 1.60773 22.5082 1.60773 C23.3121 1.60773 23.8145 1.10531 24.0155 0 L24.8193 1.42109e-14 L24.8193 1.42109e-14 Z" transform="translate(6.04348, 90.7121)"/>
        <path style="fill:#eed13c; fill-rule:nonzero;stroke:none;" d="M0 1.00483 L0 0 L12.2589 0 L12.2589 1.00483 L11.857 1.00483 C10.3498 1.00483 9.24444 1.30628 8.64155 2.00966 C8.03865 2.71304 7.7372 3.91884 7.7372 5.72754 L7.7372 21.8048 C7.7372 23.6135 8.03865 24.8193 8.64155 25.5227 C9.24444 26.2261 10.2493 26.5275 11.857 26.5275 L12.2589 26.5275 L12.2589 27.5324 L0 27.5324 L0 26.5275 L0.301449 26.5275 C1.90918 26.5275 3.01449 26.2261 3.61739 25.5227 C4.22029 24.8193 4.52174 23.6135 4.52174 21.8048 L4.52174 5.72754 C4.52174 3.91884 4.22029 2.71304 3.61739 2.00966 C3.01449 1.30628 1.90918 1.00483 0.301449 1.00483 L0 1.00483 L0 1.00483 Z" transform="translate(35.7865, 91.114)"/>
        <path style="fill:#eed13c; fill-rule:nonzero;stroke:none;" d="M25.5227 1.42109e-14 L26.0251 6.43092 L25.2213 6.43092 C25.0203 4.62222 24.4174 3.41643 23.513 2.81353 C22.6087 2.21063 21.001 1.90918 18.5894 1.90918 L14.771 1.90918 L14.771 21.9053 C14.771 23.714 15.0725 24.9198 15.6754 25.6232 C16.2783 26.3266 17.2831 26.628 18.7903 26.628 L19.5942 26.628 L19.5942 27.6329 L6.43092 27.6329 L6.43092 26.628 L7.1343 26.628 C8.74203 26.628 9.84734 26.3266 10.4502 25.6232 C11.0531 24.9198 11.3546 23.714 11.3546 21.9053 L11.3546 1.8087 L7.63671 1.8087 C5.22512 1.8087 3.61739 2.11014 2.61256 2.81353 C1.60773 3.51691 1.00483 4.72271 0.803865 6.43092 L0 6.43092 L0.502415 0 L25.5227 1.42109e-14 Z" transform="translate(51.0599, 91.114)"/>
        <path style="fill:#eed13c; fill-rule:nonzero;stroke:none;" d="M30.4464 0 L30.4464 1.00483 C28.1353 1.00483 26.3266 1.90918 25.0203 3.81836 C24.7188 4.32077 24.5179 4.52174 24.5179 4.62222 L16.1778 15.7758 L16.1778 21.9053 C16.1778 23.714 16.4792 24.9198 17.0821 25.6232 C17.685 26.3266 18.7903 26.7285 20.2976 26.7285 L20.599 26.7285 L20.599 27.7333 L8.3401 27.7333 L8.3401 26.7285 L8.64155 26.7285 C10.2493 26.7285 11.3546 26.4271 11.9575 25.7237 C12.5604 25.0203 12.8618 23.8145 12.8618 22.0058 L12.8618 15.7758 L5.72754 3.91884 C4.62222 2.11014 2.81353 1.10531 0.401932 1.10531 L0 1.10531 L0 0.100483 L12.1585 0.100483 L12.1585 1.10531 L11.656 1.10531 C9.84734 1.10531 8.943 1.60773 8.943 2.51208 C8.943 2.91401 9.04348 3.31594 9.34493 3.71787 L9.84734 4.42126 L15.5749 13.7662 L22.7092 4.22029 C23.2116 3.51691 23.513 2.91401 23.513 2.41159 C23.513 1.50725 22.5082 1.10531 20.599 1.10531 L20.599 0.100483 L30.4464 0 L30.4464 0 Z" transform="translate(78.3913, 91.114)"/>
       </g>
       <g id="Group2" clip-path="url(#Clip6)">
        <path style="fill:#eed13c; fill-rule:nonzero;stroke:none;" d="M26.628 0 C26.5275 0.502415 26.5275 1.10531 26.5275 1.70821 C26.5275 4.22029 26.7285 6.5314 27.1304 8.84251 L26.5275 8.943 C25.9246 6.33043 24.8193 4.52174 23.1111 3.31594 C21.4029 2.11014 19.0918 1.60773 15.8763 1.60773 C12.4599 1.60773 9.64638 2.81353 7.33527 5.12464 C5.02415 7.43575 3.91884 10.3498 3.91884 13.8667 C3.91884 17.5845 5.12464 20.599 7.53623 23.1111 C9.94783 25.5227 12.9623 26.7285 16.5797 26.7285 C18.3884 26.7285 19.9961 26.4271 21.5034 25.9246 C23.0106 25.4222 23.714 24.7188 23.714 24.1159 L23.714 21.6039 C23.714 19.7952 23.4126 18.5894 22.8097 17.886 C22.2068 17.1826 21.2019 16.8812 19.6947 16.8812 L19.2928 16.8812 L19.2928 15.8763 L31.3507 15.8763 L31.3507 16.8812 L30.9488 16.8812 C29.4415 16.8812 28.3362 17.1826 27.7333 17.886 C27.1304 18.5894 26.829 19.7952 26.829 21.6039 L26.829 25.6232 C23.915 27.4319 20.3981 28.4367 16.2783 28.4367 C11.3546 28.4367 7.33527 27.1304 4.42126 24.6184 C1.40676 22.0058 0 18.5894 0 14.3691 C0 10.2493 1.40676 6.93333 4.22029 4.22029 C7.03382 1.50725 10.6512 0.200966 14.972 0.200966 C17.5845 0.200966 20.2976 0.602899 23.0106 1.50725 C23.714 1.70821 24.2164 1.8087 24.4174 1.8087 C25.1208 1.8087 25.6232 1.30628 25.7237 0.200966 L26.628 0 L26.628 0 Z" transform="translate(5.64155, 123.47)"/>
        <path style="fill:#eed13c; fill-rule:nonzero;stroke:none;" d="M15.7758 0 L25.7237 23.2116 C26.3266 24.6184 26.9295 25.6232 27.6329 26.1256 C28.2357 26.628 29.2406 26.9295 30.5469 26.9295 L30.5469 27.9343 L19.3932 27.9343 L19.3932 26.9295 L19.5942 26.9295 C21.6039 26.829 22.7092 26.3266 22.7092 25.3217 C22.7092 24.9198 22.6087 24.4174 22.3072 23.714 L20.3981 18.8908 L9.04348 18.8908 L7.1343 23.1111 C6.63188 24.1159 6.43092 24.9198 6.43092 25.3217 C6.43092 26.3266 7.53623 26.829 9.64638 26.829 L9.64638 27.8338 L0 27.8338 L0 26.829 C2.41159 26.829 4.22029 25.4222 5.52657 22.7092 L15.7758 0 Z M9.64638 17.5845 L19.7952 17.5845 L14.972 5.82802 L9.64638 17.5845 Z" transform="translate(38.9014, 123.269)"/>
        <path style="fill:#eed13c; fill-rule:nonzero;stroke:none;" d="M7.63671 14.771 L7.63671 21.7043 C7.63671 23.513 7.93816 24.7188 8.54106 25.4222 C9.14396 26.1256 10.1488 26.4271 11.656 26.4271 L12.058 26.4271 L12.058 27.4319 L0 27.4319 L0 26.4271 L0.301449 26.4271 C1.8087 26.4271 2.91401 26.1256 3.51691 25.4222 C4.11981 24.7188 4.42126 23.513 4.42126 21.7043 L4.42126 5.72754 C4.42126 3.91884 4.11981 2.71304 3.51691 2.00966 C2.91401 1.30628 1.90918 1.00483 0.301449 1.00483 L0 1.00483 L0 0 L12.1585 0 C19.2928 0 22.9101 2.41159 22.9101 7.1343 C22.9101 8.84251 22.3072 10.3498 21.1014 11.656 C19.8957 12.9623 18.2879 13.7662 16.2783 14.1681 L21.9053 22.4077 C23.714 25.1208 26.0251 26.4271 28.7382 26.4271 L28.7382 27.4319 L21.3024 27.4319 L12.5604 14.771 L9.34493 14.771 L7.63671 14.771 L7.63671 14.771 Z M7.63671 2.91401 L7.63671 12.6609 C7.63671 12.9623 7.93816 13.1633 8.54106 13.1633 L10.8522 13.1633 C16.3787 13.1633 19.0918 11.1536 19.0918 7.23478 C19.0918 3.31594 16.6802 1.40676 11.857 1.40676 C9.94783 1.40676 8.84251 1.50725 8.3401 1.70821 C7.83768 1.90918 7.63671 2.31111 7.63671 2.91401 Z" transform="translate(71.6589, 123.871)"/>
        <path style="fill:#eed13c; fill-rule:nonzero;stroke:none;" d="M0 27.4319 L0 26.4271 L0.301449 26.4271 C1.8087 26.4271 2.91401 26.1256 3.51691 25.4222 C4.11981 24.7188 4.42126 23.513 4.42126 21.7043 L4.42126 5.72754 C4.42126 3.91884 4.11981 2.71304 3.51691 2.00966 C2.91401 1.30628 1.90918 1.00483 0.301449 1.00483 L0 1.00483 L0 0 L10.0483 0 C16.0773 0 20.3981 0.703382 22.8097 2.00966 C26.9295 4.32077 29.0396 8.03865 29.0396 13.2638 C29.0396 17.7855 27.5324 21.2019 24.4174 23.714 C21.3024 26.2261 16.9816 27.4319 11.3546 27.4319 L0 27.4319 Z M7.7372 2.11014 L7.7372 25.2213 C9.24444 25.6232 10.8522 25.8242 12.5604 25.8242 C16.2783 25.8242 19.3932 24.7188 21.8048 22.4077 C24.2164 20.0966 25.4222 17.1826 25.4222 13.5652 C25.4222 9.84734 24.2164 6.93333 21.9053 4.82319 C19.5942 2.61256 16.4792 1.60773 12.4599 1.60773 C10.6512 1.50725 9.14396 1.70821 7.7372 2.11014 Z" transform="translate(102.708, 123.871)"/>
        <path style="fill:#eed13c; fill-rule:nonzero;stroke:none;" d="M22.5082 0 L23.0106 6.63188 L22.1063 6.63188 C21.8048 4.82319 21.2019 3.61739 20.0966 2.81353 C19.0918 2.00966 17.4841 1.70821 15.2734 1.70821 L7.7372 1.70821 L7.7372 12.2589 L14.2686 12.2589 C16.3787 12.2589 17.7855 11.9575 18.4889 11.4551 C19.2928 10.8522 19.5942 9.84734 19.5942 8.23961 L20.4986 8.23961 L20.4986 17.886 L19.5942 17.886 C19.4937 16.2783 19.0918 15.2734 18.3884 14.771 C17.685 14.2686 16.2783 13.9671 14.1681 13.9671 L7.63671 13.8667 L7.63671 23.8145 C7.63671 24.7188 7.7372 25.2213 8.03865 25.5227 C8.3401 25.8242 8.943 25.9246 9.84734 25.9246 L16.2783 25.9246 C18.6899 25.9246 20.4986 25.5227 21.7043 24.7188 C22.9101 23.915 23.915 22.5082 24.7188 20.2976 L25.5227 20.4986 L23.2116 27.5324 L0 27.5324 L0 26.5275 L0.301449 26.5275 C1.8087 26.5275 2.91401 26.2261 3.51691 25.5227 C4.11981 24.8193 4.42126 23.6135 4.42126 21.8048 L4.42126 5.72754 C4.42126 3.91884 4.11981 2.71304 3.51691 2.00966 C2.91401 1.30628 1.90918 1.00483 0.301449 1.00483 L0 1.00483 L0 0 L22.5082 0 L22.5082 0 Z" transform="translate(135.868, 123.871)"/>
        <path style="fill:#eed13c; fill-rule:nonzero;stroke:none;" d="M27.7333 27.5324 L7.33527 4.32077 L7.33527 21.7043 C7.33527 23.513 7.63671 24.7188 8.23961 25.4222 C8.84251 26.1256 9.84734 26.4271 11.4551 26.4271 L11.7565 26.4271 L11.7565 27.4319 L1.40676 27.4319 L1.40676 26.4271 L1.70821 26.4271 C3.21546 26.4271 4.32077 26.1256 4.92367 25.4222 C5.52657 24.7188 5.82802 23.513 5.82802 21.7043 L5.82802 3.21546 C4.42126 1.8087 2.51208 1.00483 0.200966 1.00483 L0.100483 1.00483 L0 1.00483 L0 0 L8.3401 0 L26.2261 20.3981 L26.2261 5.82802 C26.2261 4.01932 25.9246 2.81353 25.3217 2.11014 C24.7188 1.40676 23.714 1.10531 22.1063 1.10531 L21.8048 1.10531 L21.8048 0.100483 L32.1546 0.100483 L32.1546 1.10531 L31.8531 1.10531 C30.3459 1.10531 29.2406 1.40676 28.6377 2.11014 C28.0348 2.81353 27.7333 4.01932 27.7333 5.82802 L27.7333 27.5324 L27.7333 27.5324 Z" transform="translate(163.099, 123.771)"/>
       </g>
      </g>
     </g>
     <g id="Group5" clip-path="url(#Clip7)">
      <path style="fill:#ecd134; fill-rule:evenodd;stroke:none;" d="M0 0 L198.957 0 L198.957 1.60773 L0 1.60773 L0 0 Z" transform="translate(1.52174, 156.428)"/>
      <path style="fill:#ecd134; fill-rule:evenodd;stroke:none;" d="M0 0 L198.957 0 L198.957 1.60773 L0 1.60773 L0 0 Z" transform="translate(1.52174, 181.247)"/>
     </g>
    </g>
    <g id="Group7" clip-path="url(#Clip8)">
     <path style="fill:#146633; fill-rule:nonzero;stroke:none;" d="M5.3256 8.943 L5.3256 13.7662 C5.3256 14.771 5.42609 15.4744 5.72754 15.6754 C6.02899 16.0773 6.5314 16.1778 7.23478 16.1778 L7.93816 16.1778 L7.93816 16.6802 L0.100483 16.6802 L0.100483 16.1778 L0.803865 16.1778 C1.60773 16.1778 2.11014 15.9768 2.41159 15.4744 C2.61256 15.1729 2.71304 14.57 2.71304 13.6657 L2.71304 2.91401 C2.71304 1.90918 2.61256 1.2058 2.31111 1.00483 C1.90918 0.602899 1.40676 0.502415 0.703382 0.502415 L0 0.502415 L0 0 L6.63188 0 C8.23961 0 9.54589 0.200966 10.4502 0.502415 C11.3546 0.803865 12.1585 1.30628 12.8618 2.11014 C13.5652 2.91401 13.8667 3.71787 13.8667 4.72271 C13.8667 6.12947 13.3643 7.23478 12.3594 8.03865 C11.3546 8.84251 10.0483 9.34493 8.23961 9.34493 C7.83768 9.34493 7.33527 9.34493 6.83285 9.24444 C6.33043 9.14396 5.9285 9.04348 5.3256 8.943 Z M5.3256 8.23961 C5.82802 8.3401 6.22995 8.3401 6.63188 8.44058 C7.03382 8.44058 7.33527 8.54106 7.53623 8.54106 C8.44058 8.54106 9.24444 8.23961 9.94783 7.53623 C10.6512 6.83285 10.9527 6.02899 10.9527 4.92367 C10.9527 4.22029 10.7517 3.51691 10.4502 2.91401 C10.1488 2.31111 9.64638 1.8087 9.04348 1.50725 C8.44058 1.2058 7.83768 1.00483 7.03382 1.00483 C6.5314 1.00483 6.02899 1.10531 5.22512 1.2058 L5.3256 8.23961 L5.3256 8.23961 Z" transform="translate(7.34976, 161.151)"/>
     <path style="fill:#146633; fill-rule:nonzero;stroke:none;" d="M18.1874 16.7807 L13.3643 16.7807 L7.23478 8.943 C6.73237 8.943 6.43092 8.943 6.12947 8.943 C6.02899 8.943 5.9285 8.943 5.72754 8.943 C5.62705 8.943 5.42609 8.943 5.3256 8.943 L5.3256 13.7662 C5.3256 14.771 5.42609 15.4744 5.72754 15.6754 C6.02899 16.0773 6.63188 16.1778 7.23478 16.1778 L7.93816 16.1778 L7.93816 16.6802 L0.100483 16.6802 L0.100483 16.1778 L0.803865 16.1778 C1.60773 16.1778 2.11014 15.9768 2.41159 15.4744 C2.61256 15.1729 2.71304 14.57 2.71304 13.6657 L2.71304 2.91401 C2.71304 1.90918 2.61256 1.2058 2.31111 1.00483 C1.90918 0.602899 1.40676 0.502415 0.703382 0.502415 L0 0.502415 L0 0 L6.63188 0 C8.54106 0 9.94783 0.100483 10.9527 0.401932 C11.857 0.703382 12.6609 1.10531 13.2638 1.8087 C13.8667 2.51208 14.2686 3.31594 14.2686 4.32077 C14.2686 5.3256 13.8667 6.22995 13.1633 7.03382 C12.4599 7.83768 11.3546 8.3401 9.74686 8.64155 L13.4647 13.4647 C14.3691 14.57 15.0725 15.2734 15.6754 15.6754 C16.2783 16.0773 17.0821 16.2783 18.087 16.3787 L18.1874 16.7807 L18.1874 16.7807 Z M5.3256 8.23961 C5.52657 8.23961 5.62705 8.23961 5.72754 8.23961 C5.82802 8.23961 5.9285 8.23961 6.02899 8.23961 C7.7372 8.23961 9.04348 7.93816 9.94783 7.23478 C10.8522 6.5314 11.2541 5.62705 11.2541 4.62222 C11.2541 3.61739 10.8522 2.71304 10.1488 2.11014 C9.44541 1.50725 8.54106 1.10531 7.33527 1.10531 C6.83285 1.10531 6.12947 1.2058 5.22512 1.30628 L5.3256 8.23961 L5.3256 8.23961 Z" transform="translate(24.2309, 161.05)"/>
     <path style="fill:#146633; fill-rule:nonzero;stroke:none;" d="M12.3594 11.5556 L5.3256 11.5556 L4.11981 14.1681 C3.81836 14.771 3.61739 15.2734 3.61739 15.5749 C3.61739 15.8763 3.71787 16.0773 4.01932 16.2783 C4.32077 16.4792 4.82319 16.5797 5.72754 16.6802 L5.72754 17.1826 L0 17.1826 L0 16.6802 C0.803865 16.5797 1.2058 16.3787 1.50725 16.1778 C2.00966 15.7758 2.51208 14.972 3.01449 13.7662 L9.34493 0 L9.84734 0 L16.1778 13.8667 C16.6802 14.972 17.1826 15.6754 17.5845 16.0773 C17.9865 16.3787 18.5894 16.5797 19.2928 16.6802 L19.2928 17.1826 L12.1585 17.1826 L12.1585 16.6802 C12.8618 16.6802 13.3643 16.5797 13.6657 16.3787 C13.8667 16.1778 14.0676 15.9768 14.0676 15.6754 C14.0676 15.2734 13.8667 14.771 13.5652 13.9671 L12.3594 11.5556 Z M11.9575 10.6512 L8.84251 3.91884 L5.72754 10.6512 L11.9575 10.6512 Z" transform="translate(43.9256, 160.749)"/>
     <path style="fill:#146633; fill-rule:nonzero;stroke:none;" d="M15.1729 0 L15.3739 3.91884 L14.8715 3.91884 C14.771 3.21546 14.6705 2.71304 14.4696 2.41159 C14.1681 1.90918 13.8667 1.60773 13.3643 1.40676 C12.8618 1.2058 12.2589 1.10531 11.5556 1.10531 L8.943 1.10531 L8.943 13.8667 C8.943 14.8715 9.04348 15.4744 9.34493 15.7758 C9.64638 16.0773 10.2493 16.2783 10.9527 16.2783 L11.5556 16.2783 L11.5556 16.7807 L3.81836 16.7807 L3.81836 16.2783 L4.42126 16.2783 C5.22512 16.2783 5.72754 16.0773 6.02899 15.6754 C6.22995 15.3739 6.33043 14.8715 6.33043 13.8667 L6.33043 1.10531 L4.11981 1.10531 C3.31594 1.10531 2.71304 1.2058 2.31111 1.30628 C1.8087 1.50725 1.40676 1.70821 1.10531 2.21063 C0.803865 2.61256 0.602899 3.21546 0.502415 4.01932 L0 4.01932 L0.200966 0.100483 L15.1729 0 L15.1729 0 Z" transform="translate(65.8309, 161.151)"/>
     <path style="fill:#146633; fill-rule:nonzero;stroke:none;" d="M12.9623 0.502415 L12.9623 0 L19.3932 0 L19.3932 0.502415 L18.6899 0.502415 C17.9865 0.502415 17.3836 0.803865 17.0821 1.30628 C16.8812 1.60773 16.7807 2.11014 16.7807 3.11498 L16.7807 9.84734 C16.7807 11.5556 16.5797 12.8618 16.2783 13.7662 C15.8763 14.6705 15.1729 15.4744 14.1681 16.1778 C13.0628 16.8812 11.656 17.1826 9.84734 17.1826 C7.83768 17.1826 6.33043 16.8812 5.3256 16.2783 C4.32077 15.6754 3.61739 14.771 3.11498 13.7662 C2.81353 13.0628 2.71304 11.656 2.71304 9.64638 L2.71304 3.11498 C2.71304 2.11014 2.51208 1.40676 2.21063 1.10531 C1.90918 0.803865 1.40676 0.602899 0.703382 0.602899 L0 0.602899 L0 0.100483 L7.93816 0.100483 L7.93816 0.602899 L7.23478 0.602899 C6.43092 0.602899 5.9285 0.803865 5.62705 1.30628 C5.42609 1.60773 5.3256 2.21063 5.3256 3.11498 L5.3256 10.3498 C5.3256 10.9527 5.42609 11.7565 5.52657 12.5604 C5.62705 13.3643 5.9285 14.0676 6.22995 14.4696 C6.5314 14.972 7.03382 15.3739 7.7372 15.6754 C8.3401 15.9768 9.14396 16.1778 10.0483 16.1778 C11.2541 16.1778 12.2589 15.9768 13.2638 15.4744 C14.2686 14.972 14.8715 14.3691 15.1729 13.6657 C15.4744 12.9623 15.6754 11.656 15.6754 9.94783 L15.6754 3.21546 C15.6754 2.21063 15.5749 1.50725 15.2734 1.30628 C14.972 0.904348 14.3691 0.803865 13.7662 0.803865 L12.9623 0.502415 L12.9623 0.502415 Z" transform="translate(83.5159, 161.151)"/>
     <path style="fill:#146633; fill-rule:nonzero;stroke:none;" d="M10.8522 16.6802 L3.81836 2.61256 L3.81836 13.7662 C3.81836 14.771 3.91884 15.3739 4.22029 15.6754 C4.52174 15.9768 5.02415 16.1778 5.82802 16.1778 L6.43092 16.1778 L6.43092 16.6802 L0.100483 16.6802 L0.100483 16.1778 L0.703382 16.1778 C1.50725 16.1778 2.00966 15.9768 2.31111 15.5749 C2.51208 15.2734 2.61256 14.771 2.61256 13.7662 L2.61256 2.91401 C2.61256 2.21063 2.51208 1.60773 2.31111 1.30628 C2.21063 1.10531 1.90918 0.904348 1.60773 0.703382 C1.30628 0.502415 0.703382 0.502415 0 0.502415 L0 0 L5.12464 0 L11.7565 13.0628 L18.1874 0 L23.3121 0 L23.3121 0.502415 L22.7092 0.502415 C21.9053 0.502415 21.4029 0.703382 21.1014 1.10531 C20.9005 1.40676 20.8 2.00966 20.8 2.91401 L20.8 13.7662 C20.8 14.771 20.9005 15.3739 21.2019 15.6754 C21.5034 15.9768 22.1063 16.1778 22.8097 16.1778 L23.4126 16.1778 L23.4126 16.6802 L15.6754 16.6802 L15.6754 16.1778 L16.2783 16.1778 C17.0821 16.1778 17.5845 15.9768 17.886 15.5749 C18.087 15.2734 18.1874 14.771 18.1874 13.7662 L18.1874 2.61256 L11.1536 16.6802 L10.8522 16.6802 Z" transform="translate(105.12, 161.151)"/>
     <path style="fill:#146633; fill-rule:nonzero;stroke:none;" d="M0 0 L4.92367 0 L16.0773 12.5604 L16.0773 2.91401 C16.0773 1.90918 15.9768 1.2058 15.6754 1.00483 C15.3739 0.703382 14.8715 0.502415 14.0676 0.502415 L13.4647 0.502415 L13.4647 0 L19.7952 0 L19.7952 0.502415 L19.1923 0.502415 C18.3884 0.502415 17.886 0.703382 17.5845 1.10531 C17.3836 1.40676 17.2831 2.00966 17.2831 2.91401 L17.2831 16.9816 L16.7807 16.9816 L4.82319 3.51691 L4.82319 13.7662 C4.82319 14.771 4.92367 15.3739 5.22512 15.6754 C5.52657 15.9768 6.12947 16.1778 6.83285 16.1778 L7.43575 16.1778 L7.43575 16.6802 L1.10531 16.6802 L1.10531 16.1778 L1.70821 16.1778 C2.51208 16.1778 3.01449 15.9768 3.31594 15.5749 C3.51691 15.2734 3.61739 14.771 3.61739 13.7662 L3.61739 2.21063 C3.11498 1.60773 2.71304 1.30628 2.41159 1.10531 C2.11014 0.904348 1.70821 0.803865 1.2058 0.602899 C0.904348 0.502415 0.602899 0.502415 2.84217e-14 0.502415 L0 0 L0 0 Z" transform="translate(130.341, 161.151)"/>
     <path style="fill:#146633; fill-rule:nonzero;stroke:none;" d="M12.3594 11.5556 L5.3256 11.5556 L4.11981 14.1681 C3.81836 14.771 3.61739 15.2734 3.61739 15.5749 C3.61739 15.8763 3.71787 16.0773 4.01932 16.2783 C4.32077 16.4792 4.82319 16.5797 5.72754 16.6802 L5.72754 17.1826 L0 17.1826 L0 16.6802 C0.803865 16.5797 1.2058 16.3787 1.50725 16.1778 C2.00966 15.7758 2.51208 14.972 3.01449 13.7662 L9.44541 0 L9.94783 0 L16.2783 13.8667 C16.7807 14.972 17.2831 15.6754 17.685 16.0773 C18.087 16.3787 18.6899 16.5797 19.3932 16.6802 L19.3932 17.1826 L12.2589 17.1826 L12.2589 16.6802 C12.9623 16.6802 13.4647 16.5797 13.7662 16.3787 C14.0676 16.1778 14.1681 15.9768 14.1681 15.6754 C14.1681 15.2734 13.9671 14.771 13.6657 13.9671 L12.3594 11.5556 Z M12.058 10.6512 L8.943 3.91884 L5.82802 10.6512 L12.058 10.6512 Z" transform="translate(152.246, 160.749)"/>
     <path style="fill:#146633; fill-rule:nonzero;stroke:none;" d="M7.7372 7.43575 L14.4696 13.5652 C15.5749 14.57 16.4792 15.2734 17.2831 15.5749 C18.087 15.9768 18.7903 16.1778 19.5942 16.1778 L19.5942 16.6802 L10.9527 16.6802 L10.9527 16.1778 C11.4551 16.1778 11.857 16.0773 12.058 15.9768 C12.2589 15.8763 12.3594 15.6754 12.3594 15.4744 C12.3594 15.2734 12.3594 15.0725 12.2589 14.972 C12.1585 14.771 11.857 14.57 11.4551 14.0676 L5.22512 8.3401 L5.22512 13.7662 C5.22512 14.57 5.3256 15.1729 5.42609 15.4744 C5.52657 15.6754 5.72754 15.8763 5.9285 15.9768 C6.33043 16.1778 6.73237 16.2783 7.1343 16.2783 L7.7372 16.2783 L7.7372 16.7807 L0 16.7807 L0 16.2783 L0.602899 16.2783 C1.40676 16.2783 1.90918 16.0773 2.21063 15.6754 C2.41159 15.3739 2.51208 14.771 2.51208 13.7662 L2.51208 3.01449 C2.51208 2.21063 2.41159 1.60773 2.31111 1.30628 C2.21063 1.10531 2.00966 0.904348 1.8087 0.803865 C1.40676 0.602899 1.00483 0.502415 0.602899 0.502415 L2.84217e-14 0.502415 L2.84217e-14 0 L7.7372 0 L7.7372 0.502415 L7.1343 0.502415 C6.73237 0.502415 6.33043 0.602899 5.9285 0.803865 C5.62705 0.904348 5.42609 1.10531 5.3256 1.40676 C5.22512 1.70821 5.12464 2.21063 5.12464 3.01449 L5.12464 8.13913 C5.3256 7.93816 5.9285 7.43575 6.93333 6.5314 C9.54589 4.32077 11.1536 2.81353 11.7565 2.11014 C11.9575 1.8087 12.1585 1.50725 12.1585 1.2058 C12.1585 1.00483 12.058 0.803865 11.857 0.703382 C11.656 0.602899 11.3546 0.502415 10.9527 0.502415 L10.5507 0.502415 L10.5507 0 L17.1826 0 L17.1826 0.502415 C16.7807 0.502415 16.4792 0.602899 16.0773 0.703382 C15.7758 0.803865 15.3739 1.00483 14.8715 1.2058 C14.3691 1.50725 13.8667 1.90918 13.1633 2.41159 C12.9623 2.61256 12.058 3.41643 10.4502 4.92367 L7.7372 7.43575 Z" transform="translate(173.951, 161.151)"/>
    </g>
   </g>
   <path style="fill:#edd03d; fill-rule:nonzero;stroke:none;" d="M0 0.904348 C2.31111 0.401932 6.02899 0 9.84734 0 C15.2734 0 18.6899 0.904348 21.3024 3.01449 C23.513 4.62222 24.8193 7.1343 24.8193 10.3498 C24.8193 14.3691 22.1063 17.886 17.7855 19.4937 L17.7855 19.5942 C21.7043 20.599 26.4271 23.915 26.4271 30.0444 C26.4271 33.6618 25.0203 36.3749 22.9101 38.3845 C19.9961 41.0976 15.2734 42.3034 8.44058 42.3034 C4.72271 42.3034 1.90918 42.1024 0.100483 41.801 L0.100483 0.904348 L0 0.904348 Z M5.3256 18.087 L10.2493 18.087 C15.9768 18.087 19.2928 15.0725 19.2928 11.0531 C19.2928 6.12947 15.5749 4.22029 10.1488 4.22029 C7.63671 4.22029 6.22995 4.42126 5.3256 4.62222 L5.3256 18.087 L5.3256 18.087 Z M5.3256 38.0831 C6.33043 38.2841 7.93816 38.2841 9.84734 38.2841 C15.4744 38.2841 20.599 36.2744 20.599 30.1449 C20.599 24.4174 15.6754 22.1063 9.84734 22.1063 L5.42609 22.1063 L5.42609 38.0831 L5.3256 38.0831 Z" transform="translate(12.2734, 16.9575)"/>
  </g>
 </g>
</svg>
