<?xml version="1.0" encoding="UTF-8"?>
<svg width="200pt" version="1.1" xmlns="http://www.w3.org/2000/svg" height="200pt" viewBox="0 0 200 200" xmlns:xlink="http://www.w3.org/1999/xlink">
 <defs>
  <clipPath id="Clip0">
   <path d="M0 0 L199.297 0 L199.297 97 L0 97 L0 0 Z" transform="translate(0.515378, 56.1411)"/>
  </clipPath>
  <clipPath id="Clip1">
   <path d="M0 0 L141.742 0 L141.742 63.2522 L0 63.2522 L0 0 Z" transform="translate(29.9156, 70.9715)"/>
  </clipPath>
 </defs>
 <g id="Background">
  <g id="Olympus" clip-path="url(#Clip0)">
   <path style="fill:#231f20; fill-rule:nonzero; fill-opacity:0.23;stroke:none;" d="M197.278 9.11918 C197.278 35.0215 152.965 56.0732 98.2035 56.0732 C47.9891 56.0732 6.4824 38.417 0 15.425 C8.90121 36.9618 49.0534 53.2599 97.236 53.2599 C151.901 53.2599 196.31 32.2082 196.31 6.30581 C196.31 4.17154 196.02 2.13428 195.44 0 C196.697 3.00739 197.278 6.01478 197.278 9.11918 Z" transform="translate(2.53469, 97.0678)"/>
   <path style="fill:#f3e8d0; fill-rule:evenodd;stroke:#603712; stroke-width:0.362534; stroke-linecap:butt; stroke-linejoin:miter; stroke-dasharray:none;" d="M198.149 46.9541 C198.149 72.887 153.793 93.9081 99.0743 93.9081 C44.3571 93.9081 0 72.887 0 46.9541 C0 21.022 44.3571 0 99.0743 0 C153.793 0 198.149 21.022 198.149 46.9541 Z" transform="translate(0.696401, 56.3226)"/>
   <g id="Group1" clip-path="url(#Clip1)">
    <path style="fill:#94561b; fill-rule:nonzero;stroke:none;" d="M3.77334 3.39544 L3.77334 3.39544 C3.67658 3.49245 3.57983 3.58946 3.38633 3.68648 C3.28958 3.78349 3.19282 3.78349 2.99932 3.78349 C2.90257 3.78349 2.80581 3.78349 2.61231 3.8805 C2.51556 3.8805 2.32205 3.8805 2.2253 3.8805 C1.93504 3.8805 1.64479 3.8805 1.35453 3.78349 C1.06427 3.68648 0.87077 3.58946 0.677266 3.39544 C0.483761 3.20141 0.290257 3.00739 0.193504 2.81336 C0.0967522 2.52233 0 2.23129 0 1.94025 C0 1.64921 0.0967522 1.35818 0.193504 1.06714 C0.290257 0.7761 0.483761 0.582075 0.677266 0.485063 C0.87077 0.291038 1.06427 0.194025 1.35453 0.0970125 C1.64479 0 1.93504 0 2.2253 0 C2.32205 0 2.51556 0 2.61231 0 C2.70906 0 2.80581 0 2.99932 0.0970125 C3.09607 0.0970125 3.19282 0.194025 3.28958 0.194025 C3.38633 0.194025 3.48308 0.291038 3.57983 0.38805 L3.57983 0.38805 L3.57983 0.485063 C3.57983 0.582075 3.57983 0.582075 3.57983 0.679088 C3.57983 0.7761 3.57983 0.7761 3.57983 0.873113 L3.57983 0.970125 L3.57983 0.970125 L3.48308 0.970125 C3.38633 0.7761 3.19282 0.679088 2.99932 0.485063 C2.80581 0.38805 2.61231 0.291038 2.32205 0.291038 C2.12855 0.291038 1.83829 0.291038 1.64479 0.38805 C1.45128 0.485063 1.25778 0.582075 1.06427 0.679088 C0.87077 0.7761 0.774018 0.970125 0.677266 1.26116 C0.580513 1.45519 0.483761 1.74623 0.483761 2.03726 C0.483761 2.23129 0.483761 2.52233 0.580513 2.71635 C0.677266 2.91038 0.774018 3.1044 0.967522 3.29843 C1.06427 3.39544 1.25778 3.58946 1.35453 3.58946 C1.54804 3.68648 1.64479 3.68648 1.83829 3.78349 C2.0318 3.78349 2.2253 3.78349 2.32205 3.78349 C2.51556 3.78349 2.70906 3.68648 2.80581 3.58946 C2.90257 3.49245 2.99932 3.49245 3.09607 3.39544 C3.19282 3.29843 3.28958 3.20141 3.38633 3.1044 L3.38633 3.1044 C3.38633 3.20141 3.38633 3.29843 3.38633 3.39544 C3.77334 3.20141 3.77334 3.29843 3.77334 3.39544 Z" transform="translate(128.216, 106.187)"/>
    <path style="fill:#94561b; fill-rule:nonzero;stroke:none;" d="M1.06427 3.68648 L1.06427 3.68648 C0.677266 3.68648 0.290257 3.68648 0 3.78349 L0 3.78349 C0.0967522 3.78349 0.193504 3.68648 0.193504 3.68648 C0.290257 3.58946 0.290257 3.49245 0.290257 3.49245 L0.290257 0.38805 C0.290257 0.291038 0.290257 0.194025 0.193504 0.194025 C0.0967522 0.0970125 0.0967522 0.0970125 0 0.0970125 L0 0 L0 0 C0.193504 0 0.387009 0 0.580513 0 C0.774018 0 0.967522 0 1.16103 0 L1.16103 0 C1.06427 0 0.967522 0.0970125 0.967522 0.0970125 C0.87077 0.194025 0.87077 0.291038 0.87077 0.291038 L0.87077 3.39544 C0.87077 3.49245 0.87077 3.58946 0.967522 3.58946 C0.967522 3.58946 0.967522 3.58946 1.06427 3.68648 Z" transform="translate(132.957, 106.284)"/>
    <path style="fill:#94561b; fill-rule:nonzero;stroke:none;" d="M3.38633 0.0970125 C3.38633 0.194025 3.38633 0.291038 3.38633 0.38805 C3.38633 0.485063 3.38633 0.582075 3.38633 0.679088 L3.38633 0.679088 L3.38633 0.582075 L3.38633 0.485063 L3.38633 0.38805 C3.38633 0.38805 3.38633 0.38805 3.28958 0.38805 C3.09607 0.38805 2.90257 0.38805 2.80581 0.38805 C2.61231 0.38805 2.41881 0.38805 2.32205 0.38805 C2.32205 0.7761 2.32205 1.16415 2.32205 1.45519 C2.32205 1.84324 2.32205 2.23129 2.32205 2.52233 L2.32205 3.00739 C2.32205 3.20141 2.32205 3.39544 2.32205 3.49245 C2.32205 3.58946 2.32205 3.68648 2.41881 3.78349 C2.51556 3.8805 2.51556 3.8805 2.61231 3.8805 L2.61231 3.8805 L1.64479 3.8805 C1.54804 3.8805 1.54804 3.8805 1.45128 3.8805 L1.45128 3.8805 C1.54804 3.8805 1.64479 3.8805 1.64479 3.78349 C1.74154 3.68648 1.74154 3.58946 1.74154 3.58946 L1.74154 1.94025 C1.74154 1.35818 1.74154 0.873113 1.74154 0.291038 C1.35453 0.291038 1.06427 0.291038 0.677266 0.291038 C0.580513 0.291038 0.483761 0.291038 0.387009 0.291038 C0.290257 0.291038 0.193504 0.38805 0.0967522 0.485063 L0.0967522 0.485063 L0 0.485063 L0 0.38805 C0.0967522 0.291038 0.0967522 0.291038 0.193504 0.194025 C0.290257 0.0970125 0.290257 0.0970125 0.387009 0 L0.387009 0 C1.06427 0 1.74154 0 2.51556 0 C2.70906 0 2.90257 0 2.99932 0 C2.99932 0.0970125 3.19282 0 3.38633 0.0970125 C3.38633 0 3.38633 0 3.38633 0.0970125 L3.38633 0.0970125 Z" transform="translate(135.279, 105.993)"/>
    <path style="fill:#94561b; fill-rule:nonzero;stroke:none;" d="M3.87009 0 L3.87009 0 C3.77334 0.0970125 3.67658 0.0970125 3.57983 0.194025 C3.48308 0.194025 3.38633 0.291038 3.38633 0.38805 C3.19282 0.679088 2.99932 0.970125 2.80581 1.26116 C2.61231 1.5522 2.41881 1.84324 2.2253 2.13428 C2.2253 2.42531 2.2253 2.61934 2.2253 2.91038 C2.2253 3.20141 2.2253 3.39544 2.2253 3.68648 C2.2253 3.78349 2.2253 3.8805 2.32205 3.8805 C2.41881 3.97751 2.41881 3.97751 2.51556 3.97751 L2.51556 3.97751 L2.51556 4.07453 L2.51556 4.07453 C2.41881 4.07453 2.2253 4.07453 2.12855 4.07453 C2.0318 4.07453 1.83829 4.07453 1.74154 4.07453 C1.64479 4.07453 1.64479 4.07453 1.54804 4.07453 C1.45128 4.07453 1.45128 4.07453 1.35453 4.07453 L1.35453 4.07453 C1.45128 4.07453 1.54804 4.07453 1.54804 3.97751 C1.64479 3.8805 1.64479 3.78349 1.64479 3.78349 L1.64479 2.3283 C1.45128 2.03726 1.25778 1.74623 1.06427 1.45519 C0.87077 1.16415 0.677266 0.873113 0.483761 0.582075 C0.387009 0.485063 0.290257 0.38805 0.290257 0.38805 C0.193504 0.38805 0.0967522 0.291038 0 0.291038 L0 0.291038 C0.0967522 0.291038 0.290257 0.291038 0.387009 0.291038 L0.774018 0.291038 C0.774018 0.291038 0.87077 0.291038 0.967522 0.291038 C1.06427 0.291038 1.06427 0.291038 1.16103 0.291038 L1.16103 0.291038 L1.06427 0.291038 L1.06427 0.38805 C1.06427 0.38805 1.06427 0.38805 1.06427 0.485063 C1.06427 0.485063 1.06427 0.485063 1.06427 0.582075 C1.06427 0.679088 1.16103 0.7761 1.25778 0.7761 C1.35453 0.873113 1.35453 0.970125 1.45128 0.970125 C1.54804 1.16415 1.64479 1.26116 1.74154 1.45519 C1.83829 1.64921 1.93504 1.74623 2.0318 1.94025 C2.2253 1.64921 2.41881 1.45519 2.51556 1.16415 C2.70906 0.873113 2.90257 0.679088 2.99932 0.38805 L2.99932 0.291038 L2.99932 0.194025 L2.99932 0.194025 L2.99932 0.0970125 L2.99932 0.0970125 C3.19282 0.0970125 3.28958 0.0970125 3.48308 0.0970125 C3.57983 0 3.77334 0 3.87009 0 Z" transform="translate(139.149, 106.09)"/>
    <path style="fill:#94561b; fill-rule:nonzero;stroke:none;" d="M3.96684 2.23129 L3.96684 2.23129 C3.87009 2.3283 3.77334 2.3283 3.77334 2.42531 C3.67658 2.52233 3.67658 2.61934 3.67658 2.61934 C3.67658 2.81336 3.67658 2.91038 3.67658 3.1044 C3.67658 3.29843 3.67658 3.39544 3.67658 3.58946 L3.57983 3.68648 C3.48308 3.68648 3.48308 3.78349 3.38633 3.78349 C3.28958 3.78349 3.28958 3.8805 3.19282 3.8805 C3.09607 3.8805 3.09607 3.8805 2.99932 3.97751 C2.90257 3.97751 2.70906 4.07453 2.61231 4.07453 C2.51556 4.07453 2.32205 4.07453 2.2253 4.07453 C1.93504 4.07453 1.64479 4.07453 1.35453 3.97751 C1.06427 3.8805 0.87077 3.78349 0.677266 3.58946 C0.483761 3.39544 0.290257 3.20141 0.193504 2.91038 C0.0967522 2.61934 0 2.3283 0 2.03726 C0 1.74623 0.0967522 1.45519 0.193504 1.16415 C0.290257 0.873113 0.483761 0.679088 0.677266 0.485063 C0.87077 0.291038 1.06427 0.194025 1.35453 0.0970125 C1.64479 0 1.93504 0 2.2253 0 C2.32205 0 2.51556 0 2.61231 0 C2.70906 0 2.90257 0 2.99932 0.0970125 C2.99932 0.0970125 3.09607 0.0970125 3.19282 0.0970125 C3.28958 0.0970125 3.28958 0.0970125 3.38633 0.194025 C3.48308 0.194025 3.48308 0.291038 3.57983 0.291038 C3.67658 0.291038 3.67658 0.38805 3.67658 0.38805 L3.67658 0.38805 L3.67658 0.485063 C3.67658 0.485063 3.67658 0.582075 3.67658 0.679088 L3.67658 0.7761 L3.67658 0.873113 L3.67658 0.873113 L3.57983 0.873113 C3.48308 0.679088 3.28958 0.485063 3.09607 0.38805 C2.90257 0.291038 2.70906 0.194025 2.41881 0.194025 C2.2253 0.194025 1.93504 0.194025 1.74154 0.291038 C1.54804 0.38805 1.35453 0.485063 1.16103 0.582075 C0.967522 0.679088 0.87077 0.873113 0.774018 1.16415 C0.677266 1.35818 0.580513 1.64921 0.580513 1.94025 C0.580513 2.13428 0.580513 2.42531 0.677266 2.61934 C0.774018 2.81336 0.87077 3.00739 1.06427 3.20141 L1.06427 3.20141 C1.16103 3.29843 1.35453 3.49245 1.54804 3.58946 C1.74154 3.68648 1.93504 3.68648 2.12855 3.78349 C2.32205 3.78349 2.51556 3.78349 2.70906 3.78349 C2.90257 3.68648 3.09607 3.68648 3.19282 3.49245 C3.19282 3.39544 3.19282 3.20141 3.19282 3.1044 C3.19282 3.00739 3.19282 2.81336 3.19282 2.71635 C3.19282 2.61934 3.19282 2.52233 3.09607 2.52233 C2.99932 2.42531 2.99932 2.42531 2.90257 2.42531 L2.90257 2.42531 L2.90257 2.3283 L2.90257 2.3283 C3.09607 2.3283 3.28958 2.3283 3.48308 2.3283 C3.67658 2.23129 3.77334 2.23129 3.96684 2.23129 Z" transform="translate(146.018, 105.896)"/>
    <path style="fill:#94561b; fill-rule:nonzero;stroke:none;" d="M3.96684 3.8805 C3.87009 3.8805 3.77334 3.8805 3.67658 3.78349 C3.57983 3.68648 3.48308 3.58946 3.48308 3.49245 C3.28958 3.1044 3.09607 2.61934 2.99932 2.23129 C2.80581 1.84324 2.70906 1.35818 2.51556 0.970125 L2.2253 0.194025 L2.12855 0 C2.12855 0 2.12855 0 2.0318 0 C2.0318 0 2.0318 0 1.93504 0 C1.93504 0 1.93504 0.0970125 1.83829 0.194025 C1.83829 0.291038 1.83829 0.291038 1.74154 0.38805 L1.45128 1.16415 C1.25778 1.5522 1.16103 1.94025 0.967522 2.3283 C0.774018 2.71635 0.677266 3.1044 0.483761 3.49245 L0.483761 3.49245 C0.483761 3.58946 0.387009 3.68648 0.290257 3.78349 C0.193504 3.8805 0.0967522 3.8805 0 3.8805 L0 3.8805 L0 3.97751 C0.193504 3.97751 0.290257 3.97751 0.483761 3.97751 C0.580513 3.97751 0.774018 3.97751 0.967522 3.97751 L0.967522 3.97751 L0.967522 3.8805 L0.87077 3.8805 C0.87077 3.8805 0.87077 3.8805 0.774018 3.78349 L0.774018 3.68648 C0.774018 3.58946 0.87077 3.49245 0.87077 3.39544 C0.87077 3.29843 0.967522 3.20141 0.967522 3.1044 C0.967522 3.00739 1.06427 2.91038 1.06427 2.81336 C1.06427 2.71635 1.16103 2.61934 1.16103 2.52233 C1.16103 2.42531 1.25778 2.42531 1.25778 2.3283 L2.32205 2.3283 C2.32205 2.3283 2.32205 2.42531 2.41881 2.52233 C2.41881 2.61934 2.51556 2.71635 2.51556 2.81336 C2.51556 2.91038 2.61231 3.00739 2.61231 3.1044 C2.61231 3.20141 2.70906 3.29843 2.70906 3.39544 C2.70906 3.49245 2.80581 3.58946 2.80581 3.68648 C2.80581 3.78349 2.80581 3.78349 2.80581 3.78349 L2.80581 3.8805 C2.80581 3.8805 2.80581 3.8805 2.70906 3.8805 L2.70906 3.8805 C2.80581 3.8805 2.80581 3.8805 2.90257 3.8805 C2.99932 3.8805 2.99932 3.8805 3.09607 3.8805 C3.19282 3.8805 3.38633 3.8805 3.48308 3.8805 C3.77334 3.8805 3.87009 3.97751 3.96684 3.8805 L3.96684 3.8805 Z M1.93504 1.94025 C1.83829 1.94025 1.64479 1.94025 1.54804 1.94025 C1.64479 1.74623 1.74154 1.5522 1.74154 1.35818 C1.83829 1.16415 1.83829 0.970125 1.93504 0.7761 L2.32205 1.84324 L1.93504 1.84324 L1.93504 1.94025 Z" transform="translate(150.566, 106.09)"/>
    <path style="fill:#94561b; fill-rule:nonzero;stroke:none;" d="M3.77334 4.36556 L3.77334 4.36556 C3.67658 4.46258 3.48308 4.36556 3.38633 4.36556 C3.28958 4.36556 3.19282 4.26855 3.09607 4.26855 C3.09607 4.26855 2.99932 4.26855 2.99932 4.17154 L2.90257 4.07453 L2.80581 3.97751 L2.70906 3.8805 C2.41881 3.58946 2.2253 3.39544 1.93504 3.1044 C1.64479 2.81336 1.45128 2.61934 1.16103 2.3283 L1.16103 2.23129 L1.16103 2.23129 C1.25778 2.23129 1.45128 2.23129 1.54804 2.13428 C1.64479 2.13428 1.74154 2.03726 1.83829 1.94025 C1.93504 1.84324 1.93504 1.74623 2.0318 1.64921 C2.0318 1.5522 2.12855 1.45519 2.12855 1.35818 C2.12855 1.26116 2.12855 1.16415 2.12855 1.06714 C2.12855 0.970125 2.0318 0.873113 1.93504 0.7761 C1.83829 0.679088 1.83829 0.679088 1.74154 0.582075 C1.64479 0.582075 1.54804 0.485063 1.45128 0.485063 C1.35453 0.485063 1.25778 0.485063 1.16103 0.485063 C1.06427 0.485063 0.967522 0.485063 0.87077 0.485063 C0.87077 0.873113 0.87077 1.26116 0.87077 1.5522 C0.87077 1.94025 0.87077 2.3283 0.87077 2.61934 C0.87077 2.81336 0.87077 3.00739 0.87077 3.1044 C0.87077 3.29843 0.87077 3.49245 0.87077 3.58946 C0.87077 3.68648 0.87077 3.78349 0.967522 3.78349 C1.06427 3.8805 1.06427 3.8805 1.16103 3.8805 L1.16103 3.8805 C0.967522 3.8805 0.774018 3.8805 0.580513 3.8805 C0.387009 3.8805 0.193504 3.8805 0 3.8805 L0 3.8805 L0.0967522 3.8805 C0.193504 3.8805 0.290257 3.8805 0.290257 3.78349 C0.387009 3.68648 0.387009 3.58946 0.387009 3.49245 C0.387009 3.20141 0.387009 2.91038 0.387009 2.71635 C0.387009 2.42531 0.387009 2.13428 0.387009 1.94025 C0.387009 1.64921 0.387009 1.45519 0.387009 1.16415 C0.387009 0.873113 0.387009 0.679088 0.387009 0.38805 C0.387009 0.291038 0.387009 0.194025 0.290257 0.0970125 C0.193504 0 0.193504 0 0.0967522 0 L0.0967522 0 C0.387009 0 0.580513 0 0.87077 0 C1.16103 0 1.35453 0 1.64479 0 C1.74154 0 1.93504 0 2.0318 0.0970125 C2.12855 0.194025 2.2253 0.194025 2.32205 0.291038 C2.41881 0.38805 2.51556 0.485063 2.51556 0.582075 C2.61231 0.679088 2.61231 0.873113 2.61231 0.970125 C2.61231 1.06714 2.61231 1.16415 2.51556 1.35818 C2.51556 1.45519 2.41881 1.5522 2.32205 1.64921 C2.2253 1.74623 2.2253 1.74623 2.12855 1.84324 C2.0318 1.94025 1.93504 1.94025 1.83829 1.94025 C2.0318 2.13428 2.2253 2.3283 2.32205 2.52233 C2.41881 2.71635 2.61231 2.81336 2.70906 2.91038 C2.80581 3.00739 2.90257 3.1044 2.99932 3.20141 C3.09607 3.29843 3.19282 3.39544 3.28958 3.49245 C3.38633 3.58946 3.48308 3.68648 3.57983 3.68648 C3.67658 3.68648 3.57983 4.26855 3.77334 4.36556 Z" transform="translate(155.693, 105.702)"/>
    <path style="fill:#94561b; fill-rule:nonzero;stroke:none;" d="M3.77334 1.06714 C3.67658 0.7761 3.48308 0.582075 3.28958 0.485063 C3.09607 0.291038 2.90257 0.194025 2.61231 0.0970125 C2.32205 0 2.0318 0 1.74154 0 C1.45128 0 1.16103 0 0.87077 0 C0.580513 0 0.290257 0 0 0 L0 0 C0.0967522 0 0.193504 0.0970125 0.290257 0.0970125 C0.387009 0.0970125 0.387009 0.194025 0.387009 0.291038 C0.387009 0.38805 0.387009 0.582075 0.387009 0.679088 C0.387009 0.7761 0.387009 0.970125 0.387009 1.06714 L0.387009 1.45519 C0.387009 1.5522 0.387009 1.74623 0.387009 1.84324 L0.387009 2.61934 C0.387009 2.91038 0.387009 3.1044 0.387009 3.39544 C0.387009 3.49245 0.387009 3.58946 0.290257 3.68648 C0.193504 3.78349 0.193504 3.78349 0.0967522 3.78349 L0.0967522 3.78349 C0.387009 3.78349 0.677266 3.78349 0.967522 3.78349 C1.25778 3.78349 1.54804 3.78349 1.83829 3.78349 C2.12855 3.78349 2.41881 3.78349 2.61231 3.68648 C2.90257 3.58946 3.09607 3.49245 3.28958 3.29843 C3.48308 3.1044 3.67658 2.91038 3.77334 2.61934 C3.87009 2.3283 3.96684 2.13428 3.96684 1.84324 C3.96684 1.5522 3.87009 1.26116 3.77334 1.06714 Z M3.38633 2.61934 C3.28958 2.81336 3.19282 3.00739 2.99932 3.20141 C2.80581 3.39544 2.70906 3.49245 2.51556 3.58946 C2.32205 3.68648 2.12855 3.68648 1.93504 3.68648 L1.35453 3.68648 C1.25778 3.68648 1.16103 3.68648 1.16103 3.58946 C1.06427 3.49245 1.06427 3.39544 1.06427 3.39544 C1.06427 3.39544 1.06427 3.29843 1.06427 3.20141 C1.06427 3.1044 1.06427 3.1044 1.06427 3.00739 C1.06427 2.91038 1.06427 2.81336 1.06427 2.61934 C1.06427 2.52233 1.06427 2.42531 1.06427 2.23129 C1.06427 1.5522 1.06427 0.873113 1.06427 0.194025 C1.25778 0.194025 1.45128 0.194025 1.64479 0.194025 C1.83829 0.194025 2.0318 0.194025 2.2253 0.194025 C2.41881 0.194025 2.61231 0.291038 2.70906 0.291038 C2.80581 0.291038 2.99932 0.485063 3.19282 0.582075 C3.38633 0.7761 3.48308 0.970125 3.57983 1.16415 C3.67658 1.35818 3.67658 1.5522 3.67658 1.84324 C3.48308 2.13428 3.38633 2.3283 3.38633 2.61934 " transform="translate(159.951, 106.09)"/>
    <path style="fill:#94561b; fill-rule:nonzero;stroke:none;" d="M2.51556 3.39544 L2.51556 3.49245 C2.51556 3.58946 2.51556 3.58946 2.51556 3.68648 C2.51556 3.78349 2.51556 3.78349 2.51556 3.8805 C2.51556 3.97751 2.51556 3.97751 2.51556 3.97751 L2.51556 3.97751 C2.12855 3.97751 1.64479 3.97751 1.25778 3.97751 C0.87077 3.97751 0.387009 3.97751 0 3.97751 L0 3.97751 C0.0967522 3.97751 0.193504 3.97751 0.193504 3.8805 C0.290257 3.78349 0.290257 3.68648 0.290257 3.58946 C0.290257 3.29843 0.290257 3.00739 0.290257 2.81336 C0.290257 2.52233 0.290257 2.23129 0.290257 2.03726 L0.290257 1.16415 C0.290257 0.873113 0.290257 0.679088 0.290257 0.38805 C0.290257 0.291038 0.290257 0.194025 0.193504 0.0970125 C0.0967522 0 0.0967522 0 0 0 L0 0 C0.290257 0 0.483761 0 0.774018 0 C1.06427 0 1.25778 0 1.54804 0 C1.64479 0 1.83829 0 1.93504 0 C2.0318 0 2.2253 0 2.32205 0 L2.32205 0 L2.32205 0.0970125 C2.32205 0.0970125 2.32205 0.194025 2.32205 0.291038 C2.32205 0.38805 2.32205 0.38805 2.32205 0.485063 L2.32205 0.582075 C2.32205 0.582075 2.32205 0.582075 2.2253 0.582075 C2.2253 0.582075 2.2253 0.582075 2.12855 0.582075 C2.12855 0.582075 2.12855 0.582075 2.12855 0.485063 L2.12855 0.38805 L2.12855 0.291038 C2.12855 0.291038 2.12855 0.291038 2.0318 0.291038 C1.93504 0.291038 1.93504 0.291038 1.83829 0.291038 C1.74154 0.291038 1.74154 0.291038 1.64479 0.291038 C1.35453 0.291038 1.06427 0.291038 0.774018 0.291038 C0.774018 0.582075 0.774018 0.7761 0.774018 1.06714 C0.774018 1.35818 0.774018 1.5522 0.774018 1.84324 L1.45128 1.84324 C1.54804 1.84324 1.54804 1.84324 1.64479 1.74623 C1.74154 1.74623 1.74154 1.64921 1.74154 1.5522 L1.74154 1.5522 L1.83829 1.5522 L1.83829 1.5522 L1.83829 2.3283 L1.83829 2.3283 L1.74154 2.3283 C1.74154 2.23129 1.64479 2.23129 1.64479 2.13428 C1.54804 2.13428 1.54804 2.03726 1.45128 2.03726 L0.774018 2.03726 C0.774018 2.3283 0.774018 2.61934 0.774018 2.81336 C0.774018 3.1044 0.774018 3.39544 0.774018 3.58946 C0.967522 3.58946 1.25778 3.58946 1.45128 3.58946 C1.64479 3.58946 1.93504 3.58946 2.12855 3.58946 C2.2253 3.58946 2.32205 3.58946 2.41881 3.49245 C2.51556 3.39544 2.61231 3.39544 2.61231 3.20141 L2.51556 3.39544 L2.51556 3.39544 Z" transform="translate(164.498, 105.993)"/>
    <path style="fill:#94561b; fill-rule:nonzero;stroke:none;" d="M3.87009 0.194025 L3.87009 0.194025 C3.77334 0.291038 3.67658 0.291038 3.57983 0.38805 C3.48308 0.485063 3.48308 0.582075 3.48308 0.679088 C3.48308 0.7761 3.48308 0.970125 3.48308 1.06714 C3.48308 1.16415 3.48308 1.35818 3.48308 1.45519 C3.48308 1.74623 3.48308 2.03726 3.48308 2.42531 C3.48308 2.71635 3.48308 3.00739 3.48308 3.39544 C3.48308 3.49245 3.48308 3.58946 3.48308 3.78349 C3.48308 3.8805 3.48308 3.97751 3.48308 4.17154 L3.48308 4.26855 L3.48308 4.36556 L3.48308 4.36556 C3.48308 4.36556 3.48308 4.36556 3.38633 4.36556 L3.28958 4.26855 C3.28958 4.17154 3.19282 4.17154 3.19282 4.07453 C3.09607 3.97751 2.99932 3.8805 2.90257 3.68648 C2.80581 3.58946 2.70906 3.49245 2.61231 3.29843 C2.32205 2.91038 2.0318 2.61934 1.64479 2.23129 C1.35453 1.84324 1.06427 1.45519 0.677266 1.16415 C0.677266 1.45519 0.677266 1.74623 0.677266 2.03726 C0.677266 2.3283 0.677266 2.61934 0.677266 2.91038 C0.677266 3.00739 0.677266 3.20141 0.677266 3.29843 C0.677266 3.49245 0.677266 3.58946 0.677266 3.68648 C0.677266 3.78349 0.677266 3.8805 0.774018 3.8805 C0.87077 3.8805 0.87077 3.97751 0.967522 3.97751 L0.967522 3.97751 L0.967522 4.07453 L0.967522 4.07453 C0.774018 4.07453 0.677266 4.07453 0.483761 4.07453 C0.290257 4.07453 0.193504 4.07453 0 4.07453 L0 4.07453 C0.0967522 4.07453 0.193504 4.07453 0.193504 3.97751 C0.290257 3.8805 0.290257 3.78349 0.290257 3.68648 C0.290257 3.58946 0.290257 3.39544 0.290257 3.29843 C0.290257 3.20141 0.290257 3.00739 0.290257 2.91038 C0.290257 2.61934 0.290257 2.3283 0.290257 1.94025 C0.290257 1.64921 0.290257 1.26116 0.290257 0.970125 C0.290257 0.873113 0.290257 0.7761 0.290257 0.582075 C0.290257 0.485063 0.290257 0.38805 0.290257 0.194025 L0.290257 0.0970125 L0.290257 0 L0.290257 0 C0.290257 0 0.290257 0 0.387009 0 L0.483761 0.0970125 C0.483761 0.194025 0.580513 0.194025 0.580513 0.291038 C0.677266 0.38805 0.774018 0.485063 0.87077 0.679088 C0.967522 0.7761 1.06427 0.873113 1.16103 1.06714 C1.45128 1.45519 1.74154 1.74623 2.12855 2.13428 C2.41881 2.52233 2.70906 2.81336 3.09607 3.20141 C3.09607 2.91038 3.09607 2.61934 3.09607 2.3283 C3.09607 2.03726 3.09607 1.74623 3.09607 1.45519 C3.09607 1.35818 3.09607 1.16415 3.09607 1.06714 C3.09607 0.970125 3.09607 0.7761 3.09607 0.679088 L3.09607 0.582075 C3.09607 0.582075 3.09607 0.485063 2.99932 0.485063 L2.90257 0.38805 L2.80581 0.38805 L2.80581 0.38805 L2.80581 0.291038 L2.80581 0.291038 C2.99932 0.291038 3.09607 0.291038 3.28958 0.291038 C3.48308 0.194025 3.67658 0.194025 3.87009 0.194025 Z" transform="translate(167.788, 105.799)"/>
    <path style="fill:#94561b; fill-rule:nonzero;stroke:none;" d="M15.5771 0 C4.64411 0 0 9.11918 0 15.619 C0 22.7979 4.54736 31.335 15.3836 31.335 C24.9621 31.335 31.1542 23.9621 31.1542 15.0369 C31.1542 5.62673 24.4783 0 15.5771 0 Z M16.3511 29.7828 C9.19146 29.7828 3.67658 23.7681 3.67658 14.4549 C3.67658 5.72374 8.61095 1.35818 15.2869 1.35818 C21.5757 1.35818 27.3809 6.49984 27.3809 16.1041 C27.2841 27.7456 19.931 29.7828 16.3511 29.7828 " transform="translate(53.9101, 70.9715)"/>
    <path style="fill:#94561b; fill-rule:nonzero;stroke:none;" d="M10.2557 13.5818 C10.2557 13.7758 10.0622 15.134 9.96548 15.716 C9.77198 16.2011 9.77198 16.2981 8.61095 16.2981 C5.51488 16.2981 4.06359 16.2011 2.90257 16.2011 C2.70906 16.2011 1.45128 16.2981 0.774018 16.2981 C0.580513 16.2981 0.387009 16.2981 0.387009 16.1041 C0.387009 16.0071 0.387009 16.0071 0.580513 16.0071 C0.774018 16.0071 1.06427 16.0071 1.25778 15.9101 C1.64479 15.813 1.83829 15.328 1.83829 14.7459 C1.93504 13.8728 1.93504 12.1266 1.93504 10.0893 L1.93504 6.30581 C1.93504 2.91038 1.93504 2.3283 1.93504 1.64921 C1.93504 0.873113 1.74154 0.582075 0.967522 0.38805 C0.774018 0.38805 0.387009 0.291038 0.193504 0.291038 C0.0967522 0.291038 0 0.291038 0 0.194025 C0 0.0970125 0.0967522 0 0.387009 0 C1.35453 0 2.70906 0.0970125 2.80581 0.0970125 C2.90257 0.0970125 4.4506 0 5.12787 0 C5.32137 0 5.51488 0 5.51488 0.194025 C5.51488 0.291038 5.41813 0.291038 5.32137 0.291038 C5.12787 0.291038 4.83761 0.291038 4.64411 0.38805 C4.06359 0.485063 3.87009 0.873113 3.77334 1.64921 C3.77334 2.3283 3.77334 2.91038 3.77334 6.30581 L3.77334 10.1863 C3.77334 13.3877 3.87009 14.7459 4.2571 15.134 C4.64411 15.522 5.12787 15.619 6.86941 15.619 C8.03044 15.619 8.99796 15.619 9.48172 14.9399 C9.77198 14.5519 9.96548 14.0668 10.0622 13.6788 C10.0622 13.4847 10.159 13.3877 10.2557 13.3877 C10.2557 13.1937 10.2557 13.2907 10.2557 13.5818 Z" transform="translate(86.9994, 86.0084)"/>
    <path style="fill:#94561b; fill-rule:nonzero;stroke:none;" d="M15.3836 0.194025 C15.3836 0.291038 15.2869 0.38805 15.0933 0.38805 C14.8998 0.38805 14.4161 0.485063 14.1258 0.679088 C13.7388 0.970125 13.4486 1.16415 12.9648 1.74623 C12.2875 2.61934 9.28821 7.66399 8.90121 8.63411 C8.61095 9.41021 8.61095 10.0893 8.61095 10.7684 L8.61095 12.6116 C8.61095 12.9997 8.61095 13.8728 8.7077 14.7459 C8.7077 15.328 8.90121 15.813 9.57847 15.9101 C9.86873 15.9101 10.3525 16.0071 10.546 16.0071 C10.6427 16.0071 10.7395 16.1041 10.7395 16.1041 C10.7395 16.2011 10.6427 16.2981 10.3525 16.2981 C9.19146 16.2981 7.83693 16.2011 7.74018 16.2011 C7.64343 16.2011 6.2889 16.2981 5.61163 16.2981 C5.41813 16.2981 5.22462 16.2981 5.22462 16.1041 C5.22462 16.0071 5.22462 16.0071 5.41813 16.0071 C5.61163 16.0071 5.90189 16.0071 6.09539 15.9101 C6.4824 15.813 6.6759 15.328 6.77266 14.7459 C6.86941 13.8728 6.86941 12.9027 6.86941 12.6116 L6.86941 10.7684 C6.86941 9.60424 6.6759 9.11918 6.38565 8.5371 C6.19214 8.14905 3.38633 3.39544 2.61231 2.3283 C2.0318 1.5522 1.54804 0.970125 1.16103 0.7761 C0.87077 0.582075 0.387009 0.38805 0.193504 0.38805 C0.0967522 0.38805 0 0.38805 0 0.194025 C0 0.0970125 0.0967522 0 0.290257 0 C0.677266 0 2.32205 0.0970125 2.41881 0.0970125 C2.61231 0.0970125 3.38633 0 4.2571 0 C4.4506 0 4.54736 0.0970125 4.54736 0.194025 C4.54736 0.291038 4.4506 0.291038 4.2571 0.38805 C4.06359 0.485063 3.96684 0.582075 3.96684 0.7761 C3.96684 1.06714 4.06359 1.26116 4.2571 1.64921 C4.64411 2.23129 7.83693 7.85801 8.22394 8.44009 C8.61095 7.56698 11.32 2.81336 11.8038 2.13428 C12.094 1.64921 12.1908 1.35818 12.1908 1.06714 C12.1908 0.7761 12.094 0.485063 11.8038 0.485063 C11.6103 0.38805 11.5135 0.38805 11.5135 0.291038 C11.5135 0.194025 11.6103 0.194025 11.9005 0.194025 C12.481 0.194025 13.1583 0.291038 13.3518 0.291038 C13.4486 0.291038 14.9966 0.194025 15.4804 0.194025 C15.1901 1.42109e-14 15.3836 0.0970125 15.3836 0.194025 Z" transform="translate(96.0941, 85.9114)"/>
    <path style="fill:#94561b; fill-rule:nonzero;stroke:none;" d="M21.3822 16.3951 C21.3822 16.4921 21.1887 16.5891 20.8985 16.5891 C20.4147 16.5891 18.0927 16.4921 17.3186 16.4921 C16.8349 16.4921 16.7381 16.3951 16.7381 16.2981 C16.7381 16.2011 16.7381 16.2011 16.9316 16.1041 C17.0284 16.1041 17.0284 15.9101 17.0284 15.716 C17.0284 15.619 17.0284 15.328 17.0284 15.134 L16.0609 4.26855 L15.9641 4.26855 L10.6427 15.716 C10.2557 16.4921 10.2557 16.5891 10.0622 16.5891 C9.96548 16.5891 9.77198 16.3951 9.48172 15.716 L4.06359 4.46258 L3.96684 4.46258 L3.19282 13.9698 C3.19282 14.5519 3.09607 15.134 3.09607 15.619 C3.09607 15.9101 3.28958 16.2011 3.67658 16.2981 C4.06359 16.3951 4.35385 16.3951 4.4506 16.3951 C4.54736 16.3951 4.64411 16.3951 4.64411 16.4921 C4.64411 16.6862 4.54736 16.6862 4.2571 16.6862 C3.48308 16.6862 2.41881 16.5891 2.2253 16.5891 C2.0318 16.5891 0.967522 16.6862 0.387009 16.6862 C0.193504 16.6862 0 16.6862 0 16.4921 C0 16.3951 0.0967522 16.3951 0.193504 16.3951 C0.387009 16.3951 0.483761 16.3951 0.87077 16.2981 C1.54804 16.2011 1.64479 15.425 1.74154 14.5519 L3.28958 0.485063 C3.28958 0.291038 3.38633 0.0970125 3.48308 0.0970125 C3.57983 0.0970125 3.67658 0.194025 3.77334 0.38805 L10.3525 13.9698 L16.6414 0.38805 C16.7381 0.194025 16.8349 0 16.9316 0 C17.1251 0 17.1251 0.194025 17.2219 0.582075 L18.6732 13.8728 C18.7699 14.6489 18.8667 15.813 19.8342 16.2011 C20.4147 16.3951 20.9952 16.3951 21.1887 16.3951 C21.3822 16.2981 21.3822 16.2981 21.3822 16.3951 Z" transform="translate(110.8, 85.7174)"/>
    <path style="fill:#94561b; fill-rule:nonzero;stroke:none;" d="M8.90121 5.04465 C8.90121 4.36556 8.80445 2.91038 7.74018 1.74623 C6.57915 0.582075 5.32137 0.679088 4.83761 0.679088 C4.4506 0.679088 4.06359 0.679088 3.87009 0.7761 C3.77334 0.7761 3.67658 0.970125 3.67658 1.16415 L3.67658 10.0893 C3.67658 12.1266 3.67658 13.8728 3.77334 14.7459 C3.87009 15.328 3.96684 15.813 4.64411 15.9101 C4.93436 15.9101 5.41813 16.0071 5.61163 16.0071 C5.70838 16.0071 5.80513 16.1041 5.80513 16.1041 C5.80513 16.2011 5.70838 16.2981 5.41813 16.2981 C4.2571 16.2981 2.90257 16.2011 2.80581 16.2011 C2.70906 16.2011 1.35453 16.2981 0.774018 16.2981 C0.580513 16.2981 0.387009 16.2981 0.387009 16.1041 C0.387009 16.0071 0.387009 16.0071 0.580513 16.0071 C0.774018 16.0071 1.06427 16.0071 1.25778 15.9101 C1.64479 15.813 1.83829 15.328 1.83829 14.7459 C1.93504 13.8728 1.93504 12.1266 1.93504 10.0893 L1.93504 6.30581 C1.93504 2.91038 1.93504 2.3283 1.93504 1.64921 C1.93504 0.873113 1.74154 0.582075 0.967522 0.38805 C0.774018 0.38805 0.387009 0.291038 0.193504 0.291038 C0.0967522 0.291038 0 0.291038 0 0.194025 C0 0.0970125 0.0967522 0 0.387009 0 C1.35453 0 2.61231 0.0970125 2.80581 0.0970125 C3.28958 0.0970125 4.54736 0 5.51488 0 C8.22394 0 9.19146 0.873113 9.48172 1.26116 C9.96548 1.74623 10.546 2.71635 10.546 3.8805 C10.546 6.9849 8.32069 9.02216 5.22462 9.02216 C5.12787 9.02216 4.83761 9.02216 4.74086 9.02216 C4.64411 9.02216 4.54736 9.02216 4.54736 8.82814 C4.54736 8.63411 4.64411 8.63411 5.12787 8.63411 C7.35317 8.5371 8.90121 6.9849 8.90121 5.04465 Z" transform="translate(133.634, 86.0084)"/>
    <path style="fill:#94561b; fill-rule:nonzero;stroke:none;" d="M16.1576 0.38805 C16.1576 0.485063 16.0609 0.485063 15.9641 0.485063 C15.7706 0.485063 15.6739 0.485063 15.3836 0.582075 C14.8031 0.679088 14.6096 1.06714 14.6096 1.84324 C14.6096 2.52233 14.6096 3.1044 14.6096 6.49984 L14.6096 8.82814 C14.6096 11.1564 14.3193 13.7758 12.6745 15.328 C11.1265 16.6862 9.48172 16.8802 8.22394 16.8802 C7.44992 16.8802 5.32137 16.7832 3.77334 15.328 C2.70906 14.3579 1.93504 12.8057 1.93504 9.60424 L1.93504 6.40283 C1.93504 3.00739 1.93504 2.42531 1.93504 1.74623 C1.93504 0.970125 1.74154 0.679088 0.967522 0.485063 C0.774018 0.485063 0.387009 0.38805 0.193504 0.38805 C0.0967522 0.38805 0 0.38805 0 0.291038 C0 0.194025 0.0967522 0.0970125 0.387009 0.0970125 C1.35453 0.0970125 2.70906 0.194025 2.80581 0.194025 C2.99932 0.194025 4.2571 0.0970125 4.93436 0.0970125 C5.12787 0.0970125 5.32137 0.0970125 5.32137 0.291038 C5.32137 0.38805 5.22462 0.38805 5.12787 0.38805 C4.93436 0.38805 4.83761 0.38805 4.54736 0.485063 C3.96684 0.582075 3.77334 0.970125 3.77334 1.74623 C3.77334 2.42531 3.77334 3.00739 3.77334 6.40283 L3.77334 9.41021 C3.77334 12.5146 4.4506 13.8728 5.41813 14.7459 C6.4824 15.716 7.44992 15.9101 8.61095 15.9101 C9.96548 15.9101 11.2233 15.328 11.9973 14.3579 C12.9648 13.0967 13.2551 11.2535 13.2551 9.02216 L13.2551 6.30581 C13.2551 2.91038 13.2551 2.3283 13.2551 1.64921 C13.2551 0.873113 13.0616 0.582075 12.3843 0.38805 C12.1908 0.38805 11.8038 0.291038 11.6103 0.291038 C11.5135 0.291038 11.4168 0.291038 11.4168 0.194025 C11.4168 0.0970125 11.5135 0 11.8038 0 C12.7713 0 13.9323 0.0970125 14.1258 0.0970125 C14.3193 0.0970125 15.2869 0 15.9641 0 C16.0609 0.194025 16.1576 0.291038 16.1576 0.38805 Z" transform="translate(145.922, 85.4263)"/>
    <path style="fill:#94561b; fill-rule:nonzero;stroke:none;" d="M8.22394 12.5146 C8.22394 14.9399 6.4824 16.9772 3.19282 16.9772 C2.2253 16.9772 1.16103 16.7832 0.290257 16.3951 C0 16.2011 0 16.2011 0 15.619 C0 14.5519 0.0967522 13.6788 0.0967522 13.2907 C0.0967522 13.0967 0.193504 12.9027 0.290257 12.9027 C0.387009 12.9027 0.483761 12.9997 0.483761 13.0967 C0.483761 13.2907 0.483761 13.5818 0.580513 13.8728 C0.87077 15.425 2.32205 16.1041 3.77334 16.1041 C5.80513 16.1041 6.86941 14.6489 6.86941 13.1937 C6.86941 11.7385 6.2889 10.8654 4.4506 9.3132 L3.48308 8.5371 C1.25778 6.69386 0.677266 5.33569 0.677266 3.8805 C0.677266 1.5522 2.41881 0 5.12787 0 C5.99864 0 6.57915 0.0970125 7.15967 0.194025 C7.54667 0.291038 7.74018 0.291038 7.93368 0.291038 C8.12719 0.291038 8.12719 0.291038 8.12719 0.485063 C8.12719 0.582075 8.03044 1.26116 8.03044 2.81336 C8.03044 3.20141 8.03044 3.29843 7.83693 3.29843 C7.74018 3.29843 7.64343 3.20141 7.64343 3.00739 C7.64343 2.71635 7.44992 2.13428 7.35317 1.94025 C7.25642 1.74623 6.6759 0.7761 4.64411 0.7761 C3.19282 0.7761 2.0318 1.74623 2.0318 3.29843 C2.0318 4.55959 2.61231 5.23868 4.64411 6.88789 L5.90189 7.85801 C7.35317 9.3132 8.22394 10.7684 8.22394 12.5146 Z" transform="translate(163.434, 85.2323)"/>
    <path style="fill:#94561b; fill-rule:nonzero;stroke:none;" d="M31.3477 28.7157 C31.0575 28.8127 30.864 28.9097 30.864 28.9097 C30.7672 28.9097 30.7672 28.7157 30.5737 28.4247 C30.2834 27.9396 30.1867 27.3575 29.9932 26.8725 C29.0257 25.0292 27.4776 23.6711 25.9296 22.4099 C25.3491 21.9248 24.9621 22.2159 24.1881 22.4099 C17.7057 24.2531 14.0291 27.7456 8.22394 28.4247 C5.61163 28.7157 2.99932 28.6187 0 27.6486 C0.967522 26.6784 2.70906 25.2233 3.67658 24.7382 C8.7077 21.8278 13.2551 23.574 22.5433 21.1487 C13.1583 25.4173 7.15967 22.5069 2.51556 26.9695 C10.6427 28.4247 15.7706 24.9322 25.0588 21.3428 C25.0588 21.2457 24.5751 20.9547 23.801 20.4696 L23.414 20.3726 C22.1563 19.6935 20.9952 19.1115 19.8342 18.5294 C18.8667 18.0443 17.8992 17.5593 17.0284 16.9772 C11.4168 13.7758 7.15967 9.70125 4.54736 0 C11.2233 7.66399 24.8653 11.7385 30.0899 23.9621 C24.9621 15.0369 16.6414 12.1266 6.86941 3.39544 C8.5142 8.34308 11.2233 11.2535 15.0933 13.9698 C17.5122 15.619 20.0277 17.1712 22.5433 18.6264 C23.9946 19.3055 25.2523 20.0816 26.3166 20.8577 C26.5101 20.9547 26.6069 21.0517 26.8004 21.1487 L26.7036 21.1487 C29.3159 23.186 30.7672 25.1262 31.0575 25.5143 C31.5412 25.9994 32.6055 27.5516 32.8958 28.2306 C32.799 29.0067 32.025 28.4247 31.3477 28.7157 Z" transform="translate(115.251, 105.217)"/>
    <path style="fill:#94561b; fill-rule:nonzero;stroke:none;" d="M4.74086 19.4025 C12.2875 22.2159 16.9316 25.5143 23.5108 27.1635 C15.5771 26.2904 10.7395 22.895 0 19.1115 C1.93504 18.2384 5.51488 17.7533 7.25642 17.9473 C11.8038 18.4324 16.0609 19.8876 20.1245 21.9248 C20.6082 22.1189 21.092 22.4099 21.6725 22.5069 C16.9316 14.6489 9.48172 11.6415 2.70906 3.1044 C2.90257 5.4327 3.77334 7.17893 4.93436 8.82814 C7.44992 12.5146 16.8349 19.0145 16.8349 19.2085 C14.4161 17.7533 11.8038 16.4921 9.48172 14.8429 C4.83761 11.4475 1.25778 9.21619 0.290257 0 C3.87009 1.35818 7.25642 6.2088 9.77198 8.63411 C11.8038 10.5744 14.8031 13.1937 16.5446 15.0369 C14.0291 8.92515 10.2557 6.30581 8.90121 3.29843 C18.3829 3.49245 24.8653 14.9399 24.6718 21.5368 C23.2205 14.6489 18.3829 7.56698 13.0616 6.79088 C17.4154 11.1564 19.7375 18.8204 23.8978 23.8651 C24.6718 24.8352 26.8004 26.5814 35.1211 29.1038 C30.7672 28.5217 26.2199 26.9695 22.5433 24.6412 C16.8349 20.8577 11.1265 19.4995 4.74086 19.4025 Z" transform="translate(29.9156, 86.5905)"/>
    <path style="fill:#94561b; fill-rule:nonzero;stroke:none;" d="M46.1508 9.21619 C40.3457 9.60424 38.4106 8.14905 32.9925 9.79826 C25.9296 11.8355 17.4154 18.5294 11.4168 19.5965 C19.2537 19.3055 26.2199 16.3951 33.2828 11.0594 C26.8971 17.8503 14.8998 22.4099 6.57915 20.4696 C9.57847 18.3354 14.8031 18.2384 20.8017 13.8728 C17.9959 14.5519 13.6421 15.231 10.546 15.9101 C6.77266 16.6862 4.16035 18.7234 0 17.8503 C6.38565 9.70125 9.19146 10.4774 15.5771 9.99229 C18.7699 9.79826 20.4147 9.89528 23.6075 9.99229 C23.6075 10.1863 12.481 10.1863 7.93368 12.2236 C5.90189 13.0967 3.87009 14.9399 2.2253 16.9772 C17.1251 12.9997 20.9952 14.3579 30.1867 9.70125 C29.6062 9.50723 28.9289 9.41021 28.3484 9.41021 C23.2205 8.92515 18.3829 7.66399 13.7388 5.4327 C11.9005 4.55959 8.80445 1.94025 7.44992 0 C21.1887 4.85063 24.5751 2.3283 34.8308 7.37295 C26.8971 5.33569 15.6739 4.17154 10.4492 1.84324 C14.2226 5.72374 24.4783 8.82814 32.025 8.44009 C38.7976 7.761 41.5067 8.34308 46.1508 9.21619 Z" transform="translate(64.0691, 109.873)"/>
    <path style="fill:#94561b; fill-rule:nonzero;stroke:none;" d="M3.87009 2.91038 C10.4492 10.8654 15.0933 11.0594 17.9959 18.6264 C15.3836 8.44009 6.77266 6.69386 2.51556 0 C2.0318 11.0594 8.5142 13.5818 14.8031 18.1413 C14.2226 18.1413 9.38497 18.4324 8.99796 18.0443 C7.93368 16.8802 5.80513 17.3652 4.93436 17.6563 C3.19282 18.2384 0 20.8577 0.774018 22.6039 C1.74154 24.8352 5.22462 24.2531 6.86941 23.8651 C9.28821 23.186 11.4168 21.5368 9.67522 19.1115 C12.6745 18.8204 15.1901 18.9174 17.1251 19.2085 C14.4161 16.8802 11.5135 14.6489 8.90121 12.2236 C6.2889 9.60424 4.54736 6.9849 3.87009 2.91038 Z M6.09539 22.7979 C5.12787 22.992 3.19282 22.895 2.80581 22.6039 C1.93504 22.1189 4.64411 20.8577 5.61163 20.6637 C6.6759 20.3726 7.54667 20.6637 7.74018 21.2457 C7.83693 21.9248 7.15967 22.6039 6.09539 22.7979 " transform="translate(54.2971, 99.0081)"/>
    <path style="fill:#94561b; fill-rule:nonzero;stroke:none;" d="M2.2253 23.38 C4.16035 19.3055 6.38565 17.1712 9.96548 15.328 C13.5453 13.4847 17.8024 12.3206 21.3822 10.6714 C19.1569 10.3803 16.4479 9.79826 13.3518 8.5371 C15.8674 6.49984 14.1258 4.07453 11.8038 2.61934 C10.159 1.64921 6.57915 0 4.93436 2.03726 C3.67658 3.58946 6.19214 7.46996 7.93368 8.5371 C8.80445 9.11918 10.8363 10.2833 12.3843 9.41021 C12.868 9.11918 17.8992 10.9624 18.5764 11.0594 C10.546 13.9698 2.90257 14.6489 0 26.5814 C9.86873 17.7533 20.5115 17.7533 22.0595 11.4475 C16.6414 18.6264 9.09471 16.3951 2.2253 23.38 Z M10.0622 7.08191 C9.67522 7.56698 8.61095 7.37295 7.74018 6.59685 C6.86941 5.82075 5.80513 4.07453 5.70838 3.49245 C5.61163 2.42531 8.41744 4.07453 9.28821 4.85063 C10.159 5.52971 10.546 6.59685 10.0622 7.08191 " transform="translate(96.5779, 107.448)"/>
    <path style="fill:#94561b; fill-rule:nonzero;stroke:none;" d="M19.0602 3.58946 C18.0927 3.1044 17.1251 2.61934 16.2544 2.03726 C14.2226 1.64921 11.9005 1.5522 9.38497 1.74623 L9.19146 1.26116 C8.22394 0 6.09539 0.291038 5.22462 0.485063 C3.48308 0.873113 0 3.1044 0.483761 4.94764 C1.16103 7.27594 4.74086 7.08191 6.38565 6.88789 C8.80445 6.49984 11.0298 5.14166 9.77198 2.71635 C13.2551 1.94025 16.4479 2.61934 19.0602 3.58946 Z M5.61163 5.72374 C4.64411 5.91776 2.70906 5.72374 2.32205 5.33569 C1.54804 4.75361 4.2571 3.78349 5.32137 3.58946 C6.38565 3.39544 7.25642 3.68648 7.35317 4.36556 C7.44992 4.94764 6.6759 5.62673 5.61163 5.72374 " transform="translate(115.928, 120.06)"/>
   </g>
   <path style="fill:#ffffff; fill-rule:evenodd;stroke:#94561b; stroke-width:1.09768; stroke-linecap:butt; stroke-linejoin:miter; stroke-dasharray:none;" d="M25.3699 25.9923 C25.3699 27.8561 25.0183 29.5016 24.3149 30.9288 C23.6116 32.356 22.6655 33.5314 21.4765 34.4549 C20.0699 35.5631 18.5627 36.348 16.9551 36.8098 C15.3475 37.2715 13.2711 37.5024 10.7257 37.5024 L0 37.5024 L0 0 L9.9219 0 C12.5845 0 14.5814 0.0881521 15.9127 0.264456 C17.244 0.44076 18.5209 0.856334 19.7433 1.51118 C21.083 2.23319 22.0626 3.17767 22.6822 4.34464 C23.3018 5.5116 23.6116 6.88426 23.6116 8.4626 C23.6116 10.2256 23.1469 11.804 22.2175 13.1976 C21.2881 14.5913 20.0029 15.6827 18.3618 16.4718 L18.3618 16.6733 C20.589 17.2778 22.3138 18.3818 23.5363 19.9853 C24.7587 21.5889 25.3699 23.5912 25.3699 25.9923 Z M18.4371 9.16782 C18.4371 8.26111 18.2864 7.47614 17.985 6.8129 C17.6836 6.14966 17.198 5.62494 16.5281 5.23875 C15.7243 4.7854 14.8284 4.50835 13.8404 4.4076 C12.8524 4.30686 11.4876 4.25649 9.74607 4.25649 L4.97351 4.25649 L4.97351 15.2377 L10.6252 15.2377 C12.1826 15.2377 13.3297 15.158 14.0665 14.9984 C14.8033 14.8389 15.5652 14.5073 16.3523 14.0036 C17.1059 13.5167 17.6417 12.8786 17.9599 12.0894 C18.2781 11.3003 18.4371 10.3264 18.4371 9.16782 Z M20.1955 26.1938 C20.1955 24.7833 19.9945 23.6206 19.5926 22.7055 C19.1907 21.7904 18.3785 21.0138 17.1561 20.3757 C16.369 19.9559 15.5108 19.6873 14.5814 19.5698 C13.652 19.4522 12.3333 19.3935 10.6252 19.3935 L4.97351 19.3935 L4.97351 33.2459 L9.01762 33.2459 C11.1946 33.2459 12.911 33.1452 14.167 32.9437 C15.4229 32.7422 16.5281 32.314 17.4826 31.6592 C18.4204 31.0043 19.107 30.2613 19.5424 29.4302 C19.9778 28.5991 20.1955 27.5202 20.1955 26.1938 Z" transform="translate(168.128, 111.075)"/>
  </g>
 </g>
</svg>
