<?xml version="1.0" encoding="UTF-8"?>
<svg width="200pt" version="1.1" xmlns="http://www.w3.org/2000/svg" height="200pt" viewBox="0 0 200 200" xmlns:xlink="http://www.w3.org/1999/xlink">
 <defs>
  <clipPath id="Clip0">
   <path d="M0 0 L198.922 0 L198.922 97 L0 97 L0 0 Z" transform="translate(0.515378, 55.1411)"/>
  </clipPath>
  <clipPath id="Clip1">
   <path d="M0 0 L141.475 0 L141.475 63.2522 L0 63.2522 L0 0 Z" transform="translate(29.8603, 69.9715)"/>
  </clipPath>
 </defs>
 <g id="Background">
  <g id="Olympus" clip-path="url(#Clip0)">
   <path style="fill:#231f20; fill-rule:nonzero; fill-opacity:0.23;stroke:none;" d="M196.907 9.11918 C196.907 35.0215 152.677 56.0732 98.0187 56.0732 C47.8988 56.0732 6.4702 38.417 0 15.425 C8.88446 36.9618 48.9611 53.2599 97.053 53.2599 C151.615 53.2599 195.941 32.2082 195.941 6.30581 C195.941 4.17154 195.651 2.13428 195.072 0 C196.327 3.00739 196.907 6.01478 196.907 9.11918 Z" transform="translate(2.53089, 96.0678)"/>
   <path style="fill:#f3e8d0; fill-rule:evenodd;stroke:#603712; stroke-width:0.362193; stroke-linecap:butt; stroke-linejoin:miter; stroke-dasharray:none;" d="M197.776 46.9541 C197.776 72.887 153.504 93.9081 98.8879 93.9081 C44.2736 93.9081 0 72.887 0 46.9541 C0 21.022 44.2736 0 98.8879 0 C153.504 0 197.776 21.022 197.776 46.9541 Z" transform="translate(0.696061, 55.3226)"/>
   <g id="Group1" clip-path="url(#Clip1)">
    <path style="fill:#94561b; fill-rule:nonzero;stroke:none;" d="M3.76624 3.39544 L3.76624 3.39544 C3.66967 3.49245 3.5731 3.58946 3.37996 3.68648 C3.28339 3.78349 3.18682 3.78349 2.99368 3.78349 C2.89711 3.78349 2.80054 3.78349 2.60739 3.8805 C2.51082 3.8805 2.31768 3.8805 2.22111 3.8805 C1.9314 3.8805 1.64169 3.8805 1.35198 3.78349 C1.06227 3.68648 0.869132 3.58946 0.675991 3.39544 C0.482851 3.20141 0.289711 3.00739 0.19314 2.81336 C0.0965702 2.52233 0 2.23129 0 1.94025 C0 1.64921 0.0965702 1.35818 0.19314 1.06714 C0.289711 0.7761 0.482851 0.582075 0.675991 0.485063 C0.869132 0.291038 1.06227 0.194025 1.35198 0.0970125 C1.64169 0 1.9314 0 2.22111 0 C2.31768 0 2.51082 0 2.60739 0 C2.70397 0 2.80054 0 2.99368 0.0970125 C3.09025 0.0970125 3.18682 0.194025 3.28339 0.194025 C3.37996 0.194025 3.47653 0.291038 3.5731 0.38805 L3.5731 0.38805 L3.5731 0.485063 C3.5731 0.582075 3.5731 0.582075 3.5731 0.679088 C3.5731 0.7761 3.5731 0.7761 3.5731 0.873113 L3.5731 0.970125 L3.5731 0.970125 L3.47653 0.970125 C3.37996 0.7761 3.18682 0.679088 2.99368 0.485063 C2.80054 0.38805 2.60739 0.291038 2.31768 0.291038 C2.12454 0.291038 1.83483 0.291038 1.64169 0.38805 C1.44855 0.485063 1.25541 0.582075 1.06227 0.679088 C0.869132 0.7761 0.772561 0.970125 0.675991 1.26116 C0.579421 1.45519 0.482851 1.74623 0.482851 2.03726 C0.482851 2.23129 0.482851 2.52233 0.579421 2.71635 C0.675991 2.91038 0.772561 3.1044 0.965702 3.29843 C1.06227 3.39544 1.25541 3.58946 1.35198 3.58946 C1.54512 3.68648 1.64169 3.68648 1.83483 3.78349 C2.02797 3.78349 2.22111 3.78349 2.31768 3.78349 C2.51082 3.78349 2.70397 3.68648 2.80054 3.58946 C2.89711 3.49245 2.99368 3.49245 3.09025 3.39544 C3.18682 3.29843 3.28339 3.20141 3.37996 3.1044 L3.37996 3.1044 C3.37996 3.20141 3.37996 3.29843 3.37996 3.39544 C3.76624 3.20141 3.76624 3.29843 3.76624 3.39544 Z" transform="translate(127.976, 105.187)"/>
    <path style="fill:#94561b; fill-rule:nonzero;stroke:none;" d="M1.06227 3.68648 L1.06227 3.68648 C0.675991 3.68648 0.289711 3.68648 0 3.78349 L0 3.78349 C0.0965702 3.78349 0.19314 3.68648 0.19314 3.68648 C0.289711 3.58946 0.289711 3.49245 0.289711 3.49245 L0.289711 0.38805 C0.289711 0.291038 0.289711 0.194025 0.19314 0.194025 C0.0965702 0.0970125 0.0965702 0.0970125 0 0.0970125 L0 0 L0 0 C0.19314 0 0.386281 0 0.579421 0 C0.772561 0 0.965702 0 1.15884 0 L1.15884 0 C1.06227 0 0.965702 0.0970125 0.965702 0.0970125 C0.869132 0.194025 0.869132 0.291038 0.869132 0.291038 L0.869132 3.39544 C0.869132 3.49245 0.869132 3.58946 0.965702 3.58946 C0.965702 3.58946 0.965702 3.58946 1.06227 3.68648 Z" transform="translate(132.708, 105.284)"/>
    <path style="fill:#94561b; fill-rule:nonzero;stroke:none;" d="M3.37996 0.0970125 C3.37996 0.194025 3.37996 0.291038 3.37996 0.38805 C3.37996 0.485063 3.37996 0.582075 3.37996 0.679088 L3.37996 0.679088 L3.37996 0.582075 L3.37996 0.485063 L3.37996 0.38805 C3.37996 0.38805 3.37996 0.38805 3.28339 0.38805 C3.09025 0.38805 2.89711 0.38805 2.80054 0.38805 C2.60739 0.38805 2.41425 0.38805 2.31768 0.38805 C2.31768 0.7761 2.31768 1.16415 2.31768 1.45519 C2.31768 1.84324 2.31768 2.23129 2.31768 2.52233 L2.31768 3.00739 C2.31768 3.20141 2.31768 3.39544 2.31768 3.49245 C2.31768 3.58946 2.31768 3.68648 2.41425 3.78349 C2.51082 3.8805 2.51082 3.8805 2.60739 3.8805 L2.60739 3.8805 L1.64169 3.8805 C1.54512 3.8805 1.54512 3.8805 1.44855 3.8805 L1.44855 3.8805 C1.54512 3.8805 1.64169 3.8805 1.64169 3.78349 C1.73826 3.68648 1.73826 3.58946 1.73826 3.58946 L1.73826 1.94025 C1.73826 1.35818 1.73826 0.873113 1.73826 0.291038 C1.35198 0.291038 1.06227 0.291038 0.675991 0.291038 C0.579421 0.291038 0.482851 0.291038 0.386281 0.291038 C0.289711 0.291038 0.19314 0.38805 0.0965702 0.485063 L0.0965702 0.485063 L0 0.485063 L0 0.38805 C0.0965702 0.291038 0.0965702 0.291038 0.19314 0.194025 C0.289711 0.0970125 0.289711 0.0970125 0.386281 0 L0.386281 0 C1.06227 0 1.73826 0 2.51082 0 C2.70397 0 2.89711 0 2.99368 0 C2.99368 0.0970125 3.18682 0 3.37996 0.0970125 C3.37996 0 3.37996 0 3.37996 0.0970125 L3.37996 0.0970125 Z" transform="translate(135.025, 104.993)"/>
    <path style="fill:#94561b; fill-rule:nonzero;stroke:none;" d="M3.86281 0 L3.86281 0 C3.76624 0.0970125 3.66967 0.0970125 3.5731 0.194025 C3.47653 0.194025 3.37996 0.291038 3.37996 0.38805 C3.18682 0.679088 2.99368 0.970125 2.80054 1.26116 C2.60739 1.5522 2.41425 1.84324 2.22111 2.13428 C2.22111 2.42531 2.22111 2.61934 2.22111 2.91038 C2.22111 3.20141 2.22111 3.39544 2.22111 3.68648 C2.22111 3.78349 2.22111 3.8805 2.31768 3.8805 C2.41425 3.97751 2.41425 3.97751 2.51082 3.97751 L2.51082 3.97751 L2.51082 4.07453 L2.51082 4.07453 C2.41425 4.07453 2.22111 4.07453 2.12454 4.07453 C2.02797 4.07453 1.83483 4.07453 1.73826 4.07453 C1.64169 4.07453 1.64169 4.07453 1.54512 4.07453 C1.44855 4.07453 1.44855 4.07453 1.35198 4.07453 L1.35198 4.07453 C1.44855 4.07453 1.54512 4.07453 1.54512 3.97751 C1.64169 3.8805 1.64169 3.78349 1.64169 3.78349 L1.64169 2.3283 C1.44855 2.03726 1.25541 1.74623 1.06227 1.45519 C0.869132 1.16415 0.675991 0.873113 0.482851 0.582075 C0.386281 0.485063 0.289711 0.38805 0.289711 0.38805 C0.19314 0.38805 0.0965702 0.291038 0 0.291038 L0 0.291038 C0.0965702 0.291038 0.289711 0.291038 0.386281 0.291038 L0.772561 0.291038 C0.772561 0.291038 0.869132 0.291038 0.965702 0.291038 C1.06227 0.291038 1.06227 0.291038 1.15884 0.291038 L1.15884 0.291038 L1.06227 0.291038 L1.06227 0.38805 C1.06227 0.38805 1.06227 0.38805 1.06227 0.485063 C1.06227 0.485063 1.06227 0.485063 1.06227 0.582075 C1.06227 0.679088 1.15884 0.7761 1.25541 0.7761 C1.35198 0.873113 1.35198 0.970125 1.44855 0.970125 C1.54512 1.16415 1.64169 1.26116 1.73826 1.45519 C1.83483 1.64921 1.9314 1.74623 2.02797 1.94025 C2.22111 1.64921 2.41425 1.45519 2.51082 1.16415 C2.70397 0.873113 2.89711 0.679088 2.99368 0.38805 L2.99368 0.291038 L2.99368 0.194025 L2.99368 0.194025 L2.99368 0.0970125 L2.99368 0.0970125 C3.18682 0.0970125 3.28339 0.0970125 3.47653 0.0970125 C3.5731 0 3.76624 0 3.86281 0 Z" transform="translate(138.888, 105.09)"/>
    <path style="fill:#94561b; fill-rule:nonzero;stroke:none;" d="M3.95938 2.23129 L3.95938 2.23129 C3.86281 2.3283 3.76624 2.3283 3.76624 2.42531 C3.66967 2.52233 3.66967 2.61934 3.66967 2.61934 C3.66967 2.81336 3.66967 2.91038 3.66967 3.1044 C3.66967 3.29843 3.66967 3.39544 3.66967 3.58946 L3.5731 3.68648 C3.47653 3.68648 3.47653 3.78349 3.37996 3.78349 C3.28339 3.78349 3.28339 3.8805 3.18682 3.8805 C3.09025 3.8805 3.09025 3.8805 2.99368 3.97751 C2.89711 3.97751 2.70397 4.07453 2.60739 4.07453 C2.51082 4.07453 2.31768 4.07453 2.22111 4.07453 C1.9314 4.07453 1.64169 4.07453 1.35198 3.97751 C1.06227 3.8805 0.869132 3.78349 0.675991 3.58946 C0.482851 3.39544 0.289711 3.20141 0.19314 2.91038 C0.0965702 2.61934 0 2.3283 0 2.03726 C0 1.74623 0.0965702 1.45519 0.19314 1.16415 C0.289711 0.873113 0.482851 0.679088 0.675991 0.485063 C0.869132 0.291038 1.06227 0.194025 1.35198 0.0970125 C1.64169 0 1.9314 0 2.22111 0 C2.31768 0 2.51082 0 2.60739 0 C2.70397 0 2.89711 0 2.99368 0.0970125 C2.99368 0.0970125 3.09025 0.0970125 3.18682 0.0970125 C3.28339 0.0970125 3.28339 0.0970125 3.37996 0.194025 C3.47653 0.194025 3.47653 0.291038 3.5731 0.291038 C3.66967 0.291038 3.66967 0.38805 3.66967 0.38805 L3.66967 0.38805 L3.66967 0.485063 C3.66967 0.485063 3.66967 0.582075 3.66967 0.679088 L3.66967 0.7761 L3.66967 0.873113 L3.66967 0.873113 L3.5731 0.873113 C3.47653 0.679088 3.28339 0.485063 3.09025 0.38805 C2.89711 0.291038 2.70397 0.194025 2.41425 0.194025 C2.22111 0.194025 1.9314 0.194025 1.73826 0.291038 C1.54512 0.38805 1.35198 0.485063 1.15884 0.582075 C0.965702 0.679088 0.869132 0.873113 0.772561 1.16415 C0.675991 1.35818 0.579421 1.64921 0.579421 1.94025 C0.579421 2.13428 0.579421 2.42531 0.675991 2.61934 C0.772561 2.81336 0.869132 3.00739 1.06227 3.20141 L1.06227 3.20141 C1.15884 3.29843 1.35198 3.49245 1.54512 3.58946 C1.73826 3.68648 1.9314 3.68648 2.12454 3.78349 C2.31768 3.78349 2.51082 3.78349 2.70397 3.78349 C2.89711 3.68648 3.09025 3.68648 3.18682 3.49245 C3.18682 3.39544 3.18682 3.20141 3.18682 3.1044 C3.18682 3.00739 3.18682 2.81336 3.18682 2.71635 C3.18682 2.61934 3.18682 2.52233 3.09025 2.52233 C2.99368 2.42531 2.99368 2.42531 2.89711 2.42531 L2.89711 2.42531 L2.89711 2.3283 L2.89711 2.3283 C3.09025 2.3283 3.28339 2.3283 3.47653 2.3283 C3.66967 2.23129 3.76624 2.23129 3.95938 2.23129 Z" transform="translate(145.744, 104.896)"/>
    <path style="fill:#94561b; fill-rule:nonzero;stroke:none;" d="M3.95938 3.8805 C3.86281 3.8805 3.76624 3.8805 3.66967 3.78349 C3.5731 3.68648 3.47653 3.58946 3.47653 3.49245 C3.28339 3.1044 3.09025 2.61934 2.99368 2.23129 C2.80054 1.84324 2.70397 1.35818 2.51082 0.970125 L2.22111 0.194025 L2.12454 0 C2.12454 0 2.12454 0 2.02797 0 C2.02797 0 2.02797 0 1.9314 0 C1.9314 0 1.9314 0.0970125 1.83483 0.194025 C1.83483 0.291038 1.83483 0.291038 1.73826 0.38805 L1.44855 1.16415 C1.25541 1.5522 1.15884 1.94025 0.965702 2.3283 C0.772561 2.71635 0.675991 3.1044 0.482851 3.49245 L0.482851 3.49245 C0.482851 3.58946 0.386281 3.68648 0.289711 3.78349 C0.19314 3.8805 0.0965702 3.8805 0 3.8805 L0 3.8805 L0 3.97751 C0.19314 3.97751 0.289711 3.97751 0.482851 3.97751 C0.579421 3.97751 0.772561 3.97751 0.965702 3.97751 L0.965702 3.97751 L0.965702 3.8805 L0.869132 3.8805 C0.869132 3.8805 0.869132 3.8805 0.772561 3.78349 L0.772561 3.68648 C0.772561 3.58946 0.869132 3.49245 0.869132 3.39544 C0.869132 3.29843 0.965702 3.20141 0.965702 3.1044 C0.965702 3.00739 1.06227 2.91038 1.06227 2.81336 C1.06227 2.71635 1.15884 2.61934 1.15884 2.52233 C1.15884 2.42531 1.25541 2.42531 1.25541 2.3283 L2.31768 2.3283 C2.31768 2.3283 2.31768 2.42531 2.41425 2.52233 C2.41425 2.61934 2.51082 2.71635 2.51082 2.81336 C2.51082 2.91038 2.60739 3.00739 2.60739 3.1044 C2.60739 3.20141 2.70397 3.29843 2.70397 3.39544 C2.70397 3.49245 2.80054 3.58946 2.80054 3.68648 C2.80054 3.78349 2.80054 3.78349 2.80054 3.78349 L2.80054 3.8805 C2.80054 3.8805 2.80054 3.8805 2.70397 3.8805 L2.70397 3.8805 C2.80054 3.8805 2.80054 3.8805 2.89711 3.8805 C2.99368 3.8805 2.99368 3.8805 3.09025 3.8805 C3.18682 3.8805 3.37996 3.8805 3.47653 3.8805 C3.76624 3.8805 3.86281 3.97751 3.95938 3.8805 L3.95938 3.8805 Z M1.9314 1.94025 C1.83483 1.94025 1.64169 1.94025 1.54512 1.94025 C1.64169 1.74623 1.73826 1.5522 1.73826 1.35818 C1.83483 1.16415 1.83483 0.970125 1.9314 0.7761 L2.31768 1.84324 L1.9314 1.84324 L1.9314 1.94025 Z" transform="translate(150.283, 105.09)"/>
    <path style="fill:#94561b; fill-rule:nonzero;stroke:none;" d="M3.76624 4.36556 L3.76624 4.36556 C3.66967 4.46258 3.47653 4.36556 3.37996 4.36556 C3.28339 4.36556 3.18682 4.26855 3.09025 4.26855 C3.09025 4.26855 2.99368 4.26855 2.99368 4.17154 L2.89711 4.07453 L2.80054 3.97751 L2.70397 3.8805 C2.41425 3.58946 2.22111 3.39544 1.9314 3.1044 C1.64169 2.81336 1.44855 2.61934 1.15884 2.3283 L1.15884 2.23129 L1.15884 2.23129 C1.25541 2.23129 1.44855 2.23129 1.54512 2.13428 C1.64169 2.13428 1.73826 2.03726 1.83483 1.94025 C1.9314 1.84324 1.9314 1.74623 2.02797 1.64921 C2.02797 1.5522 2.12454 1.45519 2.12454 1.35818 C2.12454 1.26116 2.12454 1.16415 2.12454 1.06714 C2.12454 0.970125 2.02797 0.873113 1.9314 0.7761 C1.83483 0.679088 1.83483 0.679088 1.73826 0.582075 C1.64169 0.582075 1.54512 0.485063 1.44855 0.485063 C1.35198 0.485063 1.25541 0.485063 1.15884 0.485063 C1.06227 0.485063 0.965702 0.485063 0.869132 0.485063 C0.869132 0.873113 0.869132 1.26116 0.869132 1.5522 C0.869132 1.94025 0.869132 2.3283 0.869132 2.61934 C0.869132 2.81336 0.869132 3.00739 0.869132 3.1044 C0.869132 3.29843 0.869132 3.49245 0.869132 3.58946 C0.869132 3.68648 0.869132 3.78349 0.965702 3.78349 C1.06227 3.8805 1.06227 3.8805 1.15884 3.8805 L1.15884 3.8805 C0.965702 3.8805 0.772561 3.8805 0.579421 3.8805 C0.386281 3.8805 0.19314 3.8805 0 3.8805 L0 3.8805 L0.0965702 3.8805 C0.19314 3.8805 0.289711 3.8805 0.289711 3.78349 C0.386281 3.68648 0.386281 3.58946 0.386281 3.49245 C0.386281 3.20141 0.386281 2.91038 0.386281 2.71635 C0.386281 2.42531 0.386281 2.13428 0.386281 1.94025 C0.386281 1.64921 0.386281 1.45519 0.386281 1.16415 C0.386281 0.873113 0.386281 0.679088 0.386281 0.38805 C0.386281 0.291038 0.386281 0.194025 0.289711 0.0970125 C0.19314 0 0.19314 0 0.0965702 0 L0.0965702 0 C0.386281 0 0.579421 0 0.869132 0 C1.15884 0 1.35198 0 1.64169 0 C1.73826 0 1.9314 0 2.02797 0.0970125 C2.12454 0.194025 2.22111 0.194025 2.31768 0.291038 C2.41425 0.38805 2.51082 0.485063 2.51082 0.582075 C2.60739 0.679088 2.60739 0.873113 2.60739 0.970125 C2.60739 1.06714 2.60739 1.16415 2.51082 1.35818 C2.51082 1.45519 2.41425 1.5522 2.31768 1.64921 C2.22111 1.74623 2.22111 1.74623 2.12454 1.84324 C2.02797 1.94025 1.9314 1.94025 1.83483 1.94025 C2.02797 2.13428 2.22111 2.3283 2.31768 2.52233 C2.41425 2.71635 2.60739 2.81336 2.70397 2.91038 C2.80054 3.00739 2.89711 3.1044 2.99368 3.20141 C3.09025 3.29843 3.18682 3.39544 3.28339 3.49245 C3.37996 3.58946 3.47653 3.68648 3.5731 3.68648 C3.66967 3.68648 3.5731 4.26855 3.76624 4.36556 Z" transform="translate(155.401, 104.702)"/>
    <path style="fill:#94561b; fill-rule:nonzero;stroke:none;" d="M3.76624 1.06714 C3.66967 0.7761 3.47653 0.582075 3.28339 0.485063 C3.09025 0.291038 2.89711 0.194025 2.60739 0.0970125 C2.31768 0 2.02797 0 1.73826 0 C1.44855 0 1.15884 0 0.869132 0 C0.579421 0 0.289711 0 0 0 L0 0 C0.0965702 0 0.19314 0.0970125 0.289711 0.0970125 C0.386281 0.0970125 0.386281 0.194025 0.386281 0.291038 C0.386281 0.38805 0.386281 0.582075 0.386281 0.679088 C0.386281 0.7761 0.386281 0.970125 0.386281 1.06714 L0.386281 1.45519 C0.386281 1.5522 0.386281 1.74623 0.386281 1.84324 L0.386281 2.61934 C0.386281 2.91038 0.386281 3.1044 0.386281 3.39544 C0.386281 3.49245 0.386281 3.58946 0.289711 3.68648 C0.19314 3.78349 0.19314 3.78349 0.0965702 3.78349 L0.0965702 3.78349 C0.386281 3.78349 0.675991 3.78349 0.965702 3.78349 C1.25541 3.78349 1.54512 3.78349 1.83483 3.78349 C2.12454 3.78349 2.41425 3.78349 2.60739 3.68648 C2.89711 3.58946 3.09025 3.49245 3.28339 3.29843 C3.47653 3.1044 3.66967 2.91038 3.76624 2.61934 C3.86281 2.3283 3.95938 2.13428 3.95938 1.84324 C3.95938 1.5522 3.86281 1.26116 3.76624 1.06714 Z M3.37996 2.61934 C3.28339 2.81336 3.18682 3.00739 2.99368 3.20141 C2.80054 3.39544 2.70397 3.49245 2.51082 3.58946 C2.31768 3.68648 2.12454 3.68648 1.9314 3.68648 L1.35198 3.68648 C1.25541 3.68648 1.15884 3.68648 1.15884 3.58946 C1.06227 3.49245 1.06227 3.39544 1.06227 3.39544 C1.06227 3.39544 1.06227 3.29843 1.06227 3.20141 C1.06227 3.1044 1.06227 3.1044 1.06227 3.00739 C1.06227 2.91038 1.06227 2.81336 1.06227 2.61934 C1.06227 2.52233 1.06227 2.42531 1.06227 2.23129 C1.06227 1.5522 1.06227 0.873113 1.06227 0.194025 C1.25541 0.194025 1.44855 0.194025 1.64169 0.194025 C1.83483 0.194025 2.02797 0.194025 2.22111 0.194025 C2.41425 0.194025 2.60739 0.291038 2.70397 0.291038 C2.80054 0.291038 2.99368 0.485063 3.18682 0.582075 C3.37996 0.7761 3.47653 0.970125 3.5731 1.16415 C3.66967 1.35818 3.66967 1.5522 3.66967 1.84324 C3.47653 2.13428 3.37996 2.3283 3.37996 2.61934 " transform="translate(159.651, 105.09)"/>
    <path style="fill:#94561b; fill-rule:nonzero;stroke:none;" d="M2.51082 3.39544 L2.51082 3.49245 C2.51082 3.58946 2.51082 3.58946 2.51082 3.68648 C2.51082 3.78349 2.51082 3.78349 2.51082 3.8805 C2.51082 3.97751 2.51082 3.97751 2.51082 3.97751 L2.51082 3.97751 C2.12454 3.97751 1.64169 3.97751 1.25541 3.97751 C0.869132 3.97751 0.386281 3.97751 0 3.97751 L0 3.97751 C0.0965702 3.97751 0.19314 3.97751 0.19314 3.8805 C0.289711 3.78349 0.289711 3.68648 0.289711 3.58946 C0.289711 3.29843 0.289711 3.00739 0.289711 2.81336 C0.289711 2.52233 0.289711 2.23129 0.289711 2.03726 L0.289711 1.16415 C0.289711 0.873113 0.289711 0.679088 0.289711 0.38805 C0.289711 0.291038 0.289711 0.194025 0.19314 0.0970125 C0.0965702 0 0.0965702 0 0 0 L0 0 C0.289711 0 0.482851 0 0.772561 0 C1.06227 0 1.25541 0 1.54512 0 C1.64169 0 1.83483 0 1.9314 0 C2.02797 0 2.22111 0 2.31768 0 L2.31768 0 L2.31768 0.0970125 C2.31768 0.0970125 2.31768 0.194025 2.31768 0.291038 C2.31768 0.38805 2.31768 0.38805 2.31768 0.485063 L2.31768 0.582075 C2.31768 0.582075 2.31768 0.582075 2.22111 0.582075 C2.22111 0.582075 2.22111 0.582075 2.12454 0.582075 C2.12454 0.582075 2.12454 0.582075 2.12454 0.485063 L2.12454 0.38805 L2.12454 0.291038 C2.12454 0.291038 2.12454 0.291038 2.02797 0.291038 C1.9314 0.291038 1.9314 0.291038 1.83483 0.291038 C1.73826 0.291038 1.73826 0.291038 1.64169 0.291038 C1.35198 0.291038 1.06227 0.291038 0.772561 0.291038 C0.772561 0.582075 0.772561 0.7761 0.772561 1.06714 C0.772561 1.35818 0.772561 1.5522 0.772561 1.84324 L1.44855 1.84324 C1.54512 1.84324 1.54512 1.84324 1.64169 1.74623 C1.73826 1.74623 1.73826 1.64921 1.73826 1.5522 L1.73826 1.5522 L1.83483 1.5522 L1.83483 1.5522 L1.83483 2.3283 L1.83483 2.3283 L1.73826 2.3283 C1.73826 2.23129 1.64169 2.23129 1.64169 2.13428 C1.54512 2.13428 1.54512 2.03726 1.44855 2.03726 L0.772561 2.03726 C0.772561 2.3283 0.772561 2.61934 0.772561 2.81336 C0.772561 3.1044 0.772561 3.39544 0.772561 3.58946 C0.965702 3.58946 1.25541 3.58946 1.44855 3.58946 C1.64169 3.58946 1.9314 3.58946 2.12454 3.58946 C2.22111 3.58946 2.31768 3.58946 2.41425 3.49245 C2.51082 3.39544 2.60739 3.39544 2.60739 3.20141 L2.51082 3.39544 L2.51082 3.39544 Z" transform="translate(164.189, 104.993)"/>
    <path style="fill:#94561b; fill-rule:nonzero;stroke:none;" d="M3.86281 0.194025 L3.86281 0.194025 C3.76624 0.291038 3.66967 0.291038 3.5731 0.38805 C3.47653 0.485063 3.47653 0.582075 3.47653 0.679088 C3.47653 0.7761 3.47653 0.970125 3.47653 1.06714 C3.47653 1.16415 3.47653 1.35818 3.47653 1.45519 C3.47653 1.74623 3.47653 2.03726 3.47653 2.42531 C3.47653 2.71635 3.47653 3.00739 3.47653 3.39544 C3.47653 3.49245 3.47653 3.58946 3.47653 3.78349 C3.47653 3.8805 3.47653 3.97751 3.47653 4.17154 L3.47653 4.26855 L3.47653 4.36556 L3.47653 4.36556 C3.47653 4.36556 3.47653 4.36556 3.37996 4.36556 L3.28339 4.26855 C3.28339 4.17154 3.18682 4.17154 3.18682 4.07453 C3.09025 3.97751 2.99368 3.8805 2.89711 3.68648 C2.80054 3.58946 2.70397 3.49245 2.60739 3.29843 C2.31768 2.91038 2.02797 2.61934 1.64169 2.23129 C1.35198 1.84324 1.06227 1.45519 0.675991 1.16415 C0.675991 1.45519 0.675991 1.74623 0.675991 2.03726 C0.675991 2.3283 0.675991 2.61934 0.675991 2.91038 C0.675991 3.00739 0.675991 3.20141 0.675991 3.29843 C0.675991 3.49245 0.675991 3.58946 0.675991 3.68648 C0.675991 3.78349 0.675991 3.8805 0.772561 3.8805 C0.869132 3.8805 0.869132 3.97751 0.965702 3.97751 L0.965702 3.97751 L0.965702 4.07453 L0.965702 4.07453 C0.772561 4.07453 0.675991 4.07453 0.482851 4.07453 C0.289711 4.07453 0.19314 4.07453 0 4.07453 L0 4.07453 C0.0965702 4.07453 0.19314 4.07453 0.19314 3.97751 C0.289711 3.8805 0.289711 3.78349 0.289711 3.68648 C0.289711 3.58946 0.289711 3.39544 0.289711 3.29843 C0.289711 3.20141 0.289711 3.00739 0.289711 2.91038 C0.289711 2.61934 0.289711 2.3283 0.289711 1.94025 C0.289711 1.64921 0.289711 1.26116 0.289711 0.970125 C0.289711 0.873113 0.289711 0.7761 0.289711 0.582075 C0.289711 0.485063 0.289711 0.38805 0.289711 0.194025 L0.289711 0.0970125 L0.289711 0 L0.289711 0 C0.289711 0 0.289711 0 0.386281 0 L0.482851 0.0970125 C0.482851 0.194025 0.579421 0.194025 0.579421 0.291038 C0.675991 0.38805 0.772561 0.485063 0.869132 0.679088 C0.965702 0.7761 1.06227 0.873113 1.15884 1.06714 C1.44855 1.45519 1.73826 1.74623 2.12454 2.13428 C2.41425 2.52233 2.70397 2.81336 3.09025 3.20141 C3.09025 2.91038 3.09025 2.61934 3.09025 2.3283 C3.09025 2.03726 3.09025 1.74623 3.09025 1.45519 C3.09025 1.35818 3.09025 1.16415 3.09025 1.06714 C3.09025 0.970125 3.09025 0.7761 3.09025 0.679088 L3.09025 0.582075 C3.09025 0.582075 3.09025 0.485063 2.99368 0.485063 L2.89711 0.38805 L2.80054 0.38805 L2.80054 0.38805 L2.80054 0.291038 L2.80054 0.291038 C2.99368 0.291038 3.09025 0.291038 3.28339 0.291038 C3.47653 0.194025 3.66967 0.194025 3.86281 0.194025 Z" transform="translate(167.473, 104.799)"/>
    <path style="fill:#94561b; fill-rule:nonzero;stroke:none;" d="M15.5478 0 C4.63537 0 0 9.11918 0 15.619 C0 22.7979 4.5388 31.335 15.3547 31.335 C24.9151 31.335 31.0956 23.9621 31.0956 15.0369 C31.0956 5.62673 24.4323 0 15.5478 0 Z M16.3204 29.7828 C9.17417 29.7828 3.66967 23.7681 3.66967 14.4549 C3.66967 5.72374 8.59475 1.35818 15.2581 1.35818 C21.5352 1.35818 27.3294 6.49984 27.3294 16.1041 C27.2328 27.7456 19.8935 29.7828 16.3204 29.7828 " transform="translate(53.8097, 69.9715)"/>
    <path style="fill:#94561b; fill-rule:nonzero;stroke:none;" d="M10.2364 13.5818 C10.2364 13.7758 10.0433 15.134 9.94673 15.716 C9.75359 16.2011 9.75359 16.2981 8.59475 16.2981 C5.5045 16.2981 4.05595 16.2011 2.89711 16.2011 C2.70397 16.2011 1.44855 16.2981 0.772561 16.2981 C0.579421 16.2981 0.386281 16.2981 0.386281 16.1041 C0.386281 16.0071 0.386281 16.0071 0.579421 16.0071 C0.772561 16.0071 1.06227 16.0071 1.25541 15.9101 C1.64169 15.813 1.83483 15.328 1.83483 14.7459 C1.9314 13.8728 1.9314 12.1266 1.9314 10.0893 L1.9314 6.30581 C1.9314 2.91038 1.9314 2.3283 1.9314 1.64921 C1.9314 0.873113 1.73826 0.582075 0.965702 0.38805 C0.772561 0.38805 0.386281 0.291038 0.19314 0.291038 C0.0965702 0.291038 0 0.291038 0 0.194025 C0 0.0970125 0.0965702 0 0.386281 0 C1.35198 0 2.70397 0.0970125 2.80054 0.0970125 C2.89711 0.0970125 4.44223 0 5.11822 0 C5.31136 0 5.5045 0 5.5045 0.194025 C5.5045 0.291038 5.40793 0.291038 5.31136 0.291038 C5.11822 0.291038 4.82851 0.291038 4.63537 0.38805 C4.05595 0.485063 3.86281 0.873113 3.76624 1.64921 C3.76624 2.3283 3.76624 2.91038 3.76624 6.30581 L3.76624 10.1863 C3.76624 13.3877 3.86281 14.7459 4.24909 15.134 C4.63537 15.522 5.11822 15.619 6.85648 15.619 C8.01533 15.619 8.98103 15.619 9.46388 14.9399 C9.75359 14.5519 9.94673 14.0668 10.0433 13.6788 C10.0433 13.4847 10.1399 13.3877 10.2364 13.3877 C10.2364 13.1937 10.2364 13.2907 10.2364 13.5818 Z" transform="translate(86.8367, 85.0084)"/>
    <path style="fill:#94561b; fill-rule:nonzero;stroke:none;" d="M15.3547 0.194025 C15.3547 0.291038 15.2581 0.38805 15.0649 0.38805 C14.8718 0.38805 14.389 0.485063 14.0992 0.679088 C13.713 0.970125 13.4233 1.16415 12.9404 1.74623 C12.2644 2.61934 9.27074 7.66399 8.88446 8.63411 C8.59475 9.41021 8.59475 10.0893 8.59475 10.7684 L8.59475 12.6116 C8.59475 12.9997 8.59475 13.8728 8.69132 14.7459 C8.69132 15.328 8.88446 15.813 9.56045 15.9101 C9.85016 15.9101 10.333 16.0071 10.5262 16.0071 C10.6227 16.0071 10.7193 16.1041 10.7193 16.1041 C10.7193 16.2011 10.6227 16.2981 10.333 16.2981 C9.17417 16.2981 7.82218 16.2011 7.72561 16.2011 C7.62904 16.2011 6.27706 16.2981 5.60107 16.2981 C5.40793 16.2981 5.21479 16.2981 5.21479 16.1041 C5.21479 16.0071 5.21479 16.0071 5.40793 16.0071 C5.60107 16.0071 5.89078 16.0071 6.08392 15.9101 C6.4702 15.813 6.66334 15.328 6.75991 14.7459 C6.85648 13.8728 6.85648 12.9027 6.85648 12.6116 L6.85648 10.7684 C6.85648 9.60424 6.66334 9.11918 6.37363 8.5371 C6.18049 8.14905 3.37996 3.39544 2.60739 2.3283 C2.02797 1.5522 1.54512 0.970125 1.15884 0.7761 C0.869132 0.582075 0.386281 0.38805 0.19314 0.38805 C0.0965702 0.38805 0 0.38805 0 0.194025 C0 0.0970125 0.0965702 0 0.289711 0 C0.675991 0 2.31768 0.0970125 2.41425 0.0970125 C2.60739 0.0970125 3.37996 0 4.24909 0 C4.44223 0 4.5388 0.0970125 4.5388 0.194025 C4.5388 0.291038 4.44223 0.291038 4.24909 0.38805 C4.05595 0.485063 3.95938 0.582075 3.95938 0.7761 C3.95938 1.06714 4.05595 1.26116 4.24909 1.64921 C4.63537 2.23129 7.82218 7.85801 8.20847 8.44009 C8.59475 7.56698 11.2987 2.81336 11.7816 2.13428 C12.0713 1.64921 12.1678 1.35818 12.1678 1.06714 C12.1678 0.7761 12.0713 0.485063 11.7816 0.485063 C11.5884 0.38805 11.4919 0.38805 11.4919 0.291038 C11.4919 0.194025 11.5884 0.194025 11.8781 0.194025 C12.4576 0.194025 13.1335 0.291038 13.3267 0.291038 C13.4233 0.291038 14.9684 0.194025 15.4512 0.194025 C15.1615 1.42109e-14 15.3547 0.0970125 15.3547 0.194025 Z" transform="translate(95.9143, 84.9114)"/>
    <path style="fill:#94561b; fill-rule:nonzero;stroke:none;" d="M21.342 16.3951 C21.342 16.4921 21.1489 16.5891 20.8592 16.5891 C20.3763 16.5891 18.0586 16.4921 17.2861 16.4921 C16.8032 16.4921 16.7066 16.3951 16.7066 16.2981 C16.7066 16.2011 16.7066 16.2011 16.8998 16.1041 C16.9964 16.1041 16.9964 15.9101 16.9964 15.716 C16.9964 15.619 16.9964 15.328 16.9964 15.134 L16.0307 4.26855 L15.9341 4.26855 L10.6227 15.716 C10.2364 16.4921 10.2364 16.5891 10.0433 16.5891 C9.94673 16.5891 9.75359 16.3951 9.46388 15.716 L4.05595 4.46258 L3.95938 4.46258 L3.18682 13.9698 C3.18682 14.5519 3.09025 15.134 3.09025 15.619 C3.09025 15.9101 3.28339 16.2011 3.66967 16.2981 C4.05595 16.3951 4.34566 16.3951 4.44223 16.3951 C4.5388 16.3951 4.63537 16.3951 4.63537 16.4921 C4.63537 16.6862 4.5388 16.6862 4.24909 16.6862 C3.47653 16.6862 2.41425 16.5891 2.22111 16.5891 C2.02797 16.5891 0.965702 16.6862 0.386281 16.6862 C0.19314 16.6862 0 16.6862 0 16.4921 C0 16.3951 0.0965702 16.3951 0.19314 16.3951 C0.386281 16.3951 0.482851 16.3951 0.869132 16.2981 C1.54512 16.2011 1.64169 15.425 1.73826 14.5519 L3.28339 0.485063 C3.28339 0.291038 3.37996 0.0970125 3.47653 0.0970125 C3.5731 0.0970125 3.66967 0.194025 3.76624 0.38805 L10.333 13.9698 L16.6101 0.38805 C16.7066 0.194025 16.8032 0 16.8998 0 C17.0929 0 17.0929 0.194025 17.1895 0.582075 L18.638 13.8728 C18.7346 14.6489 18.8312 15.813 19.7969 16.2011 C20.3763 16.3951 20.9557 16.3951 21.1489 16.3951 C21.342 16.2981 21.342 16.2981 21.342 16.3951 Z" transform="translate(110.593, 84.7174)"/>
    <path style="fill:#94561b; fill-rule:nonzero;stroke:none;" d="M8.88446 5.04465 C8.88446 4.36556 8.78789 2.91038 7.72561 1.74623 C6.56677 0.582075 5.31136 0.679088 4.82851 0.679088 C4.44223 0.679088 4.05595 0.679088 3.86281 0.7761 C3.76624 0.7761 3.66967 0.970125 3.66967 1.16415 L3.66967 10.0893 C3.66967 12.1266 3.66967 13.8728 3.76624 14.7459 C3.86281 15.328 3.95938 15.813 4.63537 15.9101 C4.92508 15.9101 5.40793 16.0071 5.60107 16.0071 C5.69764 16.0071 5.79421 16.1041 5.79421 16.1041 C5.79421 16.2011 5.69764 16.2981 5.40793 16.2981 C4.24909 16.2981 2.89711 16.2011 2.80054 16.2011 C2.70397 16.2011 1.35198 16.2981 0.772561 16.2981 C0.579421 16.2981 0.386281 16.2981 0.386281 16.1041 C0.386281 16.0071 0.386281 16.0071 0.579421 16.0071 C0.772561 16.0071 1.06227 16.0071 1.25541 15.9101 C1.64169 15.813 1.83483 15.328 1.83483 14.7459 C1.9314 13.8728 1.9314 12.1266 1.9314 10.0893 L1.9314 6.30581 C1.9314 2.91038 1.9314 2.3283 1.9314 1.64921 C1.9314 0.873113 1.73826 0.582075 0.965702 0.38805 C0.772561 0.38805 0.386281 0.291038 0.19314 0.291038 C0.0965702 0.291038 0 0.291038 0 0.194025 C0 0.0970125 0.0965702 0 0.386281 0 C1.35198 0 2.60739 0.0970125 2.80054 0.0970125 C3.28339 0.0970125 4.5388 0 5.5045 0 C8.20847 0 9.17417 0.873113 9.46388 1.26116 C9.94673 1.74623 10.5262 2.71635 10.5262 3.8805 C10.5262 6.9849 8.30504 9.02216 5.21479 9.02216 C5.11822 9.02216 4.82851 9.02216 4.73194 9.02216 C4.63537 9.02216 4.5388 9.02216 4.5388 8.82814 C4.5388 8.63411 4.63537 8.63411 5.11822 8.63411 C7.33933 8.5371 8.88446 6.9849 8.88446 5.04465 Z" transform="translate(133.383, 85.0084)"/>
    <path style="fill:#94561b; fill-rule:nonzero;stroke:none;" d="M16.1272 0.38805 C16.1272 0.485063 16.0307 0.485063 15.9341 0.485063 C15.7409 0.485063 15.6444 0.485063 15.3547 0.582075 C14.7752 0.679088 14.5821 1.06714 14.5821 1.84324 C14.5821 2.52233 14.5821 3.1044 14.5821 6.49984 L14.5821 8.82814 C14.5821 11.1564 14.2924 13.7758 12.6507 15.328 C11.1056 16.6862 9.46388 16.8802 8.20847 16.8802 C7.4359 16.8802 5.31136 16.7832 3.76624 15.328 C2.70397 14.3579 1.9314 12.8057 1.9314 9.60424 L1.9314 6.40283 C1.9314 3.00739 1.9314 2.42531 1.9314 1.74623 C1.9314 0.970125 1.73826 0.679088 0.965702 0.485063 C0.772561 0.485063 0.386281 0.38805 0.19314 0.38805 C0.0965702 0.38805 0 0.38805 0 0.291038 C0 0.194025 0.0965702 0.0970125 0.386281 0.0970125 C1.35198 0.0970125 2.70397 0.194025 2.80054 0.194025 C2.99368 0.194025 4.24909 0.0970125 4.92508 0.0970125 C5.11822 0.0970125 5.31136 0.0970125 5.31136 0.291038 C5.31136 0.38805 5.21479 0.38805 5.11822 0.38805 C4.92508 0.38805 4.82851 0.38805 4.5388 0.485063 C3.95938 0.582075 3.76624 0.970125 3.76624 1.74623 C3.76624 2.42531 3.76624 3.00739 3.76624 6.40283 L3.76624 9.41021 C3.76624 12.5146 4.44223 13.8728 5.40793 14.7459 C6.4702 15.716 7.4359 15.9101 8.59475 15.9101 C9.94673 15.9101 11.2021 15.328 11.9747 14.3579 C12.9404 13.0967 13.2301 11.2535 13.2301 9.02216 L13.2301 6.30581 C13.2301 2.91038 13.2301 2.3283 13.2301 1.64921 C13.2301 0.873113 13.037 0.582075 12.361 0.38805 C12.1678 0.38805 11.7816 0.291038 11.5884 0.291038 C11.4919 0.291038 11.3953 0.291038 11.3953 0.194025 C11.3953 0.0970125 11.4919 0 11.7816 0 C12.7473 0 13.9061 0.0970125 14.0992 0.0970125 C14.2924 0.0970125 15.2581 0 15.9341 0 C16.0307 0.194025 16.1272 0.291038 16.1272 0.38805 Z" transform="translate(145.648, 84.4263)"/>
    <path style="fill:#94561b; fill-rule:nonzero;stroke:none;" d="M8.20847 12.5146 C8.20847 14.9399 6.4702 16.9772 3.18682 16.9772 C2.22111 16.9772 1.15884 16.7832 0.289711 16.3951 C0 16.2011 0 16.2011 0 15.619 C0 14.5519 0.0965702 13.6788 0.0965702 13.2907 C0.0965702 13.0967 0.19314 12.9027 0.289711 12.9027 C0.386281 12.9027 0.482851 12.9997 0.482851 13.0967 C0.482851 13.2907 0.482851 13.5818 0.579421 13.8728 C0.869132 15.425 2.31768 16.1041 3.76624 16.1041 C5.79421 16.1041 6.85648 14.6489 6.85648 13.1937 C6.85648 11.7385 6.27706 10.8654 4.44223 9.3132 L3.47653 8.5371 C1.25541 6.69386 0.675991 5.33569 0.675991 3.8805 C0.675991 1.5522 2.41425 0 5.11822 0 C5.98735 0 6.56677 0.0970125 7.14619 0.194025 C7.53247 0.291038 7.72561 0.291038 7.91876 0.291038 C8.1119 0.291038 8.1119 0.291038 8.1119 0.485063 C8.1119 0.582075 8.01533 1.26116 8.01533 2.81336 C8.01533 3.20141 8.01533 3.29843 7.82218 3.29843 C7.72561 3.29843 7.62904 3.20141 7.62904 3.00739 C7.62904 2.71635 7.4359 2.13428 7.33933 1.94025 C7.24276 1.74623 6.66334 0.7761 4.63537 0.7761 C3.18682 0.7761 2.02797 1.74623 2.02797 3.29843 C2.02797 4.55959 2.60739 5.23868 4.63537 6.88789 L5.89078 7.85801 C7.33933 9.3132 8.20847 10.7684 8.20847 12.5146 Z" transform="translate(163.127, 84.2323)"/>
    <path style="fill:#94561b; fill-rule:nonzero;stroke:none;" d="M31.2887 28.7157 C30.999 28.8127 30.8059 28.9097 30.8059 28.9097 C30.7093 28.9097 30.7093 28.7157 30.5162 28.4247 C30.2265 27.9396 30.1299 27.3575 29.9368 26.8725 C28.9711 25.0292 27.4259 23.6711 25.8808 22.4099 C25.3014 21.9248 24.9151 22.2159 24.1425 22.4099 C17.6723 24.2531 14.0027 27.7456 8.20847 28.4247 C5.60107 28.7157 2.99368 28.6187 0 27.6486 C0.965702 26.6784 2.70397 25.2233 3.66967 24.7382 C8.69132 21.8278 13.2301 23.574 22.5009 21.1487 C13.1335 25.4173 7.14619 22.5069 2.51082 26.9695 C10.6227 28.4247 15.7409 24.9322 25.0117 21.3428 C25.0117 21.2457 24.5288 20.9547 23.7563 20.4696 L23.37 20.3726 C22.1146 19.6935 20.9557 19.1115 19.7969 18.5294 C18.8312 18.0443 17.8655 17.5593 16.9964 16.9772 C11.3953 13.7758 7.14619 9.70125 4.5388 0 C11.2021 7.66399 24.8185 11.7385 30.0333 23.9621 C24.9151 15.0369 16.6101 12.1266 6.85648 3.39544 C8.49818 8.34308 11.2021 11.2535 15.0649 13.9698 C17.4792 15.619 19.99 17.1712 22.5009 18.6264 C23.9494 19.3055 25.2048 20.0816 26.2671 20.8577 C26.4602 20.9547 26.5568 21.0517 26.7499 21.1487 L26.6534 21.1487 C29.2608 23.186 30.7093 25.1262 30.999 25.5143 C31.4819 25.9994 32.5442 27.5516 32.8339 28.2306 C32.7373 29.0067 31.9647 28.4247 31.2887 28.7157 Z" transform="translate(115.035, 104.217)"/>
    <path style="fill:#94561b; fill-rule:nonzero;stroke:none;" d="M4.73194 19.4025 C12.2644 22.2159 16.8998 25.5143 23.4666 27.1635 C15.5478 26.2904 10.7193 22.895 0 19.1115 C1.9314 18.2384 5.5045 17.7533 7.24276 17.9473 C11.7816 18.4324 16.0307 19.8876 20.0866 21.9248 C20.5694 22.1189 21.0523 22.4099 21.6317 22.5069 C16.8998 14.6489 9.46388 11.6415 2.70397 3.1044 C2.89711 5.4327 3.76624 7.17893 4.92508 8.82814 C7.4359 12.5146 16.8032 19.0145 16.8032 19.2085 C14.389 17.7533 11.7816 16.4921 9.46388 14.8429 C4.82851 11.4475 1.25541 9.21619 0.289711 0 C3.86281 1.35818 7.24276 6.2088 9.75359 8.63411 C11.7816 10.5744 14.7752 13.1937 16.5135 15.0369 C14.0027 8.92515 10.2364 6.30581 8.88446 3.29843 C18.3483 3.49245 24.8185 14.9399 24.6254 21.5368 C23.1768 14.6489 18.3483 7.56698 13.037 6.79088 C17.3826 11.1564 19.7003 18.8204 23.8528 23.8651 C24.6254 24.8352 26.7499 26.5814 35.055 29.1038 C30.7093 28.5217 26.1705 26.9695 22.5009 24.6412 C16.8032 20.8577 11.1056 19.4995 4.73194 19.4025 Z" transform="translate(29.8603, 85.5905)"/>
    <path style="fill:#94561b; fill-rule:nonzero;stroke:none;" d="M46.064 9.21619 C40.2698 9.60424 38.3384 8.14905 32.9304 9.79826 C25.8808 11.8355 17.3826 18.5294 11.3953 19.5965 C19.2175 19.3055 26.1705 16.3951 33.2201 11.0594 C26.8465 17.8503 14.8718 22.4099 6.56677 20.4696 C9.56045 18.3354 14.7752 18.2384 20.7626 13.8728 C17.9621 14.5519 13.6164 15.231 10.5262 15.9101 C6.75991 16.6862 4.15252 18.7234 0 17.8503 C6.37363 9.70125 9.17417 10.4774 15.5478 9.99229 C18.7346 9.79826 20.3763 9.89528 23.5631 9.99229 C23.5631 10.1863 12.4576 10.1863 7.91876 12.2236 C5.89078 13.0967 3.86281 14.9399 2.22111 16.9772 C17.0929 12.9997 20.9557 14.3579 30.1299 9.70125 C29.5505 9.50723 28.8745 9.41021 28.2951 9.41021 C23.1768 8.92515 18.3483 7.66399 13.713 5.4327 C11.8781 4.55959 8.78789 1.94025 7.4359 0 C21.1489 4.85063 24.5288 2.3283 34.7653 7.37295 C26.8465 5.33569 15.6444 4.17154 10.4296 1.84324 C14.1958 5.72374 24.4323 8.82814 31.9647 8.44009 C38.7246 7.761 41.4286 8.34308 46.064 9.21619 Z" transform="translate(63.9495, 108.873)"/>
    <path style="fill:#94561b; fill-rule:nonzero;stroke:none;" d="M3.86281 2.91038 C10.4296 10.8654 15.0649 11.0594 17.9621 18.6264 C15.3547 8.44009 6.75991 6.69386 2.51082 0 C2.02797 11.0594 8.49818 13.5818 14.7752 18.1413 C14.1958 18.1413 9.36731 18.4324 8.98103 18.0443 C7.91876 16.8802 5.79421 17.3652 4.92508 17.6563 C3.18682 18.2384 0 20.8577 0.772561 22.6039 C1.73826 24.8352 5.21479 24.2531 6.85648 23.8651 C9.27074 23.186 11.3953 21.5368 9.65702 19.1115 C12.6507 18.8204 15.1615 18.9174 17.0929 19.2085 C14.389 16.8802 11.4919 14.6489 8.88446 12.2236 C6.27706 9.60424 4.5388 6.9849 3.86281 2.91038 Z M6.08392 22.7979 C5.11822 22.992 3.18682 22.895 2.80054 22.6039 C1.9314 22.1189 4.63537 20.8577 5.60107 20.6637 C6.66334 20.3726 7.53247 20.6637 7.72561 21.2457 C7.82218 21.9248 7.14619 22.6039 6.08392 22.7979 " transform="translate(54.1959, 98.0081)"/>
    <path style="fill:#94561b; fill-rule:nonzero;stroke:none;" d="M2.22111 23.38 C4.15252 19.3055 6.37363 17.1712 9.94673 15.328 C13.5198 13.4847 17.7689 12.3206 21.342 10.6714 C19.1209 10.3803 16.4169 9.79826 13.3267 8.5371 C15.8375 6.49984 14.0992 4.07453 11.7816 2.61934 C10.1399 1.64921 6.56677 0 4.92508 2.03726 C3.66967 3.58946 6.18049 7.46996 7.91876 8.5371 C8.78789 9.11918 10.8159 10.2833 12.361 9.41021 C12.8438 9.11918 17.8655 10.9624 18.5415 11.0594 C10.5262 13.9698 2.89711 14.6489 0 26.5814 C9.85016 17.7533 20.4729 17.7533 22.018 11.4475 C16.6101 18.6264 9.0776 16.3951 2.22111 23.38 Z M10.0433 7.08191 C9.65702 7.56698 8.59475 7.37295 7.72561 6.59685 C6.85648 5.82075 5.79421 4.07453 5.69764 3.49245 C5.60107 2.42531 8.40161 4.07453 9.27074 4.85063 C10.1399 5.52971 10.5262 6.59685 10.0433 7.08191 " transform="translate(96.3971, 106.448)"/>
    <path style="fill:#94561b; fill-rule:nonzero;stroke:none;" d="M19.0243 3.58946 C18.0586 3.1044 17.0929 2.61934 16.2238 2.03726 C14.1958 1.64921 11.8781 1.5522 9.36731 1.74623 L9.17417 1.26116 C8.20847 0 6.08392 0.291038 5.21479 0.485063 C3.47653 0.873113 0 3.1044 0.482851 4.94764 C1.15884 7.27594 4.73194 7.08191 6.37363 6.88789 C8.78789 6.49984 11.009 5.14166 9.75359 2.71635 C13.2301 1.94025 16.4169 2.61934 19.0243 3.58946 Z M5.60107 5.72374 C4.63537 5.91776 2.70397 5.72374 2.31768 5.33569 C1.54512 4.75361 4.24909 3.78349 5.31136 3.58946 C6.37363 3.39544 7.24276 3.68648 7.33933 4.36556 C7.4359 4.94764 6.66334 5.62673 5.60107 5.72374 " transform="translate(115.711, 119.06)"/>
   </g>
   <path style="fill:#ffffff; fill-rule:evenodd;stroke:#94561b; stroke-width:1.09665; stroke-linecap:butt; stroke-linejoin:miter; stroke-dasharray:none;" d="M16.7227 38.8625 C14.2824 38.8625 12.0385 38.4511 9.99098 37.6283 C7.94348 36.8056 6.17594 35.5799 4.68836 33.9511 C3.20079 32.3224 2.0475 30.2907 1.2285 27.8561 C0.409501 25.4214 0 22.6257 0 19.469 C0 16.3291 0.396965 13.5922 1.19089 11.2583 C1.98482 8.92435 3.14229 6.89265 4.66329 5.16319 C6.15087 3.48411 7.91423 2.2038 9.95337 1.32228 C11.9925 0.44076 14.274 0 16.7979 0 C18.0515 0 19.2256 0.0923498 20.3204 0.277049 C21.4152 0.461749 22.4306 0.696821 23.3666 0.982266 C24.1689 1.23413 24.9921 1.54896 25.8361 1.92675 C26.6802 2.30455 27.5118 2.72012 28.3308 3.17347 L28.3308 9.193 L27.9296 9.193 C27.495 8.79002 26.9351 8.30309 26.2498 7.7322 C25.5645 7.16131 24.7288 6.59881 23.7427 6.04471 C22.79 5.5242 21.7537 5.09603 20.6338 4.76021 C19.514 4.42439 18.2186 4.25649 16.7477 4.25649 C15.1599 4.25649 13.6556 4.58391 12.2349 5.23875 C10.8142 5.8936 9.56894 6.85907 8.49923 8.13518 C7.44623 9.41128 6.62722 11.0148 6.04222 12.9458 C5.45722 14.8767 5.16472 17.0511 5.16472 19.469 C5.16472 22.038 5.47394 24.2502 6.09237 26.1056 C6.7108 27.961 7.55487 29.5267 8.62459 30.8029 C9.66087 32.0454 10.881 32.9815 12.285 33.6111 C13.689 34.2408 15.1766 34.5556 16.7477 34.5556 C18.1852 34.5556 19.514 34.3793 20.7341 34.0267 C21.9542 33.6741 23.0407 33.2291 23.9934 32.6918 C24.9127 32.1713 25.7066 31.6382 26.3752 31.0925 C27.0438 30.5468 27.5703 30.0808 27.9547 29.6947 L28.3308 29.6947 L28.3308 35.6386 C27.5118 36.0248 26.7387 36.3942 26.0116 36.7468 C25.2846 37.0994 24.4029 37.4436 23.3666 37.7795 C22.2802 38.1321 21.2731 38.4007 20.3455 38.5854 C19.4179 38.7701 18.2102 38.8625 16.7227 38.8625 Z" transform="translate(165.682, 109.395)"/>
  </g>
 </g>
</svg>
